<?xml version="1.0" encoding="UTF-8"?><svg id="Layer_1" xmlns="http://www.w3.org/2000/svg" viewBox="0 0 42.52 42.52"><defs><style>.cls-1{fill:#1ac8c6;}.cls-2{fill:#082029;}</style></defs><path class="cls-2" d="m21.26,27c-5.05,0-9.17-4.11-9.17-9.17s4.11-9.17,9.17-9.17,9.17,4.11,9.17,9.17-4.11,9.17-9.17,9.17Zm0-17.58c-4.64,0-8.42,3.78-8.42,8.42s3.78,8.42,8.42,8.42,8.42-3.78,8.42-8.42-3.78-8.42-8.42-8.42Z"/><path class="cls-2" d="m21.26,24.87c-3.88,0-7.04-3.16-7.04-7.04s3.16-7.04,7.04-7.04,7.04,3.16,7.04,7.04-3.16,7.04-7.04,7.04Zm0-13.33c-3.47,0-6.29,2.82-6.29,6.29s2.82,6.29,6.29,6.29,6.29-2.82,6.29-6.29-2.82-6.29-6.29-6.29Z"/><path class="cls-2" d="m15.72,33.86c-.07,0-.13-.02-.19-.05-.12-.07-.19-.19-.19-.32v-8.83c0-.15.09-.28.22-.34.13-.06.29-.04.4.06,1.44,1.23,3.32,1.88,5.45,1.88,1.9,0,3.68-.61,5.16-1.78.11-.09.27-.11.4-.04.13.06.21.19.21.34v8.72c0,.14-.07.26-.19.33-.12.07-.26.06-.38,0l-5.21-3.08-5.5,3.08c-.06.03-.12.05-.18.05Zm.38-8.44v7.42l5.13-2.87c.12-.06.26-.06.38,0l4.83,2.85v-7.32c-1.48.98-3.21,1.5-5.02,1.5-2.01,0-3.84-.54-5.32-1.58Z"/><path class="cls-1" d="m21.45,14.51l.92,1.87s.05.05.08.06l2.06.3c.09.01.12.12.06.18l-1.49,1.45s-.04.06-.03.09l.35,2.05c.01.09-.08.15-.15.11l-1.84-.97s-.07-.02-.1,0l-1.84.97c-.08.04-.17-.03-.15-.11l.35-2.05s0-.07-.03-.09l-1.49-1.45c-.06-.06-.03-.17.06-.18l2.06-.3s.06-.03.08-.06l.92-1.87c.04-.08.15-.08.19,0Z"/><path class="cls-2" d="m17.5,32.78c-.21,0-.38-.17-.38-.38v-6.64c0-.21.17-.38.38-.38s.38.17.38.38v6.64c0,.21-.17.38-.38.38Z"/><path class="cls-2" d="m25.02,32.78c-.21,0-.37-.17-.37-.38v-6.64c0-.21.17-.38.37-.38s.37.17.37.38v6.64c0,.21-.17.38-.37.38Z"/></svg>