<?xml version="1.0" encoding="UTF-8"?><svg id="Layer_1" xmlns="http://www.w3.org/2000/svg" viewBox="0 0 42.52 42.52"><defs><style>.cls-1{fill:#1ac8c6;}.cls-2{fill:#082029;}.cls-3{fill:#1e272d;}</style></defs><path class="cls-2" d="m33.2,30.18h-1.76c-.24,0-.44-.2-.44-.44s.2-.44.44-.44h1.76c.87,0,1.58-.71,1.58-1.58V8.66c0-.57-.47-1.04-1.04-1.04H9.11c-.57,0-1.04.47-1.04,1.04v19.06c0,.87.71,1.58,1.58,1.58h1.69c.24,0,.44.2.44.44s-.2.44-.44.44h-1.69c-1.36,0-2.46-1.1-2.46-2.46V8.66c0-1.06.86-1.92,1.92-1.92h24.63c1.06,0,1.92.86,1.92,1.92v19.06c0,1.36-1.1,2.46-2.46,2.46Z"/><path class="cls-1" d="m11.08,10.86c-.39,0-.7-.31-.7-.7s.31-.7.7-.7.7.31.7.7-.31.7-.7.7Zm0-.88c-.1,0-.18.08-.18.18,0,.2.36.2.36,0,0-.1-.08-.18-.18-.18Z"/><path class="cls-1" d="m14.04,10.86c-.39,0-.7-.31-.7-.7s.31-.7.7-.7.7.31.7.7-.31.7-.7.7Zm0-.88c-.1,0-.18.08-.18.18,0,.2.36.2.36,0,0-.1-.08-.18-.18-.18Z"/><path class="cls-1" d="m16.99,10.86c-.39,0-.7-.31-.7-.7s.31-.7.7-.7.7.31.7.7-.31.7-.7.7Zm0-.88c-.1,0-.18.08-.18.18,0,.2.36.2.36,0,0-.1-.08-.18-.18-.18Z"/><path class="cls-2" d="m35.22,13.52H7.63c-.24,0-.44-.2-.44-.44s.2-.44.44-.44h27.6c.24,0,.44.2.44.44s-.2.44-.44.44Z"/><path class="cls-3" d="m29.7,29.29c-.28,0-.5-.23-.5-.5,0-4.3-3.49-7.8-7.78-7.8s-7.78,3.49-7.78,7.78c0,.28-.23.5-.5.5s-.5-.23-.5-.5c0-4.85,3.94-8.79,8.78-8.79s8.78,3.95,8.78,8.81c0,.28-.23.5-.5.5Z"/><path class="cls-3" d="m16.99,29.27c-.28,0-.5-.23-.5-.5,0-3.46,1.24-5.63,2.28-6.83.18-.21.5-.24.71-.05.21.18.24.5.05.71-1.35,1.56-2.03,3.64-2.03,6.18,0,.28-.23.5-.5.5Z"/><path class="cls-3" d="m25.86,29.27c-.28,0-.5-.23-.5-.5,0-2.53-.68-4.61-2.03-6.18-.18-.21-.16-.53.05-.71.21-.18.53-.16.71.05,1.04,1.21,2.28,3.37,2.28,6.83,0,.28-.23.5-.5.5Z"/><path class="cls-3" d="m21.42,25.72c-4.83,0-6.15-2.57-6.21-2.68-.12-.25-.02-.55.23-.67.25-.13.55-.02.67.23.04.08,1.15,2.12,5.3,2.12.28,0,.5.23.5.5s-.23.5-.5.5Z"/><path class="cls-3" d="m21.42,25.72c-.28,0-.5-.23-.5-.5s.23-.5.5-.5c4.16,0,5.26-2.03,5.31-2.12.13-.25.43-.34.68-.22.25.13.35.42.23.67-.05.11-1.38,2.68-6.21,2.68Z"/><path class="cls-3" d="m21.42,35.63c-.28,0-.5-.23-.5-.5v-12.87c0-.28.23-.5.5-.5s.5.23.5.5v12.87c0,.28-.23.5-.5.5Z"/><path class="cls-3" d="m21.42,37.56c-4.84,0-8.78-3.94-8.78-8.78,0-.28.23-.5.5-.5s.5.23.5.5c0,4.29,3.49,7.78,7.78,7.78s7.78-3.49,7.78-7.78c0-.28.23-.5.5-.5s.5.23.5.5c0,4.84-3.94,8.78-8.78,8.78Z"/><path class="cls-3" d="m23.84,35.63c-.11,0-.23-.04-.32-.11-.22-.18-.25-.49-.07-.71,1.27-1.55,1.91-3.58,1.91-6.03,0-.28.23-.5.5-.5s.5.23.5.5c0,2.69-.72,4.94-2.14,6.67-.1.12-.24.19-.39.19Z"/><path class="cls-3" d="m19.01,35.63c-.15,0-.29-.06-.39-.19-1.42-1.73-2.14-3.98-2.14-6.67,0-.28.23-.5.5-.5s.5.23.5.5c0,2.45.64,4.48,1.91,6.03.18.22.14.53-.07.71-.09.08-.21.11-.32.11Z"/><path class="cls-3" d="m27.18,35.23c-.18,0-.36-.1-.45-.28-.05-.1-1.16-2.12-5.31-2.12-.28,0-.5-.23-.5-.5s.23-.5.5-.5c4.83,0,6.15,2.57,6.21,2.68.12.25.02.55-.23.67-.07.04-.15.05-.22.05Z"/><path class="cls-3" d="m15.66,35.23c-.08,0-.15-.02-.23-.05-.25-.13-.35-.42-.23-.67.05-.11,1.38-2.68,6.21-2.68.28,0,.5.23.5.5s-.23.5-.5.5c-4.16,0-5.26,2.03-5.31,2.12-.09.17-.27.27-.45.27Z"/></svg>