<?xml version="1.0" encoding="UTF-8"?><svg id="Layer_1" xmlns="http://www.w3.org/2000/svg" viewBox="0 0 42.52 42.52"><defs><style>.cls-1{fill:#082029;}.cls-2{fill:#006170;}</style></defs><path class="cls-1" d="m26.2,22.67c-4.26,0-7.72-3.46-7.72-7.72s3.46-7.72,7.72-7.72,7.72,3.46,7.72,7.72-3.46,7.72-7.72,7.72Zm0-14.64c-3.81,0-6.92,3.1-6.92,6.92s3.1,6.92,6.92,6.92,6.92-3.1,6.92-6.92-3.1-6.92-6.92-6.92Z"/><path class="cls-1" d="m23.74,29.87h-1.74c-.22,0-.4-.18-.4-.4s.18-.4.4-.4h1.74c1.58,0,3.11-.47,4.42-1.36l.52-.36c.28-.19.38-.54.24-.83-.71-.63-1.68-.83-2.59-.55-2.12.64-3.84-.13-3.91-.16-3.68-2.31-7.41-2.33-10.55-.09-.18.13-.43.09-.56-.09-.13-.18-.09-.43.09-.56,3.42-2.44,7.47-2.42,11.4.04h0s1.5.65,3.3.1c1.2-.36,2.48-.08,3.36.73.03.03.11.11.13.14.38.66.17,1.51-.46,1.94l-.52.36c-1.44.98-3.13,1.5-4.87,1.5Z"/><path class="cls-1" d="m22.99,33.29c-.19,0-.38,0-.58-.02-6.8-.39-10.77-.8-10.81-.8-.22-.02-.38-.22-.36-.44.02-.22.2-.38.44-.36.04,0,4,.42,10.77.8,1.72.1,3.46-.28,5.01-1.1l7.8-4.38c.27-.15.41-.44.38-.74-.06-.53-.44-.99-.98-1.16-.13-.04-.44-.09-1.11.03-.44.08-.9.21-1.36.4l-2.58,1.03c-.2.08-.44-.02-.52-.22-.08-.21.02-.44.22-.52l2.58-1.03c.51-.21,1.02-.35,1.51-.44.63-.11,1.14-.11,1.49,0,.83.27,1.43.99,1.53,1.83.07.62-.24,1.22-.79,1.53l-7.81,4.39c-1.52.8-3.19,1.22-4.87,1.22Z"/><path class="cls-1" d="m10.7,35.28h-4.25c-.22,0-.4-.18-.4-.4s.18-.4.4-.4h4.25c.24,0,.43-.19.43-.43v-10.94c0-.24-.19-.43-.43-.43h-4.25c-.22,0-.4-.18-.4-.4s.18-.4.4-.4h4.25c.68,0,1.23.55,1.23,1.23v10.94c0,.68-.55,1.23-1.23,1.23Z"/><rect class="cls-2" x="7.79" y="23.6" width="2.42" height="9.96"/><path class="cls-2" d="m25.59,18.08c-.17,0-.34-.06-.47-.18l-2.74-2.44c-.29-.26-.32-.71-.06-1,.26-.29.71-.32,1-.06l2.19,1.95,3.48-4.26c.25-.3.7-.35,1-.1.3.25.35.7.1,1l-3.95,4.83c-.12.15-.3.24-.49.26-.02,0-.04,0-.06,0Z"/></svg>