<?xml version="1.0" encoding="UTF-8"?><svg id="Layer_1" xmlns="http://www.w3.org/2000/svg" viewBox="0 0 42.52 42.52"><defs><style>.cls-1{fill:#082029;}.cls-2{fill:#006170;}</style></defs><path class="cls-1" d="m24.65,26.24c-.23,0-.42-.19-.42-.42v-2.42l-.5.5c-.16.16-.43.16-.59,0-.16-.16-.16-.43,0-.59l1.22-1.22c.12-.12.3-.16.46-.09.16.06.26.22.26.39v3.43c0,.23-.19.42-.42.42Z"/><path class="cls-1" d="m14.87,26.24h-.31c-.65,0-1.17-.53-1.17-1.17v-2.12c0-.65.53-1.17,1.17-1.17h.31c.65,0,1.17.53,1.17,1.17v2.12c0,.65-.53,1.17-1.17,1.17Zm-.31-3.63c-.19,0-.34.15-.34.34v2.12c0,.19.15.34.34.34h.31c.19,0,.34-.15.34-.34v-2.12c0-.19-.15-.34-.34-.34h-.31Z"/><path class="cls-1" d="m18.04,26.24h-.31c-.65,0-1.17-.53-1.17-1.17v-2.12c0-.65.53-1.17,1.17-1.17h.31c.65,0,1.17.53,1.17,1.17v2.12c0,.65-.53,1.17-1.17,1.17Zm-.31-3.63c-.19,0-.34.15-.34.34v2.12c0,.19.15.34.34.34h.31c.19,0,.34-.15.34-.34v-2.12c0-.19-.15-.34-.34-.34h-.31Z"/><path class="cls-1" d="m27.39,26.24h-.31c-.65,0-1.17-.53-1.17-1.17v-2.12c0-.65.53-1.17,1.17-1.17h.31c.65,0,1.17.53,1.17,1.17v2.12c0,.65-.53,1.17-1.17,1.17Zm-.31-3.63c-.19,0-.34.15-.34.34v2.12c0,.19.15.34.34.34h.31c.19,0,.34-.15.34-.34v-2.12c0-.19-.15-.34-.34-.34h-.31Z"/><path class="cls-1" d="m21.38,23.62c-.38,0-.7-.31-.7-.7s.31-.7.7-.7.7.31.7.7-.31.7-.7.7Zm0-.84c-.08,0-.14.06-.14.14s.06.14.14.14.14-.06.14-.14-.06-.14-.14-.14Z"/><path class="cls-1" d="m21.38,26.19c-.38,0-.7-.31-.7-.7s.31-.7.7-.7.7.31.7.7-.31.7-.7.7Zm0-.84c-.08,0-.14.06-.14.14s.06.14.14.14.14-.06.14-.14-.06-.14-.14-.14Z"/><path class="cls-1" d="m26.92,31.97h-11.9c-.1,0-.19-.03-.26-.09-2.32-1.88-3.65-4.67-3.65-7.66,0-5.44,4.42-9.86,9.86-9.86s9.86,4.42,9.86,9.86c0,2.98-1.33,5.77-3.65,7.66-.07.06-.17.09-.26.09Zm-11.75-.84h11.6c2.05-1.72,3.23-4.23,3.23-6.91,0-4.98-4.05-9.02-9.02-9.02s-9.02,4.05-9.02,9.02c0,2.68,1.17,5.19,3.23,6.91Z"/><path class="cls-1" d="m9.64,19.71c-.14,0-.28-.07-.36-.2-1.04-1.69-1.1-3.71-1.04-4.77.02-.45.28-.85.67-1.06l4.71-2.49c.58-.31,1.29-.12,1.65.43l.72,1.09c.13.19.07.45-.12.58-.19.13-.45.07-.58-.12l-.72-1.09c-.12-.19-.36-.25-.56-.14l-4.71,2.49c-.13.07-.22.21-.23.36-.04.77-.03,2.73.92,4.29.12.2.06.46-.14.58-.07.04-.14.06-.22.06Z"/><path class="cls-1" d="m32.32,19.71c-.07,0-.15-.02-.22-.06-.2-.12-.26-.38-.14-.58.95-1.56.96-3.52.92-4.29,0-.15-.09-.29-.23-.36l-4.71-2.48c-.2-.1-.44-.04-.56.14l-.72,1.09c-.13.19-.39.25-.58.12-.19-.13-.25-.39-.12-.58l.72-1.09c.36-.55,1.07-.73,1.65-.43l4.71,2.49c.39.21.65.61.67,1.06.06,1.05,0,3.07-1.04,4.77-.08.13-.22.2-.36.2Z"/><path class="cls-1" d="m24.87,36.07h0l-7.9-.03s-.09,0-.13-.02c-5.12-1.76-8.56-6.59-8.56-12,0-3.04,1.09-5.98,3.07-8.28,1.88-2.18,4.45-3.66,7.26-4.19v-1.64c0-.62.5-1.12,1.12-1.12h2.48c.62,0,1.12.5,1.12,1.12v1.64c2.81.53,5.38,2.01,7.26,4.19,1.98,2.3,3.07,5.24,3.07,8.28,0,5.47-3.48,10.3-8.66,12.04-.04.01-.09.02-.13.02Zm-7.83-.87l7.76.03c4.8-1.64,8.02-6.14,8.02-11.22,0-5.87-4.2-10.79-9.98-11.71-.2-.03-.35-.21-.35-.41v-2c0-.15-.12-.28-.28-.28h-2.48c-.15,0-.28.12-.28.28v2c0,.21-.15.38-.35.41-5.78.92-9.98,5.84-9.98,11.71,0,5.04,3.18,9.52,7.93,11.19Z"/><path class="cls-1" d="m22.91,12.31s-.05,0-.08,0c-.01,0-1.03-.18-1.84-.15-.22.02-.43-.17-.44-.4-.01-.23.17-.43.4-.44.91-.05,1.99.15,2.03.16.23.04.38.26.34.49-.04.2-.21.34-.41.34Z"/><path class="cls-1" d="m23.14,33.95h-4.34c-.23,0-.42-.19-.42-.42s.19-.42.42-.42h4.34c.23,0,.42.19.42.42s-.19.42-.42.42Z"/><path class="cls-2" d="m13.76,28.07c.44.82,1.02,1.57,1.73,2.21h10.97c.71-.64,1.29-1.39,1.73-2.21h-14.44Z"/></svg>