<?xml version="1.0" encoding="UTF-8"?><svg id="Layer_1" xmlns="http://www.w3.org/2000/svg" viewBox="0 0 42.52 42.52"><defs><style>.cls-1{fill:#082029;}.cls-2{fill:#006170;}.cls-3{fill:none;}</style></defs><path class="cls-1" d="m11.35,17.64h-.93v-4.2c0-.62.47-1.12,1.05-1.12h19.56c.58,0,1.05.5,1.05,1.12v2.64h-.93v-2.64c0-.11-.06-.19-.12-.19H11.48c-.06,0-.12.08-.12.19v4.2h-.01Z"/><polygon class="cls-2" points="12.66 14.8 29.85 14.8 29.85 17.56 22.43 17.6 21.25 19.13 12.66 19.28 12.66 14.8"/><path class="cls-3" d="m32.94,18.25c0-.36-.26-.66-.59-.66h-9.92l-.84,1.53h-11.43c-.32,0-.59.29-.59.66l1.17,9.3c0,.36.26.66.59.66h19.56c.32,0,.59-.29.59-.66l1.47-10.83h0Z"/><path class="cls-1" d="m30.89,30.2H11.33c-.57,0-1.04-.48-1.05-1.09l-1.17-9.33c0-.62.47-1.12,1.05-1.12h11.16l.85-1.53h10.19c.58,0,1.05.5,1.05,1.12v.06l-1.47,10.8c-.02.6-.48,1.08-1.05,1.08h0Zm-20.85-10.44l1.17,9.32c0,.11.07.19.13.19h19.55c.06,0,.12-.08.12-.19v-.06l1.47-10.79c0-.1-.07-.17-.12-.17h-9.65l-.84,1.53h-11.71c-.05,0-.11.07-.12.17Z"/></svg>