<?xml version="1.0" encoding="UTF-8"?><svg id="Layer_1" xmlns="http://www.w3.org/2000/svg" viewBox="0 0 42.52 42.52"><defs><style>.cls-1{fill:#036270;}.cls-2{fill:#082029;}</style></defs><path class="cls-2" d="m21.26,15.1c-.07,0-.14-.02-.2-.05l-5.56-3.21c-.12-.07-.2-.2-.2-.35,0-.14.08-.28.2-.35l5.56-3.16c.12-.07.27-.07.39,0l5.56,3.16c.12.07.2.2.2.35,0,.14-.08.28-.2.35l-5.56,3.21c-.06.04-.13.05-.2.05Zm-4.75-3.61l4.75,2.74,4.75-2.74-4.75-2.7-4.75,2.7Z"/><polygon class="cls-1" points="18.1 11.5 21.26 9.71 24.42 11.5 21.26 13.33 18.1 11.5"/><path class="cls-2" d="m21.26,21.52c-.07,0-.14-.02-.2-.05l-5.56-3.21c-.12-.07-.2-.2-.2-.35v-6.42c0-.22.18-.4.4-.4s.4.18.4.4v6.19l5.36,3.09c.19.11.26.36.15.55-.07.13-.21.2-.35.2Z"/><path class="cls-2" d="m21.26,21.52c-.14,0-.27-.07-.35-.2-.11-.19-.04-.44.15-.55l5.36-3.09v-6.19c0-.22.18-.4.4-.4s.4.18.4.4v6.42c0,.14-.08.27-.2.35l-5.56,3.21c-.06.04-.13.05-.2.05Z"/><path class="cls-2" d="m21.26,19.37c-.22,0-.4-.18-.4-.4v-4.26c0-.22.18-.4.4-.4s.4.18.4.4v4.26c0,.22-.18.4-.4.4Z"/><path class="cls-2" d="m13.06,23.59c-.12,0-.24-.05-.32-.15l-.63-.81c-.04-.05-.07-.11-.08-.18l-.39-2.23c-.17-.96-.34-1.96-.44-2.54-.02-.12-.09-.23-.19-.29-.1-.07-.23-.1-.35-.07l-.84.17c-.22.04-.43-.1-.47-.32-.04-.22.1-.43.31-.47l.84-.17c.34-.07.68,0,.96.19.28.19.46.48.52.81.1.58.27,1.58.44,2.54l.37,2.13.57.73c.14.17.1.43-.07.56-.07.06-.16.08-.25.08Z"/><path class="cls-2" d="m14.31,23.05c-.13,0-.25-.06-.33-.17l-.63-.89s-.06-.1-.07-.16c-.11-.61-.22-1.26-.33-1.95-.1-.59-.2-1.21-.31-1.86-.02-.12-.09-.23-.19-.29-.1-.07-.23-.09-.35-.07l-.46.09c-.22.04-.43-.1-.47-.31s.1-.43.31-.47l.46-.09c.34-.07.68,0,.96.19.28.19.46.48.52.81.11.65.22,1.27.31,1.87.11.65.21,1.27.31,1.85l.58.81c.13.18.09.43-.09.56-.07.05-.15.07-.23.07Z"/><path class="cls-2" d="m15.89,34.42c-.22,0-.4-.18-.4-.4v-3.08c-.33-.63-1.09-1.06-2.32-1.32l-.39-.08c-.98-.2-2-.4-2.77-1.11-.47-.43-.77-.98-1.02-1.47-.45-.9-.85-1.84-1.17-2.8-.13-.39-.02-.8.29-1.08.31-.27.74-.33,1.11-.15.55.27,1.28.74,1.64,1.52l.12.27c.28.66.43.89.93.79.1-.02.2-.06.33-.12,1.59-.73,3.62-.4,4.93.79.16.15.18.4.03.56-.15.16-.4.18-.56.03-1.08-.98-2.75-1.25-4.06-.65-.15.07-.32.14-.5.18-1.2.24-1.57-.66-1.82-1.26l-.11-.25c-.2-.43-.65-.84-1.26-1.13-.11-.05-.2,0-.24.03-.04.03-.1.11-.06.22.31.92.69,1.83,1.13,2.69.21.42.47.9.84,1.24.61.56,1.52.74,2.39.91l.4.08c1.54.33,2.5.93,2.92,1.85.02.05.04.11.04.17v3.17c0,.22-.18.4-.4.4Z"/><path class="cls-2" d="m19.99,34.58c-.22,0-.4-.18-.4-.4v-5.88c-.08-.86-.42-1.84-.92-2.64-.86-1.37-2.12-1.66-3.34-1.93l-.43-.1c-.21-.05-.35-.27-.3-.48.05-.21.27-.35.48-.3l.42.1c1.25.28,2.81.63,3.84,2.29.56.9.94,2.01,1.04,3.02v5.91c0,.22-.18.4-.4.4Z"/><path class="cls-2" d="m11.57,24.19c-.11,0-.23-.05-.31-.14l-.77-.91c-.05-.06-.08-.12-.09-.19l-.87-5.39c-.02-.09-.07-.18-.14-.23-.08-.06-.18-.08-.27-.06-.21.04-.36.24-.34.45l.72,5.49c.03.22-.13.42-.34.45-.22.03-.42-.13-.45-.34l-.72-5.5c-.07-.64.36-1.22.98-1.34.31-.06.62,0,.88.19.25.18.42.45.47.76l.85,5.28.7.83c.14.17.12.42-.05.56-.08.06-.17.09-.26.09Z"/><path class="cls-2" d="m29.46,23.59c-.09,0-.17-.03-.25-.08-.17-.14-.21-.39-.07-.56l.57-.73.81-4.67c.06-.34.25-.62.52-.81.28-.19.62-.26.96-.19l.84.17c.22.04.36.25.31.47-.04.22-.25.36-.47.32l-.84-.17c-.13-.03-.25,0-.35.07-.1.07-.17.17-.19.29l-.83,4.76c-.01.06-.04.12-.08.18l-.63.81c-.08.1-.2.15-.32.15Z"/><path class="cls-2" d="m28.21,23.05c-.08,0-.16-.02-.23-.07-.18-.13-.22-.38-.09-.56l.58-.81c.11-.58.21-1.2.31-1.85.1-.6.2-1.22.31-1.87.06-.33.24-.62.52-.81.28-.19.62-.26.96-.19l.46.09c.22.04.36.25.31.47-.04.22-.26.35-.47.31l-.45-.09c-.12-.03-.25,0-.36.07-.1.07-.16.17-.19.29-.11.64-.21,1.26-.31,1.85-.11.69-.22,1.35-.33,1.96-.01.06-.03.11-.07.16l-.63.89c-.08.11-.2.17-.33.17Z"/><path class="cls-2" d="m26.63,34.42c-.22,0-.4-.18-.4-.4v-3.17c0-.06.01-.11.04-.17.42-.92,1.37-1.52,2.92-1.85l.4-.08c.87-.18,1.78-.36,2.39-.91.37-.34.63-.82.84-1.24.44-.87.82-1.77,1.13-2.69.04-.11-.02-.19-.06-.22-.03-.03-.12-.09-.24-.03-.61.29-1.06.7-1.26,1.13l-.11.25c-.25.6-.63,1.5-1.82,1.26-.18-.04-.35-.1-.5-.17-1.31-.6-2.98-.33-4.06.65-.16.15-.42.14-.56-.03-.15-.16-.14-.42.03-.56,1.31-1.19,3.33-1.51,4.93-.79.12.06.23.1.33.12.51.1.65-.12.93-.79l.12-.27c.36-.77,1.09-1.25,1.64-1.52.37-.18.81-.12,1.11.15.31.27.42.68.29,1.08-.32.96-.72,1.9-1.17,2.8-.25.48-.55,1.04-1.02,1.47-.77.71-1.79.91-2.77,1.11l-.39.08c-1.23.26-1.99.69-2.32,1.32v3.08c0,.22-.18.4-.4.4Z"/><path class="cls-2" d="m22.53,34.58c-.22,0-.4-.18-.4-.4v-5.88c.1-1.06.47-2.16,1.04-3.06,1.04-1.65,2.59-2,3.84-2.28l.42-.1c.22-.05.43.08.48.3.05.21-.08.43-.3.48l-.43.1c-1.22.27-2.48.56-3.34,1.93-.5.8-.84,1.77-.92,2.67v5.84c0,.22-.18.4-.4.4Z"/><path class="cls-2" d="m30.95,24.19c-.09,0-.18-.03-.26-.09-.17-.14-.19-.4-.05-.56l.7-.83.85-5.28c.05-.31.22-.58.47-.76.26-.18.57-.25.88-.19.63.12,1.06.7.99,1.33l-.72,5.51c-.03.22-.23.37-.45.34-.22-.03-.37-.23-.34-.45l.72-5.5c.02-.2-.13-.41-.34-.45-.1-.02-.2,0-.27.06-.08.05-.13.14-.14.23l-.87,5.39c-.01.07-.04.14-.09.19l-.77.91c-.08.09-.19.14-.31.14Z"/></svg>