<?xml version="1.0" encoding="UTF-8"?><svg id="Layer_1" xmlns="http://www.w3.org/2000/svg" viewBox="0 0 42.52 42.52"><defs><style>.cls-1{fill:#082029;}.cls-2{fill:#006170;}.cls-3{fill:#282d33;}</style></defs><path class="cls-2" d="m24.54,16.36c-2.91-2.74-7.5-2.59-10.23.32-2.74,2.91-2.59,7.5.32,10.23,2.91,2.74,7.5,2.59,10.23-.32,2.74-2.91,2.59-7.5-.32-10.23Zm-1.34,8.62c-1.86,1.98-4.98,2.08-6.96.22s-2.08-4.98-.22-6.96,4.98-2.08,6.96-.22,2.08,4.98.22,6.96Z"/><path class="cls-1" d="m19.58,34.62c-7.16,0-12.98-5.82-12.98-12.98h1.02c0,6.59,5.36,11.95,11.95,11.95,6.59,0,11.95-5.36,11.95-11.95,0-6.59-5.36-11.95-11.95-11.95v-1.02c7.16,0,12.98,5.82,12.98,12.98,0,7.16-5.82,12.98-12.98,12.98Z"/><path class="cls-3" d="m7.62,21.64h-1.02c0-.18,0-.36.01-.53l1.02.04c0,.16-.01.33-.01.49Z"/><path class="cls-1" d="m7.71,20.21l-1.02-.12c.04-.33.09-.67.16-1l1.01.2c-.06.31-.11.61-.15.92Z"/><path class="cls-1" d="m8.07,18.38l-.98-.28c.09-.33.2-.65.32-.97l.96.36c-.11.29-.21.59-.29.89Z"/><path class="cls-1" d="m8.72,16.62l-.93-.43c.14-.31.3-.61.46-.9l.89.5c-.15.27-.3.55-.43.83Z"/><path class="cls-1" d="m13.72,11.21l-.5-.89c.29-.17.6-.32.9-.46l.43.93c-.28.13-.56.27-.83.43Z"/><path class="cls-1" d="m15.42,10.43l-.36-.96c.31-.12.64-.22.97-.32l.28.98c-.3.09-.6.18-.89.29Z"/><path class="cls-1" d="m17.22,9.92l-.2-1c.33-.07.67-.12,1-.16l.12,1.02c-.31.04-.62.09-.92.15Z"/><path class="cls-3" d="m19.09,9.69l-.04-1.03c.18,0,.35-.01.53-.01v1.03c-.16,0-.33,0-.49.01Z"/><polygon class="cls-1" points="23.59 29.91 23.59 28.89 26.61 28.89 26.61 25.87 27.63 25.87 27.63 29.91 23.59 29.91"/><rect class="cls-1" x="18.28" y="9.82" width="1.02" height="22.51" transform="translate(-9.4 19.46) rotate(-45)"/></svg>