<?xml version="1.0" encoding="UTF-8"?><svg id="Layer_1" xmlns="http://www.w3.org/2000/svg" viewBox="0 0 42.52 42.52"><defs><style>.cls-1{fill:#082029;}.cls-2{fill:#006170;}</style></defs><polygon class="cls-1" points="24.11 17.89 23.15 18.44 23.15 16 24.11 16.55 24.11 17.89"/><polygon class="cls-1" points="24.11 19.14 24.92 19.61 23.97 20.16 23.15 19.69 23.15 19.53 24.11 18.97 24.11 19.14"/><path class="cls-1" d="m28.54,17.05s0-.02-.01-.04c-.02-.05-.05-.1-.1-.13-.02-.04-.06-.06-.1-.08l-.05-.02-4.18-2.41-.96-.55-1.61-.93c-.14-.08-.32-.08-.48,0l-6.75,3.9-.05.02s-.07.05-.1.08c-.1.08-.14.2-.14.33,0,.17.1.33.24.42l.72.42,5.84,3.36.24.14c.08.05.17.07.24.07.08,0,.17-.02.24-.07l.24-.14,2.19-1.26.96-.55,2.7-1.55.72-.42c.16-.08.24-.25.24-.42,0-.06-.01-.11-.04-.17Zm-4.43,1.91l-.96.56-1.85,1.06-5.84-3.37,5.84-3.37,1.85,1.06.96.56,3.04,1.75-3.04,1.75Z"/><polygon class="cls-2" points="25.27 17.22 24.11 17.89 23.15 18.44 21.3 19.52 17.34 17.22 21.3 14.93 23.15 16 24.11 16.55 25.27 17.22"/><path class="cls-1" d="m28.58,17.22v8.13l-7.28,4.21-7.28-4.21v-8.13c0-.13.05-.25.14-.33.04-.05.1-.08.14-.11.06-.02.12-.04.19-.04.27,0,.48.22.48.48v7.58l6.32,3.65,6.32-3.65v-7.58c0-.26.22-.48.48-.48.07,0,.13.01.19.04.05.02.11.06.14.11.05.04.07.08.1.13.01.01.01.02.01.04.02.06.04.11.04.17Z"/><path class="cls-1" d="m21.3,26.84c-.26,0-.48-.21-.48-.48v-5.22c0-.26.21-.48.48-.48s.48.21.48.48v5.22c0,.26-.21.48-.48.48Z"/><path class="cls-1" d="m21.81,6.47v5.88l-.5-.29-.69.39v-5.98s.11.1.17.12c.12.08.26.13.42.13s.31-.05.44-.13c.06-.04.11-.08.17-.13Z"/><path class="cls-1" d="m21.31,30.74l.5-.29v5.3c0,.33-.26.59-.6.59s-.6-.25-.6-.59v-5.4l.69.39Z"/><path class="cls-1" d="m13.22,26.07l.06.04-3.3,1.9-.54.31-.36.2-.19.12c0-.14-.04-.26-.11-.39l-.07-.11c-.11-.13-.25-.23-.42-.27-.07-.02-.14-.02-.22-.02s-.13.01-.19.02c.04-.04.06-.07.11-.1l.57-.32.11-.06.59-.33,3.96-2.29v1.31Z"/><path class="cls-1" d="m34.43,13.88l-.51.3-.07.05-.48.27-.53.31-3.45,2v-.07l-1.12-.66,4.08-2.35.6-.33.23-.13.61-.36s.01-.01.01-.01l.05-.02c.27-.17.65-.07.81.22.17.29.06.65-.22.8Z"/><path class="cls-1" d="m10.08,13.71l4.2,2.41-1.05.61v.17l-3.62-2.1-.54-.3-.48-.29-.07-.04s.05-.02.07-.05c.08-.06.14-.13.2-.23.07-.13.11-.27.11-.42,0-.07-.01-.12-.02-.19-.05-.17-.14-.31-.27-.43l.67.38.2.12.61.35Z"/><path class="cls-1" d="m34.54,27.85c-.06-.01-.13-.02-.2-.02-.24,0-.47.1-.62.29-.04.04-.06.07-.07.12-.01.01-.01.02-.01.04-.06.11-.1.24-.1.36l-.18-.11-.37-.22-.54-.31-3.19-1.84.13-.08v-1.21l3.78,2.18.57.35.11.06.59.32s.07.05.11.08Z"/><polygon class="cls-1" points="21.21 4.39 19.15 7.97 23.28 7.97 21.21 4.39"/><polygon class="cls-1" points="21.21 38.13 23.28 34.55 19.15 34.55 21.21 38.13"/><polygon class="cls-1" points="35.82 12.45 31.69 12.45 33.75 16.03 35.82 12.45"/><polygon class="cls-1" points="6.61 29.32 10.74 29.32 8.67 25.74 6.61 29.32"/><polygon class="cls-1" points="35.91 29.32 33.85 25.74 31.78 29.32 35.91 29.32"/><polygon class="cls-1" points="6.7 12.45 8.77 16.03 10.83 12.45 6.7 12.45"/></svg>