<?xml version="1.0" encoding="utf-8"?>
<!-- Generator: Adobe Illustrator 25.3.1, SVG Export Plug-In . SVG Version: 6.00 Build 0)  -->
<svg version="1.1" id="Layer_1" opacity="10" xmlns="http://www.w3.org/2000/svg" xmlns:xlink="http://www.w3.org/1999/xlink"
	 x="0px" y="0px" viewBox="0 0 1867 1564" style="enable-background:new 0 0 1867 1564;" xml:space="preserve">
<style type="text/css">
	.st0{fill:none;stroke:#AA0000;stroke-miterlimit:10;}
</style>
<path class="st0" d="M82.7,743.8c22.3-283,234.4-653.4,530.5-578.8c274.6,69.2,144.3,271.1,374.9,404.3
	c230.6,133.1,478.9-152.5,695.5,27.7c125.7,104.6,155.1,307.6,46.6,490.3c-108.5,182.7-354.9,345.1-780.5,368.6
	c-402.1,22.2-622-114.7-739.9-277.8C91.9,1015.1,76.2,826,82.7,743.8z"/>
<path class="st0" d="M935.2,1432.4c-368.8,20.9-571.8-103.8-681.1-253.3c-108.4-148.7-123.9-321.5-118.7-398.5
	C153.9,518.8,348.3,175.4,622.1,237C875,293.8,763.7,475.3,976.8,596.3c6,3.4,12.1,6.5,18.3,9.4c165.2,77.3,338.5-50.9,498.7-28.8
	c43.5,6,86.1,22.9,127.1,57.8c117.8,100.5,143.5,288.7,42.1,457C1560.9,1260.7,1330,1409.7,935.2,1432.4L935.2,1432.4z"/>
<path class="st0" d="M920.7,1408.9c-335.4,19.6-521.5-92.8-622.3-228.8c-98.9-134.3-114.6-291-110.4-362.7
	c14-240.8,191.3-557,443-508.6C862.2,353.4,769.5,515,965.6,623.3c5.7,3.1,11.3,5.9,17,8.5c153.3,70.3,313.2-39.8,459.5-15.1
	c39.9,6.7,79,23.1,116.2,55.7c110,96.4,132,269.8,37.7,423.7C1500.2,1251.5,1284.8,1387,920.7,1408.9z"/>
<path class="st0" d="M906.3,1385.5c-302.1,18.3-471.5-81.6-563.5-204.3C253,1061.4,237.7,920.8,240.7,854.4
	c9.9-219.8,169.7-508.8,399.3-473.5c209.4,32.2,135.6,173.5,314.4,269.4c5.2,2.8,10.5,5.3,15.8,7.7c141.4,63.3,287.9-28.8,420.2-1.5
	c36.4,7.5,71.9,23.4,105.3,53.7c102.1,92.3,120.4,251,33.2,390.5C1439.5,1242.2,1239.5,1364.3,906.3,1385.5L906.3,1385.5z"/>
<path class="st0" d="M891.9,1362c-268.8,17.5-421.3-70.5-504.7-179.8c-80.4-105.4-95.6-229.7-93.8-291
	c5.8-198.7,148-460.5,355.5-438.4c187.5,20,132.8,140.9,294.2,224.4c4.8,2.5,9.7,4.7,14.5,6.8c129.5,56.3,262.7-17.7,381,12.2
	c32.8,8.3,64.7,23.8,94.3,51.6c94.1,88.3,109.2,232.3,28.8,357.2C1379.2,1233.2,1194.3,1342.2,891.9,1362L891.9,1362z"/>
<path class="st0" d="M877.5,1338.5c-235.4,16.3-371.1-59.5-445.9-155.3c-71-91-86.1-199.1-85.5-255.2
	c1.9-177.6,126.2-412.1,311.8-403.3c165.5,7.9,130,108.3,274.1,179.4c4.4,2.2,8.8,4.1,13.2,5.9c117.6,49.3,237.4-6.5,341.7,25.8
	c29.3,9.1,57.6,24.1,83.4,49.5c86.1,84.4,97.7,213.5,24.3,324C1318.5,1224,1149.1,1319.7,877.5,1338.5L877.5,1338.5z"/>
<path class="st0" d="M863.1,1315c-202.1,15.1-320.9-48.4-387.2-130.8c-61.6-76.6-76.6-168.5-77.2-219.3
	c-2-156.5,104.2-363.5,268-368.2c143.5-4.1,127.3,75.6,253.9,134.4c4,1.8,8,3.5,12,5.1c105.7,42.3,212.2,4.8,302.5,39.5
	c25.8,9.9,50.4,24.6,72.6,47.5c78.1,80.6,86.1,194.7,19.9,290.7C1257.9,1214.8,1103.9,1297.1,863.1,1315L863.1,1315z"/>
<path class="st0" d="M848.6,1291.5c-168.8,13.8-270.6-37.4-328.4-106.3c-52.1-62.2-67-137.9-69-183.5
	c-5.7-135.3,81.4-322.3,224.2-333.1c122-9.2,124.6,42.7,233.8,89.5c3.6,1.5,7.1,2.9,10.7,4.2c93.7,35.3,186.9,16.2,263.2,53.1
	c22.2,10.7,43.1,25,61.6,45.4c69.9,76.9,74.6,175.8,15.4,257.5C1197.2,1205.5,1058.6,1274.4,848.6,1291.5L848.6,1291.5z"/>
<path class="st0" d="M834.2,1268.1c-135.4,12.4-220.3-26.5-269.6-81.8c-42.6-47.9-57.4-107.3-60.7-147.6
	c-9.2-114.2,60.1-265.3,180.5-298c99.1-26.9,122.1,9.7,213.6,44.5c3.1,1.2,6.3,2.3,9.5,3.3c81.8,28.3,161.6,27.8,224,66.8
	c18.7,11.7,35.8,25.5,50.8,43.3c61.5,73.5,63,156.9,11,224.2C1136.4,1196.2,1013.4,1251.7,834.2,1268.1z"/>
<path class="st0" d="M836,1230.3c-115.9,10.8-188.3-20.6-230.2-65.7c-36.2-39-48.6-87.6-51.1-120.6c-7.3-93.5,52.7-217.6,155.9-245
	c84.9-22.5,104.4,7.3,182.5,35.4c2.7,1,5.4,1.8,8.1,2.7c69.9,22.8,138.1,22,191.3,53.6c15.9,9.4,30.5,20.7,43.2,35.2
	c52.3,59.9,53.1,128.2,8.2,183.6C1094.9,1170,989.4,1216,836,1230.3L836,1230.3z"/>
</svg>
