<?xml version="1.0" encoding="utf-8"?>
<!-- Generator: Adobe Illustrator 25.3.1, SVG Export Plug-In . SVG Version: 6.00 Build 0)  -->
<svg version="1.1" xmlns="http://www.w3.org/2000/svg" xmlns:xlink="http://www.w3.org/1999/xlink" x="0px" y="0px"
	 viewBox="0 0 500 500" style="enable-background:new 0 0 500 500;" xml:space="preserve">
<style type="text/css">
	.st0{fill:#EBEBEB;}
	.st1{fill:#F0F0F0;}
	.st2{fill:#FFFFFF;}
	.st3{opacity:0.5;enable-background:new    ;}
	.st4{display:none;}
	.st5{display:inline;}
	.st6{fill:#407BFF;}
	.st7{opacity:0.9;fill:#FFFFFF;}
	.st8{fill:#F5F5F5;}
	.st9{clip-path:url(#SVGID_2_);}
	.st10{opacity:0.2;}
	.st11{opacity:0.3;fill:#FFFFFF;}
	.st12{opacity:0.8;fill:#407BFF;}
	.st13{opacity:0.4;}
	.st14{fill-rule:evenodd;clip-rule:evenodd;fill:#407BFF;}
	.st15{opacity:0.7;}
	.st16{fill-rule:evenodd;clip-rule:evenodd;fill:#FFFFFF;}
	.st17{fill:none;stroke:#407BFF;stroke-miterlimit:10;}
	.st18{clip-path:url(#SVGID_4_);}
	.st19{opacity:0.5;}
	.st20{opacity:0.4;fill:#FFFFFF;}
	.st21{opacity:0.1;}
	.st22{fill:#FFB273;}
	.st23{opacity:0.2;enable-background:new    ;}
	.st24{fill:#263238;}
	.st25{fill:#630F0F;}
	.st26{opacity:0.1;fill:#FFFFFF;}
	.st27{opacity:0.7;fill:#FFFFFF;}
	.st28{opacity:0.8;fill:#FFFFFF;}
	.st29{clip-path:url(#SVGID_6_);}
	.st30{fill:#FF8B7B;}
	.st31{opacity:0.8;}
	.st32{opacity:0.1;fill:#FFFFFF;enable-background:new    ;}
	.st33{opacity:0.5;fill:#FFFFFF;enable-background:new    ;}
	.st34{opacity:0.5;fill:#FFFFFF;}
	.st35{clip-path:url(#SVGID_8_);}
	.st36{fill:#7F3E3B;}
	.st37{opacity:0.9;}
	.st38{opacity:0.2;fill:#FFFFFF;}
	.st39{opacity:0.3;}
	.st40{opacity:0.3;enable-background:new    ;}
	.st41{fill:#FF5652;}
</style>
<g id="Background_Complete">
	<rect x="416.8" y="398.5" class="st0" width="33.1" height="0.2"/>
	<rect x="322.5" y="401.2" class="st0" width="8.7" height="0.2"/>
	<rect x="396.6" y="389.2" class="st0" width="19.2" height="0.2"/>
	<rect x="52.5" y="390.9" class="st0" width="43.2" height="0.2"/>
	<rect x="104.6" y="390.9" class="st0" width="6.3" height="0.2"/>
	<rect x="131.5" y="395.1" class="st0" width="93.7" height="0.2"/>
	<path class="st0" d="M237,337.8H43.9c-3.1,0-5.7-2.6-5.7-5.7V60.7c0-3.1,2.6-5.7,5.7-5.7H237c3.1,0,5.7,2.6,5.7,5.7v271.4
		C242.7,335.2,240.2,337.8,237,337.8z M43.9,55.2c-3,0-5.5,2.4-5.5,5.5v271.4c0,3,2.4,5.5,5.5,5.5H237c3,0,5.5-2.4,5.5-5.5V60.7
		c0-3-2.4-5.5-5.5-5.5H43.9z"/>
	<path class="st0" d="M453.3,337.8H260.2c-3.1,0-5.7-2.6-5.7-5.7V60.7c0-3.1,2.6-5.7,5.7-5.7h193.1c3.1,0,5.7,2.6,5.7,5.7v271.4
		C459,335.2,456.5,337.8,453.3,337.8z M260.2,55.2c-3,0-5.5,2.4-5.5,5.5v271.4c0,3,2.4,5.5,5.5,5.5h193.1c3,0,5.5-2.4,5.5-5.5V60.7
		c0-3-2.4-5.5-5.5-5.5H260.2z"/>
	<rect y="382.4" class="st0" width="500" height="0.2"/>
	<g>
		<circle class="st1" cx="250.6" cy="241.7" r="124.2"/>
		<g>
			<g>
				<path class="st2" d="M250.9,368.7c-70,0-127-57-127-127c0-70.1,57-127,127-127v5.6c-67,0-121.5,54.5-121.5,121.5
					c0,67,54.5,121.5,121.5,121.5V368.7z"/>
			</g>
			<g>
				<g>
					<g>
						<path class="st2" d="M250.9,368.7v-5.6c67,0,121.5-54.5,121.5-121.5c0-67-54.5-121.5-121.5-121.5v-5.6c70.1,0,127,57,127,127
							C378,311.7,321,368.7,250.9,368.7z"/>
					</g>
					<g>
						<g>
							<path class="st2" d="M315.9,241.7h-5.6c0-41.2-20.9-96.3-60.8-121.9l3-4.7C294.1,141.8,315.9,199,315.9,241.7z"/>
						</g>
						<g>
							<path class="st2" d="M252.5,364.5l-3-4.7c39.9-25.6,60.8-80.7,60.8-121.9h5.6C315.9,280.6,294.1,337.8,252.5,364.5z"/>
						</g>
					</g>
					<g>
						<g>
							<path class="st2" d="M191.6,241.7H186c0-42.7,21.8-99.9,63.4-126.6l3,4.7C212.5,145.4,191.6,200.5,191.6,241.7z"/>
						</g>
						<g>
							<path class="st2" d="M249.4,364.5c-41.6-26.7-63.4-83.9-63.4-126.6h5.6c0,41.2,20.9,96.3,60.8,121.9L249.4,364.5z"/>
						</g>
					</g>
					<g>
						<rect x="248.1" y="117.4" class="st2" width="5.6" height="248.5"/>
					</g>
				</g>
			</g>
			<g>
				<g>
					<rect x="145.8" y="172.7" class="st2" width="210.3" height="5.6"/>
				</g>
				<g>
					<rect x="126.8" y="241" class="st2" width="248.4" height="5.6"/>
				</g>
				<g>
					<rect x="148.6" y="309.2" class="st2" width="204.8" height="5.6"/>
				</g>
			</g>
		</g>
	</g>
	<g>
		<g>
			<path class="st1" d="M397.1,329.9c4.3-4.4,11.4-4.5,15.8-0.2c4.4,4.3,4.5,11.4,0.2,15.8c-4.3,4.4-11.4,4.5-15.8,0.2
				S392.8,334.3,397.1,329.9z M408.9,341.3c2-2.1,2-5.4-0.1-7.4c-2.1-2-5.4-2-7.4,0.1c-2,2.1-2,5.4,0.1,7.4
				C403.6,343.4,406.9,343.4,408.9,341.3z"/>
		</g>
		<g>
			<g>
				
					<rect x="417.2" y="337.6" transform="matrix(0.6962 -0.7179 0.7179 0.6962 -124.749 407.7434)" class="st1" width="4.2" height="27.2"/>
			</g>
			<g>
				<g>
					
						<rect x="424.3" y="360.7" transform="matrix(0.6962 -0.7179 0.7179 0.6962 -130.3099 417.6765)" class="st1" width="7.9" height="4.2"/>
				</g>
				<g>
					
						<rect x="420.5" y="357.1" transform="matrix(0.6962 -0.7178 0.7178 0.6962 -128.9562 413.6432)" class="st1" width="7.5" height="4.2"/>
				</g>
				<g>
					
						<rect x="415.1" y="352.1" transform="matrix(0.6962 -0.7178 0.7178 0.6962 -127.1491 407.9333)" class="st1" width="6.5" height="4.2"/>
				</g>
			</g>
		</g>
	</g>
	<g>
		<g>
			<path class="st1" d="M48.7,93.3c-1.1,0-2-0.9-2-2c0-16.5,13.4-29.9,29.9-29.9c1.1,0,2,0.9,2,2s-0.9,2-2,2
				c-14.3,0-25.9,11.6-25.9,25.9C50.7,92.4,49.8,93.3,48.7,93.3z"/>
		</g>
		<g>
			<path class="st1" d="M61,91.3c-1.1,0-2-0.9-2-2c0-9.9,8-17.9,17.9-17.9c1.1,0,2,0.9,2,2c0,1.1-0.9,2-2,2
				c-7.6,0-13.9,6.2-13.9,13.9C63,90.4,62.1,91.3,61,91.3z"/>
		</g>
		<g>
			<path class="st1" d="M71.3,91.9c-1.1,0-2-0.9-2-2c0-5.5,4.5-9.9,9.9-9.9c1.1,0,2,0.9,2,2s-0.9,2-2,2c-3.3,0-5.9,2.7-5.9,5.9
				C73.3,91,72.4,91.9,71.3,91.9z"/>
		</g>
	</g>
	<path class="st0" d="M95.1,330.2l1.4,23.3c-0.4,7.6-13.3,14.5-13.3,14.5s-13.7-5-15.2-12.5l-1.9-23.2l13.9-5.7L95.1,330.2z"/>
	<g>
		<g>
			<g>
				<g>
					<path class="st1" d="M446.1,70.8l0.8,9.6c0.1,0.9-0.6,1.6-1.4,1.7c-0.9,0.1-1.6-0.6-1.7-1.4l-0.8-9.6c-0.3-3.1-3-5.4-6.1-5.1
						l-3.4,0.3c-3.1,0.3-5.4,3-5.1,6.1l0.8,8.6l-3.1,0.3l-0.8-8.6c-0.4-4.8,3.1-9.1,8-9.5l3.4-0.3C441.5,62.5,445.7,66,446.1,70.8z"
						/>
				</g>
				<g class="st3">
					<path class="st1" d="M446.1,70.8l0.8,9.6c0.1,0.9-0.6,1.6-1.4,1.7c-0.9,0.1-1.6-0.6-1.7-1.4l-0.8-9.6c-0.3-3.1-3-5.4-6.1-5.1
						l-3.4,0.3c-3.1,0.3-5.4,3-5.1,6.1l0.8,8.6l-3.1,0.3l-0.8-8.6c-0.4-4.8,3.1-9.1,8-9.5l3.4-0.3C441.5,62.5,445.7,66,446.1,70.8z"
						/>
				</g>
				<g>
					<g>
						<path class="st1" d="M448,80l1.6,18.6c0.1,1.2-0.8,2.2-1.9,2.3l-18.6,1.6c-1.2,0.1-2.2-0.8-2.3-1.9L425.1,82
							c-0.1-0.8,0.3-1.5,0.8-1.9c0.3-0.2,0.7-0.4,1.1-0.4l18.6-1.6c0.4,0,0.8,0,1.1,0.2C447.4,78.5,447.9,79.2,448,80z"/>
					</g>
				</g>
			</g>
		</g>
	</g>
</g>
<g id="Background_Simple" class="st4">
	<g class="st5">
		<path class="st6" d="M324.2,155.5c-19.8-17.8-46.5-34.1-77.7-35.3c-35.4-1.4-66.2,17-86.1,37.9c-30.3,32-43.2,71.6-44.1,110.7
			c-0.7,31.8,6.7,64.8,31.1,91.5c24.4,26.7,68.5,45.8,111.9,41.5c29.6-2.9,55.6-16,75-32.3c29-24.5,50.2-53,50.8-85.7
			c0.5-29.6-8.3-59.3-25.4-86.4C350.3,182.5,338.4,168.3,324.2,155.5z"/>
		<path class="st7" d="M324.2,155.5c-19.8-17.8-46.5-34.1-77.7-35.3c-35.4-1.4-66.2,17-86.1,37.9c-30.3,32-43.2,71.6-44.1,110.7
			c-0.7,31.8,6.7,64.8,31.1,91.5c24.4,26.7,68.5,45.8,111.9,41.5c29.6-2.9,55.6-16,75-32.3c29-24.5,50.2-53,50.8-85.7
			c0.5-29.6-8.3-59.3-25.4-86.4C350.3,182.5,338.4,168.3,324.2,155.5z"/>
	</g>
</g>
<g id="Shadow">
	<ellipse id="_x3C_Path_x3E__359_" class="st8" cx="250" cy="415.7" rx="193.9" ry="11.3"/>
</g>
<g id="Device_1">
	<g>
		<g>
			<defs>
				<path id="SVGID_1_" d="M112.4,296.6H47.1c-4.9,0-8.9-4-8.9-8.9v-65.3c0-4.9,4-8.9,8.9-8.9h65.3c4.9,0,8.9,4,8.9,8.9v65.3
					C121.3,292.6,117.3,296.6,112.4,296.6z"/>
			</defs>
			<clipPath id="SVGID_2_">
				<use xlink:href="#SVGID_1_"  style="overflow:visible;"/>
			</clipPath>
			<g class="st9">
				<g>
					<g>
						<g>
							<rect x="74.4" y="262.2" class="st6" width="9.7" height="19.7"/>
							<rect x="74.4" y="262.2" class="st6" width="9.7" height="19.7"/>
						</g>
						<g>
							<polygon class="st6" points="88.5,282.3 70.1,282.3 74.6,278.3 84,278.3 							"/>
							<polygon class="st6" points="88.5,282.3 70.1,282.3 74.6,278.3 84,278.3 							"/>
						</g>
					</g>
					<g>
						<rect x="74.4" y="269.8" class="st10" width="9.8" height="4"/>
						<path class="st6" d="M46.5,228.7h66.1c0.7,0,1.3,0.6,1.3,1.3v40.5c0,0.7-0.6,1.3-1.3,1.3H46.5c-0.7,0-1.3-0.6-1.3-1.3V230
							C45.3,229.3,45.9,228.7,46.5,228.7z"/>
						<path class="st11" d="M46.5,228.7h66.1c0.7,0,1.3,0.6,1.3,1.3v40.5c0,0.7-0.6,1.3-1.3,1.3H46.5c-0.7,0-1.3-0.6-1.3-1.3V230
							C45.3,229.3,45.9,228.7,46.5,228.7z"/>
						<path class="st12" d="M111.3,233.2v33.9c0,1-0.8,1.8-1.8,1.8H49.6c-1,0-1.8-0.8-1.8-1.8v-33.9c0-1,0.8-1.8,1.8-1.8h59.9
							C110.5,231.4,111.3,232.2,111.3,233.2z"/>
						<path class="st13" d="M111.3,233.2v33.9c0,1-0.8,1.8-1.8,1.8H49.6c-1,0-1.8-0.8-1.8-1.8v-33.9c0-1,0.8-1.8,1.8-1.8h59.9
							C110.5,231.4,111.3,232.2,111.3,233.2z"/>
					</g>
				</g>
				<g>
					<polygon class="st14" points="87.8,244.2 79.2,249.3 70.7,244.4 70.7,244.2 79.2,239.2 87.8,244.2 					"/>
					<polygon class="st14" points="88.7,245.8 88.7,255.8 80.2,260.7 80.2,250.8 					"/>
					<polygon class="st14" points="78.4,250.8 78.4,260.7 69.8,255.8 69.8,245.8 78.4,250.8 					"/>
					<g class="st15">
						<polygon class="st16" points="87.8,244.2 79.2,249.3 70.7,244.4 70.7,244.2 79.2,239.2 87.8,244.2 						"/>
						<polygon class="st16" points="88.7,245.8 88.7,255.8 80.2,260.7 80.2,250.8 						"/>
						<polygon class="st16" points="78.4,250.8 78.4,260.7 69.8,255.8 69.8,245.8 78.4,250.8 						"/>
					</g>
				</g>
			</g>
			<use xlink:href="#SVGID_1_"  style="overflow:visible;fill:none;stroke:#407BFF;stroke-miterlimit:10;"/>
		</g>
		<g>
			<path class="st17" d="M112.4,296.6H47.1c-4.9,0-8.9-4-8.9-8.9v-65.3c0-4.9,4-8.9,8.9-8.9h65.3c4.9,0,8.9,4,8.9,8.9v65.3
				C121.3,292.6,117.3,296.6,112.4,296.6z"/>
		</g>
		<g>
			<path class="st6" d="M163.6,278.1c-0.1,0.3-0.3,0.6-0.5,0.8l25.8,12.8l0.4-0.9L163.6,278.1z"/>
			<path class="st6" d="M128.4,260.6l-6.6-3.3l-0.4,0.9l6.7,3.3C128.1,261.2,128.2,260.9,128.4,260.6z"/>
			<path class="st6" d="M149.6,271.1l-17.2-8.5c-0.1,0.3-0.2,0.6-0.4,0.9l17.6,8.7C149.5,271.9,149.5,271.5,149.6,271.1z"/>
			<path class="st6" d="M153.6,273.1c-0.2,0.3-0.5,0.5-0.8,0.7l6.5,3.2c0-0.3,0.1-0.7,0.3-1L153.6,273.1z"/>
		</g>
	</g>
</g>
<g id="Device_2">
	<g>
		<g>
			<defs>
				<path id="SVGID_3_" d="M181,200.6H84.2c-4.9,0-8.9-4-8.9-8.9V94.9c0-4.9,4-8.9,8.9-8.9H181c4.9,0,8.9,4,8.9,8.9v96.7
					C189.9,196.6,185.9,200.6,181,200.6z"/>
			</defs>
			<clipPath id="SVGID_4_">
				<use xlink:href="#SVGID_3_"  style="overflow:visible;"/>
			</clipPath>
			<g class="st18">
				<g>
					<g>
						<g id="Group_1_">
							<polygon class="st6" points="213.2,194.7 213.2,291.7 210.7,291.7 207.5,194.7 							"/>
							<g>
								<polygon class="st6" points="183.4,197.8 183.4,287.7 180.9,287.7 177.7,197.8 								"/>
								<polygon class="st19" points="183.4,197.8 183.4,287.7 180.9,287.7 177.7,197.8 								"/>
							</g>
							<g>
								<rect x="30.9" y="191.8" class="st6" width="196.4" height="4.1"/>
								<polygon class="st6" points="85.6,194.7 85.6,291.7 83.1,291.7 80,194.7 								"/>
								<g>
									<polygon class="st6" points="55.9,197.8 55.9,287.7 53.4,287.7 50.2,197.8 									"/>
									<polygon class="st19" points="55.9,197.8 55.9,287.7 53.4,287.7 50.2,197.8 									"/>
								</g>
								<g>
									<polygon class="st6" points="215,200.2 44.2,200.2 37.6,195.8 221.5,195.8 									"/>
									<polygon class="st19" points="215,200.2 44.2,200.2 37.6,195.8 221.5,195.8 									"/>
								</g>
								<polygon class="st6" points="190.9,200.2 80,200.2 75.6,195.8 190.9,195.8 								"/>
								<rect x="30.9" y="191.8" class="st19" width="36.8" height="4.1"/>
							</g>
						</g>
					</g>
					<g>
						<g>
							<path class="st6" d="M155.9,178.3H82.2c-2,0-3.7-1.6-3.8-3.7L76,128.4c-0.1-2,1.4-3.7,3.5-3.7h73.7c2,0,3.7,1.6,3.8,3.7
								l2.4,46.2C159.5,176.7,157.9,178.3,155.9,178.3z"/>
							<path class="st20" d="M155.9,178.3H82.2c-2,0-3.7-1.6-3.8-3.7L76,128.4c-0.1-2,1.4-3.7,3.5-3.7h73.7c2,0,3.7,1.6,3.8,3.7
								l2.4,46.2C159.5,176.7,157.9,178.3,155.9,178.3z"/>
						</g>
						<g>
							<polygon class="st6" points="125,191.8 114.5,191.8 116.6,174.3 125,174.3 							"/>
							<polygon class="st20" points="125,191.8 114.5,191.8 116.6,174.3 125,174.3 							"/>
							<path class="st6" d="M134.1,190.3h-19.4l-0.2,1.5h19.6c0.4,0,0.7-0.3,0.7-0.7S134.5,190.3,134.1,190.3z"/>
							<path class="st11" d="M134.1,190.3h-19.4l-0.2,1.5h19.6c0.4,0,0.7-0.3,0.7-0.7S134.5,190.3,134.1,190.3z"/>
							<polygon class="st21" points="115.6,182.6 125,182.6 125,177.6 116.2,177.6 							"/>
						</g>
						<g>
							<path class="st6" d="M156.6,178.3H82.9c-2,0-3.7-1.6-3.8-3.7l-2.4-46.2c-0.1-2,1.4-3.7,3.5-3.7h73.7c2,0,3.7,1.6,3.8,3.7
								l2.4,46.2C160.1,176.7,158.6,178.3,156.6,178.3z"/>
						</g>
						<path class="st6" d="M82.8,176.4h73.7c1,0,1.7-0.8,1.7-1.8l-2.4-46.2c-0.1-1-0.9-1.8-1.9-1.8H80.1c-1,0-1.7,0.8-1.7,1.8
							l2.4,46.2C80.9,175.6,81.8,176.4,82.8,176.4z"/>
						<path class="st13" d="M82.8,176.4h73.7c1,0,1.7-0.8,1.7-1.8l-2.4-46.2c-0.1-1-0.9-1.8-1.9-1.8H80.1c-1,0-1.7,0.8-1.7,1.8
							l2.4,46.2C80.9,175.6,81.8,176.4,82.8,176.4z"/>
					</g>
					<g>
						<g>
							<g>
								<g>
									<polygon class="st6" points="152.1,185.6 107.8,185.6 115.8,191.8 160.1,191.8 									"/>
									<polygon class="st20" points="152.1,185.6 107.8,185.6 115.8,191.8 160.1,191.8 									"/>
								</g>
							</g>
							<g>
								<polygon class="st6" points="108.8,191.8 107.8,185.6 115.8,191.8 								"/>
								<polygon class="st19" points="108.8,191.8 107.8,185.6 115.8,191.8 								"/>
							</g>
						</g>
					</g>
					<g>
						<g>
							<g>
								<g>
									<g>
										<polygon class="st22" points="143.4,287.4 137.6,285.7 138.9,271.5 144.7,273.3 										"/>
										<polygon class="st23" points="145.2,270.1 139.4,268.3 138.7,276.3 144.5,277.4 										"/>
									</g>
									<path class="st6" d="M177.6,199.9c0,0-39.8,3.4-38.8,20.6c0.8,13.8,3.6,3.5-1.2,52.3l10,0.6c0,0,10.2-34.4,8.8-48
										c11.2,0,36.9,1,40.6-9.1c1.9-5.1,2.8-10.6,2.7-16L177.6,199.9z"/>
								</g>
								<polygon class="st24" points="149.2,275.3 136.1,273.1 136.3,267.3 149.9,270.3 								"/>
							</g>
							<g>
								<path class="st24" d="M137,283.3l6.7,1.3c0.2,0,0.4,0.3,0.4,0.6l-0.6,6.3c-0.1,0.7-0.6,1.1-1.2,1c-2.3-0.5-3.4-0.9-6.3-1.5
									c-1.8-0.4-5.9-1.2-8.5-1.5c-2.5-0.3-2.2-3.2-1.1-3.4c4.9-0.6,7.7-1.4,9.6-2.7C136.2,283.3,136.6,283.3,137,283.3z"/>
								<g>
									<path class="st6" d="M134,284.5c0.5,0.1,1.1,0.1,1.6,0c0.1,0,0.1,0,0.1-0.1c0,0,0-0.1,0-0.2c-0.2-0.2-1.7-1.6-2.4-1.4
										c-0.2,0-0.3,0.2-0.4,0.3c-0.1,0.3-0.1,0.6,0,0.8C133.2,284.3,133.6,284.4,134,284.5z M135.3,284.3c-1.1,0-1.9-0.1-2.1-0.5
										c-0.1-0.2-0.1-0.4,0-0.5c0-0.1,0.1-0.2,0.2-0.2C133.7,283,134.7,283.7,135.3,284.3z"/>
									<path class="st6" d="M135.6,284.5C135.6,284.5,135.6,284.5,135.6,284.5c0.1,0,0.1-0.1,0.2-0.1c0-0.1,0.4-1.8-0.1-2.4
										c-0.1-0.2-0.3-0.3-0.6-0.3c-0.2,0-0.5,0.1-0.6,0.3C134.3,282.6,135,284,135.6,284.5C135.5,284.5,135.6,284.5,135.6,284.5z
										 M135.2,282c0.1,0,0.2,0.1,0.3,0.2c0.2,0.6,0.3,1.3,0.1,2c-0.5-0.5-0.7-1.2-0.7-2C134.8,282,134.9,282,135.2,282L135.2,282
										z"/>
								</g>
							</g>
							<g>
								<g>
									<polygon class="st22" points="117.6,289.6 112.1,287.2 115.9,273.6 121.4,276.1 									"/>
									<polygon class="st23" points="122.3,272.6 116.8,270.1 114.9,277.1 120.4,279.6 									"/>
								</g>
								<g>
									<path class="st6" d="M165.8,199.9c-0.3,0-44.6,4.6-44.6,19.6c-0.1,24.9-7.2,53.4-7.2,53.4l8.8,4.3c0,0,15.3-30.9,15-50.3
										c12.2-3.5,43.7,2.4,47.5-7.7c3.1-8.3,1.4-19.3,1.4-19.3H165.8z"/>
									<polygon class="st24" points="124.1,278.4 112.4,273.1 113.3,268.3 125.7,272.6 									"/>
								</g>
							</g>
							<g>
								<path class="st24" d="M112.6,282.6l6.7,1.4c0.2,0,0.4,0.3,0.4,0.6l-0.5,6.9c-0.1,0.8-0.6,1.3-1.2,1.2c0,0,0,0,0,0
									c-2.3-0.5-3.4-0.9-6.3-1.6c-1.8-0.4-6.7-1.6-9.2-2.2c-2.5-0.6-1.9-3.8-0.8-3.8c4.9-0.1,8.1-0.9,10-2.2
									C111.9,282.6,112.3,282.5,112.6,282.6z"/>
								<g>
									<path class="st6" d="M109.9,284.1c0.5-0.3,0.9-0.6,1.3-0.9c0,0,0.1-0.1,0-0.2c0-0.1-0.1-0.1-0.1-0.1
										c-0.2,0-2.3-0.3-2.8,0.3c-0.1,0.1-0.2,0.3-0.1,0.5c0,0.3,0.2,0.5,0.5,0.6C109.1,284.4,109.5,284.3,109.9,284.1z
										 M110.8,283.2c-0.9,0.7-1.6,1-2,0.9c-0.2-0.1-0.3-0.2-0.3-0.4c0-0.1,0-0.2,0-0.2C108.8,283.1,110,283.1,110.8,283.2z"/>
									<path class="st6" d="M111.2,283.2L111.2,283.2c0.1-0.1,0.1-0.1,0.1-0.2c0-0.1-0.7-1.7-1.5-1.9c-0.2-0.1-0.4,0-0.6,0.1
										c-0.2,0.1-0.3,0.4-0.3,0.6C109.1,282.5,110.4,283.2,111.2,283.2C111.1,283.2,111.2,283.2,111.2,283.2z M109.3,281.4
										c0.1-0.1,0.2-0.1,0.3,0c0.6,0.4,1,0.9,1.2,1.5c-0.7-0.1-1.3-0.6-1.8-1.2C109.1,281.7,109.1,281.5,109.3,281.4L109.3,281.4z
										"/>
								</g>
							</g>
							<g>
								<path class="st22" d="M180.8,151.9c1.2,2.5,2.1,4.9,3.1,7.4c1,2.5,1.8,5,2.6,7.6c0.8,2.6,1.5,5.2,2,7.9
									c0.6,2.8,0.9,5.7,0.9,8.6c0,1.7-0.3,3.4-0.8,5c-0.3,1-0.8,1.9-1.3,2.8c-0.3,0.5-0.7,1-1.1,1.4l-0.3,0.3
									c-0.2,0.2-0.4,0.3-0.6,0.5c-0.3,0.2-0.7,0.4-1.1,0.6c-0.5,0.2-1.1,0.4-1.7,0.5c-0.5,0.1-0.9,0.2-1.4,0.2
									c-0.8,0.1-1.6,0.1-2.4,0c-1.4-0.1-2.9-0.2-4.3-0.5c-5.3-1-10.4-2.4-15.4-4.4l1.2-4.4c5,0.6,10.2,1.2,15,1.5
									c1.2,0,2.4,0.1,3.5,0c0.5,0,1-0.1,1.5-0.2c0.4-0.1,0.7-0.2,0.6-0.2c-0.1,0-0.2,0.1-0.2,0.1c-0.1,0-0.2,0.1-0.2,0.2l0,0
									c0,0,0-0.1,0.1-0.1c0.1-0.2,0.2-0.5,0.2-0.7c0.2-0.9,0.2-1.8,0.2-2.6c-0.1-2.3-0.5-4.5-1-6.7c-0.5-2.4-1.2-4.7-2-7.1
									c-0.8-2.4-1.6-4.7-2.5-7.1c-0.9-2.3-1.9-4.7-2.8-6.9L180.8,151.9z"/>
								<path class="st22" d="M162.3,186.8l-5.3-3l-2.6,5.7c0,0,6.1,2.6,7.4,1L162.3,186.8z"/>
								<polygon class="st22" points="152.8,184.9 150.4,188.7 154.4,189.5 157.1,183.8 								"/>
							</g>
							<g>
								<path class="st22" d="M168.5,156.5c-1,2.5-2.1,4.9-3.2,7.4c-1.1,2.5-2.2,4.9-3.4,7.3c-2.4,4.9-5,9.7-7.9,14.3
									c-0.8,1.2-1.6,2.3-2.5,3.5c-0.4,0.6-0.9,1.2-1.5,1.8c-0.3,0.3-0.5,0.6-0.8,0.9l-0.5,0.5l-0.3,0.3c-0.8,0.6-1.6,1.1-2.6,1.4
									c-0.5,0.1-1,0.3-1.5,0.3c-0.8,0.1-1.7,0.1-2.6,0.1c-1.5,0-2.9-0.2-4.4-0.4c-5.4-0.9-10.6-2.4-15.7-4.5l1.2-4.4
									c5.1,0.6,10.4,1.3,15.3,1.5c1.2,0,2.3,0,3.5,0c0.5,0,0.9-0.1,1.4-0.2c0.1,0,0.3-0.1,0.4-0.2c0,0,0-0.1-0.2,0.1
									c-0.1,0-0.1,0.1-0.2,0.2c0,0,0.1-0.1,0.1-0.1l0.2-0.2c0.1-0.1,0.3-0.4,0.5-0.6c0.3-0.4,0.7-0.9,1-1.3c0.7-0.9,1.3-2,1.9-3.1
									c1.3-2.1,2.5-4.4,3.6-6.7c1.2-2.3,2.3-4.6,3.4-7c2.2-4.7,4.3-9.5,6.3-14.2L168.5,156.5z"/>
								<g>
									<path class="st22" d="M125.1,186l-5.3-3l-2.6,5.7c0,0,6.1,2.6,7.4,1L125.1,186z"/>
									<polygon class="st22" points="115.6,184.1 113.2,187.9 117.2,188.7 119.9,183 									"/>
								</g>
							</g>
							<g>
								<path class="st22" d="M182.2,128.3l-3.4,3.9l-5.1,5.3c0.1,0.3,0.2,0.6,0.4,1c0.4,1,0.6,2,0.7,3.1c0.1,2.1-0.1,3.9-3.4,5.4
									c0,0-3.5,4.6,4.9,3.3c8.4-1.3,9.6-5.6,9.6-5.6C182.1,142,181.9,133.2,182.2,128.3z"/>
								<g>
									<path class="st24" d="M165.1,123.9c0,0.5-0.3,1-0.6,1c-0.3,0-0.6-0.4-0.6-0.9c0-0.5,0.3-1,0.6-1
										C164.8,123,165.1,123.4,165.1,123.9z"/>
									<path class="st24" d="M166.8,122c-0.1,0-0.2-0.1-0.3-0.1c-0.4-0.7-1.1-1.1-1.9-1.2c-0.2,0-0.3-0.1-0.3-0.3
										c0-0.2,0.1-0.3,0.3-0.3c0,0,0,0,0,0l0,0c1,0.1,1.9,0.6,2.4,1.5c0.1,0.1,0,0.3-0.1,0.4C167,122,166.9,122,166.8,122z"/>
									<path class="st25" d="M164.9,124.2c-0.4,1.4-1,2.8-1.8,4.1c0.7,0.4,1.5,0.4,2.2,0.2L164.9,124.2z"/>
									<path class="st22" d="M182.6,121.3c-0.3,6.5-0.2,10.3-3.4,13.7c-3.1,3.4-8.5,3.7-11.9,0.6c-1.3-1.1-2.2-2.7-2.5-4.3
										c-1.5-5.7-0.7-15.4,5.6-18.2c4.2-2.1,9.3-0.4,11.4,3.9C182.5,118.3,182.8,119.8,182.6,121.3z"/>
								</g>
							</g>
							<g>
								<g>
									<path class="st24" d="M185.6,123.4c-0.9,2.7-2.4,5.3-4.2,7.5l-8.4,1.6c0,0-6.7-2.8-4.9-7.4c-1.1-1-0.7-3.9,0.1-5.5
										c1.3,1,3.4,1.1,4.5-0.1c0.9,1.7,3.7,1.9,4.9,0.4c1.4,1.5,4.3,1.1,5.1-0.8c1,0.7,2.5,0.6,3.4-0.2c0,0,0.1-0.1,0.1-0.1
										C186.3,120,186.2,121.5,185.6,123.4z"/>
									<path class="st26" d="M185.6,123.4c-0.9,2.7-2.4,5.3-4.2,7.5l-8.4,1.6c0,0-6.7-2.8-4.9-7.4c-1.1-1-0.7-3.9,0.1-5.5
										c1.3,1,3.4,1.1,4.5-0.1c0.9,1.7,3.7,1.9,4.9,0.4c1.4,1.5,4.3,1.1,5.1-0.8c1,0.7,2.5,0.6,3.4-0.2c0,0,0.1-0.1,0.1-0.1
										C186.3,120,186.2,121.5,185.6,123.4z"/>
								</g>
								<path class="st24" d="M186.8,115.6c0.5,1.1,0.2,2.4-0.6,3.2c0,0-0.1,0.1-0.1,0.1c-0.9,0.8-2.4,0.9-3.4,0.2
									c-0.8,1.9-3.8,2.3-5.1,0.8c-1.2,1.5-4,1.3-4.9-0.4c-1.1,1.2-3.2,1.1-4.5,0.1c-0.3-0.3-0.6-0.6-0.8-1c0-0.1-0.1-0.2-0.1-0.3
									c-0.1,0.1-0.1,0.2-0.2,0.2c-0.8,0.6-2,0.7-2.8,0.2c-0.7-0.5-1.1-1.3-1-2.1c0-0.2,0-0.3,0.1-0.5c-0.1,0.1-0.1,0.2-0.2,0.3
									c-0.7,0.7-2.1,0.8-2.8-0.1c-0.8-1-0.4-2.8,0.8-3.5c0.5-0.3,1-0.4,1.5-0.4c0.8,0,1.6,0.3,2.3,0.8c-0.7-1-0.4-2.5,0.5-3.2
									c1-0.7,2.5-0.5,3.2,0.4c-0.1-1.1,0.3-1.8,0.8-2.1c1.1-0.6,2.9-0.1,3.8,1c0,0,1.2-3,3.3-2.6c0.5,0.1,2.6,1,2.6,1.8
									c0,0.1,0,0.1,0,0.2c0-0.1,0.1-0.1,0.1-0.2c0.4-0.7,1.2-1,2-1c0.8,0,1.7,0.3,2.4,0.7c1.6,0.7,3.4,1.4,4.3,2.9
									C188.9,112.7,188.5,115.1,186.8,115.6z"/>
								<path class="st22" d="M171.8,125.8c-0.2,1.6-1,3.1-2.1,4.2c-1.4,1.4-2.7,0-2.7-2.1c0-1.9,0.7-4.9,2.4-5.4
									C171.1,122,172.1,123.7,171.8,125.8z"/>
							</g>
							<g>
								<path class="st6" d="M197.2,146.9c-0.6-1.6-3.4-3.2-5.1-3.2H191c-2,0-4.4,0.2-6.8,0.4c-4.5,0.5-9,1.3-13.5,2.3
									c-2,0.5-4,1.2-5.6,1.8c-2,0.8-3.2,1.3-3.2,1.3s2.2,14.6,3.3,29.1c0.6,8.1,0.4,16.1,0.6,21.6h33.8c1.2-6.6,1-12.4,1.1-24.3
									C200.8,168.7,199.6,153.4,197.2,146.9z"/>
								<path class="st23" d="M164.5,170.5c0.3,3,0.5,6.2,0.8,9.4c4-5.8,6.2-21.6,6.2-21.6L164.5,170.5z"/>
							</g>
							<path class="st6" d="M160,150.6c-4.8,2.7-9.6,16.7-9.6,16.7l11.1,8.4c4.2-4,10.4-13.9,11.1-17.9
								C173.7,151.7,167.8,146.3,160,150.6z"/>
						</g>
						<g>
							<g>
								<path class="st24" d="M150.4,292.7c0,1.9-1.5,3.5-3.5,3.5c-1.9,0-3.5-1.5-3.5-3.5c0-1.9,1.5-3.5,3.5-3.5
									C148.9,289.3,150.4,290.8,150.4,292.7L150.4,292.7z"/>
								<path class="st24" d="M201.9,292.7c0,1.9,1.5,3.5,3.5,3.5c1.9,0,3.5-1.5,3.5-3.5c0-1.9-1.5-3.5-3.5-3.5
									C203.4,289.3,201.9,290.8,201.9,292.7L201.9,292.7z"/>
								<path class="st24" d="M172.8,291.6c0,1.9,1.5,3.5,3.5,3.5s3.5-1.5,3.5-3.5c0-1.9-1.5-3.5-3.5-3.5S172.8,289.7,172.8,291.6
									L172.8,291.6z"/>
							</g>
							<g>
								<path class="st24" d="M175.2,287.4v-6.7h-9.9c-1.9,0-3.9,0.2-5.8,0.5l-18.4,3.6c-0.9,0.2-1.5,1.1-1.3,2
									c0.2,0.8,0.9,1.4,1.7,1.4L175.2,287.4z"/>
								<path class="st24" d="M175.2,287.4v-6.7h9.9c1.9,0,3.9,0.2,5.8,0.5l20.7,3.3c0.9,0.2,1.5,1.1,1.3,2
									c-0.2,0.8-0.9,1.4-1.7,1.4L175.2,287.4z"/>
							</g>
							<g>
								<rect x="169.1" y="250.2" class="st24" width="12.2" height="30.5"/>
								<rect x="170.8" y="236" class="st24" width="8.7" height="14.2"/>
								<polygon class="st3" points="170.8,240.1 179.5,242.3 179.5,236 170.8,236 								"/>
							</g>
							<g>
								<g>
									<path class="st6" d="M169.2,236v-82.2c0-3.1,1.3-6.1,3.7-8.1l5.9-5.1c2-1.7,4.5-2.7,7.1-2.7H207l10.3,11V236H169.2z"/>
									<path class="st6" d="M137.7,220H186V236h-56.2c-3.2,0-5.7-2.6-5.7-5.7c0-1,0.3-2,0.8-2.9l0,0
										C127.6,222.8,132.4,220,137.7,220z"/>
									<path class="st11" d="M217.4,148.8V236h-87.6c-3.1,0-5.7-2.6-5.7-5.7c0-1,0.3-2,0.8-2.9c2.7-4.5,7.5-7.3,12.8-7.3H162
										c4,0,7.2-3.2,7.2-7.2v-59.1c0-3.1,1.3-6.1,3.7-8.1l5.9-5.1c2-1.7,4.5-2.7,7.1-2.7H207L217.4,148.8z"/>
									<g>
										<path class="st6" d="M176.2,236v-82.2c0-3.1,1.3-6.1,3.7-8.1l5.9-5.1c2-1.7,4.5-2.7,7.1-2.7h16.5c3,0,5.8,1.2,7.9,3.4
											l4.2,4.5c1.9,2,2.9,4.6,2.9,7.4v74.6c0,4.5-3.7,8.2-8.2,8.2H176.2z"/>
										<path class="st27" d="M176.2,236v-82.2c0-3.1,1.3-6.1,3.7-8.1l5.9-5.1c2-1.7,4.5-2.7,7.1-2.7h16.5c3,0,5.8,1.2,7.9,3.4
											l4.2,4.5c1.9,2,2.9,4.6,2.9,7.4v74.6c0,4.5-3.7,8.2-8.2,8.2H176.2z"/>
									</g>
								</g>
							</g>
						</g>
					</g>
				</g>
				<g>
					<g>
						<polygon class="st6" points="136.1,172.2 94.7,172.2 92.9,146.3 134.2,146.3 						"/>
						<polygon class="st19" points="136.1,172.2 94.7,172.2 92.9,146.3 134.2,146.3 						"/>
						<polygon class="st6" points="134.4,148 93,148 92.9,146.3 134.2,146.3 						"/>
					</g>
					<g>
						<polygon class="st6" points="151.9,158.1 110.5,158.1 108.7,132.1 150,132.1 						"/>
						<polygon class="st28" points="151.9,158.1 110.5,158.1 108.7,132.1 150,132.1 						"/>
					</g>
					<polygon class="st6" points="150.2,133.8 108.8,133.8 108.7,132.1 150,132.1 					"/>
				</g>
			</g>
		</g>
		<g>
			<path class="st6" d="M138.6,206.7l-5.7-6.2l-0.7,0.7l6,6.6C138.3,207.3,138.4,207,138.6,206.7z"/>
			<path class="st6" d="M147.9,216.8c-0.1,0.3-0.3,0.6-0.6,0.9l12.2,13.3c0.2-0.2,0.5-0.4,0.9-0.5L147.9,216.8z"/>
			<path class="st6" d="M145.1,213.8l-3.3-3.7c-0.3,0.2-0.6,0.3-1,0.4l3.5,3.8C144.4,214,144.7,213.9,145.1,213.8z"/>
			<path class="st6" d="M180.4,252.6l-17.2-18.9c-0.1,0.3-0.3,0.6-0.6,0.9l17.3,19C180,253.2,180.2,252.8,180.4,252.6z"/>
			<path class="st6" d="M183.5,256c-0.3,0.2-0.6,0.4-1,0.4l16.6,18.3l0.7-0.7L183.5,256z"/>
		</g>
		<path class="st17" d="M181,200.6H84.2c-4.9,0-8.9-4-8.9-8.9V94.9c0-4.9,4-8.9,8.9-8.9H181c4.9,0,8.9,4,8.9,8.9v96.7
			C189.9,196.6,185.9,200.6,181,200.6z"/>
	</g>
</g>
<g id="Device_3">
	<g>
		<g>
			<defs>
				<path id="SVGID_5_" d="M281.2,139.3H216c-4.9,0-8.9-4-8.9-8.9V65.1c0-4.9,4-8.9,8.9-8.9h65.3c4.9,0,8.9,4,8.9,8.9v65.3
					C290.2,135.3,286.2,139.3,281.2,139.3z"/>
			</defs>
			<clipPath id="SVGID_6_">
				<use xlink:href="#SVGID_5_"  style="overflow:visible;"/>
			</clipPath>
			<g class="st29">
				<g>
					<path class="st30" d="M237,91.3l-6.1,3.2c0,0-0.6,23,0,26.2c0.6,3.2,3.7,4.2,3.7,4.2l6.2-4.8L237,91.3z"/>
					<path class="st30" d="M230.9,94.5c0,0-7.5,12.8-12.9,30.4c-3.1,10.2,15.1,10.9,18.4,7.3c0.8-0.9,7-10.2,7-10.2L230.9,94.5z"/>
					<g>
						<g id="_x3C_Group_x3E__3_">
							<g>
								<g>
									<path class="st6" d="M256.4,125.2h-20.7c-2,0-3.4-1.6-3.3-3.6l3.9-45.1c0.2-2,1.9-3.6,3.9-3.6H261c2,0,3.4,1.6,3.3,3.6
										l-3.9,45.1C260.1,123.6,258.4,125.2,256.4,125.2z"/>
									<path class="st21" d="M256.4,125.2h-20.7c-2,0-3.4-1.6-3.3-3.6l3.9-45.1c0.2-2,1.9-3.6,3.9-3.6H261c2,0,3.4,1.6,3.3,3.6
										l-3.9,45.1C260.1,123.6,258.4,125.2,256.4,125.2z"/>
								</g>
								<g class="st31">
									<path class="st2" d="M246.2,123.7c-0.5,0-0.9-0.2-1.2-0.5c-0.3-0.3-0.5-0.8-0.4-1.3c0.1-1,1-1.8,2-1.8
										c0.5,0,0.9,0.2,1.2,0.5c0.3,0.3,0.5,0.8,0.4,1.3l0,0C248,122.9,247.1,123.7,246.2,123.7z M246.4,120.3
										c-0.9,0-1.6,0.7-1.7,1.6c0,0.4,0.1,0.8,0.4,1.1c0.3,0.3,0.6,0.5,1.1,0.5c0.9,0,1.6-0.7,1.7-1.6l0,0c0-0.4-0.1-0.8-0.4-1.1
										C247.2,120.5,246.9,120.3,246.4,120.3z"/>
								</g>
								<g class="st31">
									<path class="st2" d="M253.7,77.1h-6.7c-0.2,0-0.4-0.1-0.5-0.2c-0.1-0.1-0.2-0.3-0.2-0.5l0-0.2c0-0.4,0.4-0.7,0.8-0.7h6.7
										c0.2,0,0.4,0.1,0.5,0.2c0.1,0.1,0.2,0.3,0.2,0.5l0,0.2C254.4,76.8,254.1,77.1,253.7,77.1z M247.1,75.7
										c-0.3,0-0.5,0.2-0.6,0.5l0,0.2c0,0.1,0,0.3,0.1,0.4c0.1,0.1,0.2,0.1,0.3,0.1h6.7c0.3,0,0.5-0.2,0.6-0.5l0-0.2
										c0-0.1,0-0.3-0.1-0.4c-0.1-0.1-0.2-0.1-0.3-0.1H247.1z"/>
								</g>
								<g>
									<polygon class="st32" points="252.3,73.1 240.8,125.2 247.7,125.2 259.2,73.1 									"/>
									<polygon class="st32" points="246.9,73.1 235.3,125.2 238.8,125.2 250.3,73.1 									"/>
									<g>
										<polygon class="st6" points="258.6,117.9 234.7,117.9 238.1,79.4 262,79.4 										"/>
										<polygon class="st27" points="258.6,117.9 234.7,117.9 238.1,79.4 262,79.4 										"/>
									</g>
								</g>
							</g>
						</g>
						<g>
							<g>
								<path class="st6" d="M258.7,93.7c0,0.1,0,0.1,0,0.2c-0.1,0.4-0.3,0.7-0.6,1c-0.3,0.3-0.8,0.5-1.2,0.5h-17
									c-0.9,0-1.5-0.7-1.5-1.5c0-0.1,0-0.1,0-0.2c0-0.5,0.3-0.9,0.6-1.2c0.3-0.3,0.8-0.5,1.2-0.5h17
									C258.1,92.1,258.8,92.8,258.7,93.7z"/>
								<path class="st28" d="M258.7,93.7c0,0.1,0,0.1,0,0.2c-0.1,0.4-0.3,0.7-0.6,1c-0.3,0.3-0.8,0.5-1.2,0.5h-17
									c-0.9,0-1.5-0.7-1.5-1.5c0-0.1,0-0.1,0-0.2c0-0.5,0.3-0.9,0.6-1.2c0.3-0.3,0.8-0.5,1.2-0.5h17
									C258.1,92.1,258.8,92.8,258.7,93.7z"/>
							</g>
							<g>
								<path class="st6" d="M238.5,93.9c0,0.1,0,0.1,0,0.2c0.1-0.4,0.3-0.8,0.6-1.1c0.3-0.3,0.8-0.5,1.2-0.5l18,0
									c-0.3-0.3-0.6-0.4-1.1-0.4h-17c-0.5,0-0.9,0.2-1.2,0.5c-0.3,0.3-0.6,0.7-0.6,1.2C238.5,93.8,238.4,93.8,238.5,93.9z"/>
								<path class="st33" d="M238.5,93.9c0,0.1,0,0.1,0,0.2c0.1-0.4,0.3-0.8,0.6-1.1c0.3-0.3,0.8-0.5,1.2-0.5l18,0
									c-0.3-0.3-0.6-0.4-1.1-0.4h-17c-0.5,0-0.9,0.2-1.2,0.5c-0.3,0.3-0.6,0.7-0.6,1.2C238.5,93.8,238.4,93.8,238.5,93.9z"/>
							</g>
							<g>
								<g>
									<path class="st24" d="M241.8,92.9l-0.1,0.8l0.8-0.3l0.1,0.4l-0.8,0.3l0.4,0.7l-0.4,0.3l-0.4-0.7l-0.5,0.7l-0.3-0.3l0.6-0.7
										l-0.8-0.3l0.2-0.4l0.8,0.3l0.1-0.8H241.8z"/>
									<path class="st24" d="M246.4,92.9l-0.1,0.8l0.8-0.3l0.1,0.4l-0.8,0.3l0.4,0.7l-0.4,0.3l-0.4-0.7l-0.5,0.7l-0.3-0.3l0.6-0.7
										l-0.8-0.3l0.2-0.4l0.8,0.3l0.1-0.8H246.4z"/>
									<path class="st24" d="M251.1,92.9l-0.1,0.8l0.8-0.3l0.1,0.4l-0.8,0.3l0.4,0.7l-0.4,0.3l-0.4-0.7l-0.5,0.7l-0.3-0.3l0.6-0.7
										l-0.8-0.3l0.2-0.4l0.8,0.3l0.1-0.8H251.1z"/>
									<path class="st24" d="M255.7,92.9l-0.1,0.8l0.8-0.3l0.1,0.4l-0.8,0.3l0.4,0.7l-0.4,0.3l-0.4-0.7l-0.5,0.7l-0.3-0.3l0.6-0.7
										l-0.8-0.3l0.2-0.4l0.8,0.3l0.1-0.8H255.7z"/>
								</g>
							</g>
							<g>
								<g>
									<rect x="244" y="91.3" class="st6" width="0.8" height="0.2"/>
								</g>
								<g>
									<rect x="240.6" y="91.3" class="st6" width="2.6" height="0.2"/>
								</g>
							</g>
						</g>
						<g>
							<path class="st6" d="M265.6,76.5l-3.9,45.1c-0.2,2-1.9,3.6-3.9,3.6h-1.3c2,0,3.7-1.6,3.9-3.6l3.9-45.1c0.2-2-1.3-3.6-3.2-3.6
								h1.3C264.3,73,265.8,74.6,265.6,76.5z"/>
							<path class="st34" d="M265.6,76.5l-3.9,45.1c-0.2,2-1.9,3.6-3.9,3.6h-1.3c2,0,3.7-1.6,3.9-3.6l3.9-45.1
								c0.2-2-1.3-3.6-3.2-3.6h1.3C264.3,73,265.8,74.6,265.6,76.5z"/>
						</g>
						<g>
							
								<rect x="263.8" y="85.1" transform="matrix(7.217666e-02 -0.9974 0.9974 7.217666e-02 160.5192 343.1176)" class="st6" width="1.7" height="0.4"/>
							
								<rect x="262.5" y="80.2" transform="matrix(7.219869e-02 -0.9974 0.9974 7.219869e-02 165.7611 338.896)" class="st6" width="5.1" height="0.4"/>
						</g>
					</g>
					<g>
						<path class="st6" d="M251.9,110.4h-10.2c-1.2,0-2.2-1-2.1-2.3l0,0c0.1-1.2,1.2-2.3,2.5-2.3h10.2c1.2,0,2.2,1,2.1,2.3l0,0
							C254.2,109.4,253.1,110.4,251.9,110.4z"/>
						<path class="st13" d="M251.9,110.4h-10.2c-1.2,0-2.2-1-2.1-2.3l0,0c0.1-1.2,1.2-2.3,2.5-2.3h10.2c1.2,0,2.2,1,2.1,2.3l0,0
							C254.2,109.4,253.1,110.4,251.9,110.4z"/>
					</g>
					<g>
						<path class="st30" d="M230.9,106.5l9.3-1.5l1.3,0.1c1.4,0.1,2.2,1.5,1.8,2.8c-0.4,1.2-0.8,2.4-1,2.4c-0.3,0-9.6,7.5-9.6,7.5
							s-2,1.8-1.9-0.5V106.5z"/>
					</g>
				</g>
				<polygon class="st30" points="218,124.8 233.4,133.6 226.1,158.4 201.2,158.4 				"/>
			</g>
			<use xlink:href="#SVGID_5_"  style="overflow:visible;fill:none;stroke:#407BFF;stroke-miterlimit:10;"/>
		</g>
		<g>
			<path class="st17" d="M281.2,139.3H216c-4.9,0-8.9-4-8.9-8.9V65.1c0-4.9,4-8.9,8.9-8.9h65.3c4.9,0,8.9,4,8.9,8.9v65.3
				C290.2,135.3,286.2,139.3,281.2,139.3z"/>
		</g>
		<g>
			<path class="st6" d="M258.7,152.9c0.3,0,0.6,0.1,0.8,0.1l1.2-13.6l-1-0.1l-1.2,13.6C258.6,153,258.7,152.9,258.7,152.9z"/>
			<path class="st6" d="M258.8,161.7l0.4-4.2c-0.1,0-0.3,0-0.4,0c-0.2,0-0.4,0-0.6-0.1l-0.3,4C258.2,161.5,258.5,161.6,258.8,161.7z
				"/>
			<path class="st6" d="M256.4,188.7l2-22.6c-0.2,0.1-0.4,0.1-0.6,0.1c-0.1,0-0.3,0-0.4,0l-1.9,22
				C255.9,188.3,256.2,188.4,256.4,188.7z"/>
			<path class="st6" d="M254,206.2c0.3,0,0.6,0.1,0.9,0.2l1.2-13.9c-0.3,0.2-0.6,0.3-1,0.3L254,206.2
				C253.9,206.2,253.9,206.2,254,206.2z"/>
			<path class="st6" d="M254,210.8c-0.2,0-0.3,0-0.5,0l-4.7,53.9l1,0.1l4.7-54C254.3,210.8,254.2,210.8,254,210.8z"/>
		</g>
	</g>
</g>
<g id="Device_4">
	<g>
		<g>
			<g>
				<defs>
					<path id="SVGID_7_" d="M412.7,215.8h-96.7c-4.9,0-8.9-4-8.9-8.9v-96.7c0-4.9,4-8.9,8.9-8.9h96.7c4.9,0,8.9,4,8.9,8.9v96.7
						C421.6,211.8,417.6,215.8,412.7,215.8z"/>
				</defs>
				<clipPath id="SVGID_8_">
					<use xlink:href="#SVGID_7_"  style="overflow:visible;"/>
				</clipPath>
				<g class="st35">
					<g>
						<g>
							<g>
								<path class="st36" d="M310.5,125.2c0,0,0.7,5.7,10.9,8.8c10.2,3.2,6.7-3.2,6.7-3.2c-4.7-3-4.7-6.4-3.1-9.8
									c0.4-0.9,0.8-1.7,1.3-2.5l-4.7-7.5l-3.5-5.5C317.6,111.7,315.6,122.6,310.5,125.2z"/>
								<path class="st24" d="M341.2,102.3c0.4,0.1,0.7,0.7,0.6,1.3c-0.1,0.7-0.5,1.1-1,1c-0.4-0.1-0.7-0.7-0.6-1.3
									C340.3,102.7,340.8,102.2,341.2,102.3z"/>
								<path class="st24" d="M338.2,100.5c-0.2-0.1-0.2-0.4,0-0.6c0.8-1,2-1.5,3.3-1.4l0,0c0,0,0,0,0,0c0.2,0,0.4,0.2,0.3,0.4
									c0,0.2-0.2,0.4-0.4,0.3c-1,0-2,0.4-2.6,1.2c-0.1,0.1-0.2,0.1-0.3,0.1C338.3,100.6,338.3,100.5,338.2,100.5z"/>
								<path class="st25" d="M339.2,108.9c0.8,0.5,1.8,0.5,2.7,0.2c-0.7-1.7-1.2-3.5-1.5-5.4L339.2,108.9z"/>
								<path class="st36" d="M320.8,91.4c3.4-4.9,10.1-6,15-2.6c7.2,4.8,6.4,16.9,3.5,23.8c-0.8,2-2.2,3.7-4,4.9
									c-4.9,3.2-11.5,1.9-14.7-3c-3.4-4.9-2.4-9.6-1.6-17.8C319,94.8,319.7,93,320.8,91.4z"/>
								<path class="st36" d="M335.1,100.8c2,1,2.3,4.9,1.9,7.2c-0.4,2.6-2.2,4.1-3.7,2.1c-1.2-1.7-1.8-3.6-1.8-5.7
									C331.5,101.8,333.1,99.8,335.1,100.8z"/>
							</g>
							<g>
								<path d="M339,112.8c-0.4,0-0.9-0.1-1.2-0.4c-0.4-0.4-0.6-0.9-0.5-1.4l0-0.1l0.5,0.1l0,0.1c-0.1,0.4,0.1,0.7,0.3,1
									c0.3,0.3,0.6,0.4,1,0.3l0.1,0.5C339.1,112.8,339.1,112.8,339,112.8z"/>
							</g>
						</g>
						<path class="st24" d="M343.9,93.1c-0.8,1.4-1.8,2.7-3.1,3.5c-0.3,0.2-0.5,0.3-0.8,0.5c-1.7,0.9-3.6,1.1-5.1-0.1
							c0.4,1.2,0.3,2.4-0.1,3.6c-0.5,1.6-1.5,3-2.4,4c0.3-1.1,0.4-2.2,0.1-3.1c-0.2-0.6-0.6-1.1-1.2-1.6c-1.3-0.9-3.2-0.5-4,0.9
							c-0.7,1.2-0.5,2.7-0.1,4c0.4,1.3,0.9,2.6,0.7,4c-0.2,1.4-1.3,2.7-2.6,2.6c-0.4,1-1.2,1.6-2.1,1.9c-1.2,0.4-2.5,0.3-3.5-0.4
							c-0.2-0.1-0.4-0.3-0.5-0.5c-0.5,0.6-1.3,1.1-2.1,1.2c-0.6,0.1-1.2,0.1-1.8-0.1c-1.4-0.4-2.5-1.8-2.6-3.2
							c-1.7,0.3-3.7-0.8-4.3-2.4c-0.6-1.7,0.1-3.7,1.7-4.6c-1.7-0.6-2.9-2.4-2.9-4.3c0.1-1.8,1.4-3.5,3.1-4.1
							c-1.6-2.1-0.2-5.2,1.6-6.3c0.2-0.1,0.3-0.2,0.5-0.2c0.3-0.1,0.6-0.1,0.9-0.1l0.2,0c0.2,0,0.3,0.1,0.5,0.2c0,0,0.1,0,0.1,0
							c0.2-0.2,0.7-0.9,1.2-1.6c0.1-0.1,0.1-0.2,0.2-0.2c0.1-0.1,0.1-0.2,0.2-0.3c0.7-1.1,1.4-2,1.5-1.6c-0.3-3,1.5-6.2,4.2-7.5
							c2.7-1.4,6.3-0.9,8.5,1.2c1.1-1.5,3.1-2.3,5-2c1.9,0.3,3.5,1.8,4,3.6c2.8-1.1,6.1,1.2,7,4.1C346.4,87.3,345.5,90.5,343.9,93.1
							z"/>
					</g>
					<g id="_x3C_Group_x3E_">
						<g>
							<polygon class="st36" points="377.1,279.9 384.2,277.1 387.4,294.8 380.3,297.5 							"/>
							<polygon class="st23" points="378.7,289.5 385.9,287.6 384.1,277.7 377.1,280.4 							"/>
							<path class="st36" d="M389.1,294.4c2.5,1.1,6.5,1.6,12.7,1.1c1.4-0.1,2.4,2.9-0.7,3.8c-3.1,0.9-9.2,2.6-11.4,3.1
								c-2.7,0.7-4.1,1.2-5.8,1.8c-1.6,0.5-3.5-0.3-4-1.9c-0.1-0.2-0.1-0.5-0.1-0.8c0,0,0.3-6.2,0.6-6.3l6.2-2.9
								C387,292.2,387.7,294,389.1,294.4z"/>
						</g>
						<g>
							<path class="st6" d="M300.5,195.8c0.5,6.9,2.2,13.6,5,19.9c5.7,12.3,37.9,8.4,52,7.2c1.1-64.1,43.6,131.9,17.4,63.5l12.7-3.9
								c0,0-7.9-43.6-8.5-67.5c-0.6-21.8-50.9-21.9-50.9-21.9L300.5,195.8z"/>
							<path class="st13" d="M300.5,195.8c0.5,6.9,2.2,13.6,5,19.9c5.7,12.3,37.9,8.4,52,7.2c1.1-64.1,43.4,131.3,17.2,63l12.8-4.3
								c0,0-7.8-42.8-8.5-66.6c-0.6-21.8-50.9-21.9-50.9-21.9L300.5,195.8z"/>
						</g>
						<polygon class="st6" points="371.2,280.2 387.9,275 388.8,282.2 373.3,287.9 						"/>
						<g>
							<g>
								<polygon class="st36" points="406.8,283 413.4,279.3 419.6,295.9 413,299.6 								"/>
								<path class="st36" d="M420.9,294.8c2.5,1.1,6.5,1.6,12.7,1.1c1.4-0.1,2.4,2.9-0.7,3.8c-3.1,0.9-9.2,2.6-11.4,3.1
									c-3.6,0.9-8.5,2.7-8.8-0.5c0,0-0.8-6.6-0.5-6.7l6.2-2.9C418.8,292.6,419.3,293.8,420.9,294.8z"/>
							</g>
							<polygon class="st23" points="409.6,290.5 416.3,286.8 413.1,278.3 406.4,281.9 							"/>
						</g>
						<g>
							<path class="st6" d="M316.9,194.1c0,0-0.9,14,3.8,24.1c5.7,12.3,44.7,1.6,60.4,4.7c1.7,24.4,24.7,64.6,24.7,64.6l12.4-6.3
								c0,0-8.8-37.1-17-69.4c-2.8-24.2-57.8-20-58.1-19.9L316.9,194.1z"/>
							<path class="st13" d="M316.9,194.1c0,0-0.9,14,3.8,24.1c5.7,12.3,44.7,1.6,60.4,4.7c1.7,24.4,24.7,64.6,24.7,64.6l12.4-6.3
								c0,0-8.8-37.1-17-69.4c-2.9-25.8-66.2-20.2-66.6-20.2L316.9,194.1z"/>
						</g>
						<polygon class="st6" points="402,282.3 418.2,275.2 420,281.5 404.8,290 						"/>
						<g>
							<g>
								<g id="Monitor_Screen">
									<g id="PC">
										<g>
											<polygon class="st6" points="390.8,187.6 331.9,186.3 336,149 395,150.4 											"/>
											<path class="st6" d="M389.9,190.5l-58.1-1.3c-1.6,0-2.8-1.4-2.7-3l4.1-37c0.2-1.6,1.7-2.9,3.3-2.9l58.1,1.3
												c1.6,0,2.8,1.4,2.7,3l-4.1,37C393.1,189.3,391.6,190.6,389.9,190.5z"/>
											<g class="st19">
												<polygon points="390.8,187.6 331.9,186.3 336,149 395,150.4 												"/>
												<polygon class="st37" points="390.8,187.6 331.9,186.3 336,149 395,150.4 												"/>
											</g>
											<polygon class="st7" points="390.7,187.8 331.8,186.4 335.9,149.1 394.8,150.5 											"/>
											<g>
												<polygon class="st6" points="387.6,161 376.8,160.8 377.5,154.7 388.3,155 												"/>
											</g>
											<g>
												<polygon class="st6" points="386.3,173 375.5,172.8 376.1,166.7 387,166.9 												"/>
											</g>
											<g>
												<polygon class="st6" points="385,185 374.1,184.7 374.8,178.7 385.6,178.9 												"/>
											</g>
											<g>
												<polygon class="st32" points="382.1,147.2 369.6,190 373.5,190.1 385.9,147.3 												"/>
												<polygon class="st32" points="388.1,147.3 375.6,190.1 383.3,190.3 395.6,147.5 												"/>
											</g>
											<polygon class="st6" points="338.6,179.3 338.6,179.6 369.8,180.3 369.8,180 											"/>
											<polygon class="st6" points="370.3,176 339.1,175.3 341.5,153.8 372.7,154.5 											"/>
											<path class="st6" d="M339.8,183.8L339.8,183.8c-0.9,0-1.5-0.8-1.4-1.6l0,0c0.1-0.9,0.9-1.6,1.8-1.6l0,0
												c0.9,0,1.5,0.8,1.4,1.6l0,0C341.4,183.1,340.6,183.8,339.8,183.8z"/>
											<polygon class="st6" points="354.4,178.3 338.8,177.9 339,176.6 354.5,176.9 											"/>
											<polygon class="st6" points="369.4,183.6 363.4,183.4 363.5,182.1 369.6,182.2 											"/>
											<g>
												<polygon class="st6" points="370,178.7 368.6,178.6 368.8,177.3 370.1,177.3 												"/>
												<polygon class="st6" points="367.7,178.6 366.3,178.6 366.4,177.2 367.8,177.2 												"/>
												<polygon class="st6" points="365.3,178.6 363.9,178.5 364.1,177.1 365.5,177.2 												"/>
											</g>
											<polygon class="st38" points="354.4,178.3 338.8,177.9 339,176.6 354.5,176.9 											"/>
											<polygon class="st10" points="369.8,180 338.6,179.3 338.6,179.6 369.8,180.3 											"/>
										</g>
									</g>
								</g>
								<path class="st6" d="M371.5,189.8l19.6,0.7c0.2,2.3-0.8,3.1-2.1,3l-6.3-0.2l-4.2-0.2l-6.5-0.2l-29.9-0.7l-0.1-2.9
									L371.5,189.8z"/>
								<path class="st13" d="M371.5,189.8l19.6,0.7c0.2,2.3-0.8,3.1-2.1,3l-6.3-0.2l-4.2-0.2l-6.5-0.2l-29.9-0.7l-0.1-2.9
									L371.5,189.8z"/>
							</g>
							<path class="st10" d="M391.1,190.5l0.1,0.8c0.1,1.2-0.9,2.3-2.1,2.2l-6.3-0.2l-11.6-0.3l0.4-3.2L391.1,190.5z"/>
						</g>
						<g>
							<path class="st6" d="M309,124.2l19.1,1.7c0,0-2.1-4.9-8.9-5.4C312.4,120,309,124.2,309,124.2z"/>
							<g>
								<g>
									<path class="st6" d="M296.7,157.3c1.4,15,1.7,30.3,3.8,38.5l4.6,1c8.1,1.8,16.5,1.6,24.5-0.7l13.4-3.8
										c-0.7-14.2-0.6-42-0.5-55.8c0-4.9-3.3-9.2-8-10.5c-1.3-0.3-2.5-0.6-3.2-0.8c-5.7-0.8-11.4-1.3-17.2-1.4
										c-3-0.1-6.1,0-8.6,0.2l-1.4,0.1c-2.1,0.2-5.5,2.5-6,4.5C295.7,137,295.9,148.3,296.7,157.3z"/>
									<g>
										<path class="st6" d="M296.7,157.3c1.4,15,1.7,30.3,3.8,38.5l4.6,1c8.1,1.8,16.5,1.6,24.5-0.7l13.4-3.8
											c-0.7-14.2-0.6-42-0.5-55.8c0-4.9-3.3-9.2-8-10.5c-1.3-0.3-2.5-0.6-3.2-0.8c-5.7-0.8-11.4-1.3-17.2-1.4
											c-3-0.1-6.1,0-8.6,0.2l-1.4,0.1c-2.1,0.2-5.5,2.5-6,4.5C295.7,137,295.9,148.3,296.7,157.3z"/>
										<path class="st27" d="M296.7,157.3c1.4,15,1.7,30.3,3.8,38.5l4.6,1c8.1,1.8,16.5,1.6,24.5-0.7l13.4-3.8
											c-0.7-14.2-0.6-42-0.5-55.8c0-4.9-3.3-9.2-8-10.5c-1.3-0.3-2.5-0.6-3.2-0.8c-5.7-0.8-11.4-1.3-17.2-1.4
											c-3-0.1-6.1,0-8.6,0.2l-1.4,0.1c-2.1,0.2-5.5,2.5-6,4.5C295.7,137,295.9,148.3,296.7,157.3z"/>
									</g>
									<path class="st23" d="M322.1,135.8c-0.5,5.2-1.3,16.4,1.5,25.8l5.5,0.1c3.8,0.1,7.7-0.5,11.3-1.7l0,0
										c0,0,2.8-14.2-1.4-22.7C335.3,130,322.8,127.7,322.1,135.8z"/>
									<path class="st36" d="M334.9,128.3c0.7,6.4,1.5,13,2.4,19.5c0.5,3.2,0.9,6.5,1.5,9.6c0.6,3.2,1.1,6.3,1.9,9.4
										c0.4,1.5,0.8,3,1.2,4.4c0.2,0.7,0.5,1.4,0.7,2c0.1,0.3,0.3,0.6,0.4,0.9l0.2,0.4c0,0,0.1,0.1,0.1,0.1
										c-0.1-0.1-0.1-0.2-0.2-0.3c-0.2-0.2-0.3-0.2-0.2-0.2c0.1,0.1,0.3,0.3,0.5,0.3c0.5,0.3,1,0.6,1.6,0.8c1.4,0.5,2.8,1,4.2,1.3
										c6,1.6,13.3,4.6,19.7,5.8l-0.2,5.7c-6.9,0.6-21.4-1.3-26.8-3.4c-1-0.3-2.1-0.6-3-1.1c-0.6-0.3-1.2-0.6-1.7-1
										c-1.1-0.7-2-1.6-2.6-2.6l-0.2-0.4l-0.4-0.7c-0.3-0.5-0.5-0.9-0.7-1.4c-0.4-0.9-0.8-1.8-1.1-2.7c-0.6-1.7-1.2-3.4-1.7-5.1
										c-1.8-6.6-3.3-13.3-4.3-20.1c-0.5-3.3-1-6.7-1.4-10c0,0,0-0.1,0-0.1c-0.7-5.5,3.3-10.4,8.8-10.9L334.9,128.3z"/>
									<path class="st36" d="M365.7,186.6c0.7,2.5,9.1,2.5,9.1,2.5l-0.3-7.9l-7.6,0.9L365.7,186.6z"/>
									<polygon class="st36" points="374.5,181.2 374.9,189.1 379.9,190.1 378.9,184.5 									"/>
								</g>
								<path class="st6" d="M322.5,132.7c-1.2,4.9,0.9,19.5,3.7,26.3l17.4-2.6c0,0,1.3-20-2.9-25.6
									C333.9,121.9,324.4,125.1,322.5,132.7z"/>
								<path class="st11" d="M322.5,132.7c-1.2,4.9,0.9,19.5,3.7,26.3l17.4-2.6c0,0,1.3-20-2.9-25.6
									C333.9,121.9,324.4,125.1,322.5,132.7z"/>
							</g>
						</g>
					</g>
					<g>
						<path class="st24" d="M418.7,292.6l-7,3c-0.3,0.1-0.5,0.5-0.4,0.8l2.1,10.5c0.2,0.7,1,1.1,1.7,0.9c0,0,0.1,0,0.1-0.1
							c3-1.3,4.4-2.1,8.3-3.8c2.4-1,10.1-3,13-5c3-2,1.1-5-0.3-4.5c-4.5,1.8-10.9,0.9-14.9-1.6C420.9,292.9,419.1,292.4,418.7,292.6
							z"/>
						<g>
							<path class="st6" d="M422.6,296.5C422.6,296.5,422.6,296.6,422.6,296.5c0.4,0.3,0.9,0.2,1.2,0c0.2-0.1,0.4-0.3,0.4-0.6
								c0.1-1.1-2.5-3.1-2.8-3.3c-0.1-0.1-0.2-0.1-0.2,0c-0.1,0-0.1,0.1-0.1,0.2C421.3,294,421.7,296,422.6,296.5z M421.6,293.3
								c1,0.8,2.3,2,2.2,2.6c0,0.1-0.1,0.2-0.2,0.3c-0.2,0.2-0.5,0.2-0.8,0.1C422.3,295.9,421.8,294.9,421.6,293.3L421.6,293.3z"/>
							<path class="st6" d="M421.5,293.2c0.9,0.6,2.9,1.2,3.7,0.8c0.3-0.2,0.4-0.5,0.3-0.9c-0.1-0.3-0.3-0.6-0.6-0.7
								c-1.2-0.6-3.6,0.3-3.7,0.3c-0.1,0-0.1,0.1-0.2,0.1c0,0.1,0,0.1,0.1,0.2C421.2,293.1,421.3,293.1,421.5,293.2z M424.8,292.7
								c0.2,0.1,0.3,0.3,0.3,0.4c0.1,0.3,0,0.4-0.1,0.4c-0.5,0.3-2.2-0.1-3.2-0.7C422.6,292.6,424,292.3,424.8,292.7
								C424.7,292.7,424.7,292.7,424.8,292.7L424.8,292.7z"/>
						</g>
					</g>
					<g>
						<path class="st24" d="M386.4,291.7l-7.2,2.5c-0.3,0.1-0.5,0.4-0.5,0.7l0.7,10.1c0.1,0.7,0.8,1.1,1.6,0.9c0.1,0,0.1,0,0.1,0
							c3.1-1.1,4.6-1.8,8.5-3.1c2.4-0.8,10.2-2.2,13.3-4c3.1-1.7,1.7-4.7,0.3-4.2c-4.6,1.5-10.7,0.2-14.2-2.3
							C388.5,292.1,386.8,291.5,386.4,291.7z"/>
						<g>
							<path class="st6" d="M391.2,295.8C391.2,295.8,391.3,295.9,391.2,295.8c0.5,0.2,0.9,0,1.2-0.3c0.2-0.2,0.3-0.4,0.3-0.7
								c-0.2-1.1-3.1-2.5-3.4-2.6c-0.1,0-0.2,0-0.2,0c-0.1,0.1-0.1,0.1-0.1,0.2C389.4,293.6,390.2,295.5,391.2,295.8z M389.6,292.9
								c1.2,0.6,2.7,1.5,2.7,2.1c0,0.1,0,0.2-0.1,0.3c-0.2,0.2-0.5,0.3-0.7,0.2C390.9,295.3,390.2,294.4,389.6,292.9L389.6,292.9z"
								/>
							<path class="st6" d="M389.4,292.8c1,0.4,3.1,0.6,3.8-0.1c0.2-0.2,0.3-0.6,0.1-0.9c-0.2-0.3-0.4-0.5-0.7-0.6
								c-1.3-0.3-3.4,1-3.5,1.1c-0.1,0-0.1,0.1-0.1,0.2c0,0.1,0.1,0.1,0.1,0.2C389.2,292.7,389.3,292.8,389.4,292.8z M392.6,291.6
								c0.2,0.1,0.3,0.2,0.4,0.4c0.1,0.2,0,0.4,0,0.4c-0.4,0.4-2.2,0.4-3.3,0C390.4,292,391.7,291.4,392.6,291.6
								C392.5,291.6,392.5,291.6,392.6,291.6L392.6,291.6z"/>
						</g>
					</g>
				</g>
			</g>
			<path class="st17" d="M412.7,215.3h-96.7c-4.9,0-8.9-4-8.9-8.9v-96.7c0-4.9,4-8.9,8.9-8.9h96.7c4.9,0,8.9,4,8.9,8.9v96.7
				C421.6,211.3,417.6,215.3,412.7,215.3z"/>
		</g>
		<g>
			<path class="st6" d="M359.1,220.1l5.5-4.4l-0.6-0.8l-5.8,4.6C358.5,219.7,358.8,219.9,359.1,220.1z"/>
			<path class="st6" d="M333.6,239l-32.6,25.8l0.6,0.8l32.5-25.8C334,239.6,333.8,239.3,333.6,239z"/>
			<path class="st6" d="M337.7,237l17.8-14.1c-0.2-0.3-0.2-0.7-0.3-1.1l-18.1,14.4C337.4,236.4,337.6,236.7,337.7,237z"/>
		</g>
	</g>
</g>
<g id="Device_5">
	<g>
		<g>
			<g>
				<g>
					<g>
						<rect x="409.2" y="243.4" class="st6" width="32.2" height="52.2"/>
						<rect x="409.2" y="243.4" class="st13" width="32.2" height="52.2"/>
					</g>
					<g>
						<g>
							<rect x="392.1" y="243.4" class="st6" width="29.8" height="52.2"/>
							<rect x="392.1" y="243.4" class="st27" width="29.8" height="52.2"/>
						</g>
						<g>
							<g>
								<rect x="393.8" y="245.8" class="st6" width="26.3" height="6.6"/>
								<rect x="395.9" y="247.6" class="st2" width="0.8" height="4.1"/>
								<rect x="398.8" y="247.6" class="st2" width="0.8" height="4.1"/>
								<rect x="397.4" y="248.8" class="st2" width="0.8" height="3"/>
								<g>
									<circle class="st2" cx="412.3" cy="249.3" r="1.1"/>
									<circle class="st2" cx="415.1" cy="249.3" r="1.1"/>
									<circle class="st2" cx="417.8" cy="249.3" r="1.1"/>
								</g>
							</g>
							<g>
								<rect x="393.8" y="254.4" class="st6" width="26.3" height="6.6"/>
								<rect x="395.9" y="256.2" class="st2" width="0.8" height="4.1"/>
								<rect x="398.8" y="256.2" class="st2" width="0.8" height="4.1"/>
								<rect x="397.4" y="257.3" class="st2" width="0.8" height="3"/>
								<g>
									<circle class="st2" cx="412.3" cy="257.8" r="1.1"/>
									<circle class="st2" cx="415.1" cy="257.8" r="1.1"/>
									<circle class="st2" cx="417.8" cy="257.8" r="1.1"/>
								</g>
							</g>
							<g>
								<rect x="393.8" y="262.9" class="st6" width="26.3" height="6.6"/>
								<rect x="395.9" y="264.8" class="st2" width="0.8" height="4.1"/>
								<rect x="398.8" y="264.8" class="st2" width="0.8" height="4.1"/>
								<rect x="397.4" y="265.9" class="st2" width="0.8" height="3"/>
								<g>
									<path class="st2" d="M413.4,266.4c0,0.6-0.5,1.1-1.1,1.1c-0.6,0-1.1-0.5-1.1-1.1c0-0.6,0.5-1.1,1.1-1.1
										C412.9,265.3,413.4,265.8,413.4,266.4z"/>
									<path class="st2" d="M416.2,266.4c0,0.6-0.5,1.1-1.1,1.1c-0.6,0-1.1-0.5-1.1-1.1c0-0.6,0.5-1.1,1.1-1.1
										C415.7,265.3,416.2,265.8,416.2,266.4z"/>
									<path class="st2" d="M419,266.4c0,0.6-0.5,1.1-1.1,1.1c-0.6,0-1.1-0.5-1.1-1.1c0-0.6,0.5-1.1,1.1-1.1
										C418.5,265.3,419,265.8,419,266.4z"/>
								</g>
							</g>
							<g>
								<rect x="393.8" y="271.5" class="st6" width="26.3" height="6.6"/>
								<rect x="395.9" y="273.3" class="st2" width="0.8" height="4.1"/>
								<rect x="398.8" y="273.3" class="st2" width="0.8" height="4.1"/>
								<rect x="397.4" y="274.5" class="st2" width="0.8" height="3"/>
								<g>
									<circle class="st2" cx="412.3" cy="275" r="1.1"/>
									<circle class="st2" cx="415.1" cy="275" r="1.1"/>
									<circle class="st2" cx="417.8" cy="275" r="1.1"/>
								</g>
							</g>
						</g>
					</g>
				</g>
				<path class="st24" d="M410.8,286.6c0,2-1.6,3.6-3.6,3.6c-2,0-3.6-1.6-3.6-3.6c0-2,1.6-3.6,3.6-3.6
					C409.2,283,410.8,284.6,410.8,286.6z"/>
			</g>
			<g>
				<g>
					<defs>
						<path id="SVGID_9_" d="M449.4,311.2h-65.3c-4.9,0-8.9-4-8.9-8.9V237c0-4.9,4-8.9,8.9-8.9h65.3c4.9,0,8.9,4,8.9,8.9v65.3
							C458.3,307.2,454.3,311.2,449.4,311.2z"/>
					</defs>
					<clipPath id="SVGID_10_">
						<use xlink:href="#SVGID_9_"  style="overflow:visible;"/>
					</clipPath>
					<use xlink:href="#SVGID_9_"  style="overflow:visible;fill:none;stroke:#407BFF;stroke-miterlimit:10;"/>
				</g>
				<g>
					<path class="st17" d="M449.4,311.2h-65.3c-4.9,0-8.9-4-8.9-8.9V237c0-4.9,4-8.9,8.9-8.9h65.3c4.9,0,8.9,4,8.9,8.9v65.3
						C458.3,307.2,454.3,311.2,449.4,311.2z"/>
				</g>
			</g>
		</g>
		<g>
			<path class="st6" d="M328.2,292.7l-19.1,8.6l0.4,0.9l18.9-8.5C328.3,293.4,328.2,293,328.2,292.7z"/>
			<path class="st6" d="M347.5,285.1l28.1-12.7l-0.4-0.9l-27.9,12.6C347.4,284.4,347.5,284.8,347.5,285.1z"/>
			<path class="st6" d="M343.1,286l-11,5c0.2,0.2,0.4,0.5,0.5,0.9l11.1-5C343.5,286.6,343.3,286.3,343.1,286z"/>
		</g>
	</g>
</g>
<g id="Cloud">
	<g>
		<g>
			<path class="st6" d="M317.6,301.3c-0.2,0-0.4,0-0.6,0c0,0,0,0,0,0c0-38.5-31.2-69.8-69.8-69.8c-32.5,0-59.8,22.2-67.5,52.2
				c-29.5,1.9-52.8,26.4-52.8,56.4c0,31.2,25.3,56.5,56.5,56.5h134.2c26.3,0,47.7-21.3,47.7-47.7C365.3,322.7,344,301.3,317.6,301.3
				z"/>
			<path class="st11" d="M317.6,301.3c-0.2,0-0.4,0-0.6,0c0,0,0,0,0,0c0-38.5-31.2-69.8-69.8-69.8c-32.5,0-59.8,22.2-67.5,52.2
				c-29.5,1.9-52.8,26.4-52.8,56.4c0,31.2,25.3,56.5,56.5,56.5h134.2c26.3,0,47.7-21.3,47.7-47.7C365.3,322.7,344,301.3,317.6,301.3
				z"/>
		</g>
		<ellipse class="st21" cx="246.1" cy="414.2" rx="119.2" ry="4.6"/>
		<g>
			<g>
				<path class="st8" d="M257.6,350.4c-0.9,7.5-14.2,13.4-14.2,13.4s-13.2-5.9-14.2-13.4L229,328l14.2-4.7l14.7,4.7L257.6,350.4z"/>
			</g>
			<g>
				<g>
					<g>
						<path class="st6" d="M249,337.5v4.8c0,0.4-0.4,0.8-0.8,0.8c-0.4,0-0.8-0.4-0.8-0.8v-4.8c0-1.6-1.3-2.8-2.8-2.8h-1.7
							c-1.6,0-2.8,1.3-2.8,2.8v5h-1.6v-5c0-2.4,2-4.4,4.4-4.4h1.7C247,333.1,249,335.1,249,337.5z"/>
					</g>
					<g>
						<g>
							<path class="st6" d="M249.5,342.2v9.4c0,0.6-0.5,1.1-1.1,1.1H239c-0.6,0-1.1-0.5-1.1-1.1v-9.4c0-0.4,0.2-0.7,0.5-0.9
								c0.2-0.1,0.4-0.2,0.6-0.2h9.4c0.2,0,0.4,0.1,0.6,0.2C249.3,341.4,249.5,341.8,249.5,342.2z"/>
						</g>
					</g>
				</g>
				<g class="st39">
					<g>
						<path class="st2" d="M249,337.5v4.8c0,0.4-0.4,0.8-0.8,0.8c-0.4,0-0.8-0.4-0.8-0.8v-4.8c0-1.6-1.3-2.8-2.8-2.8h-1.7
							c-1.6,0-2.8,1.3-2.8,2.8v5h-1.6v-5c0-2.4,2-4.4,4.4-4.4h1.7C247,333.1,249,335.1,249,337.5z"/>
					</g>
					<g>
						<g>
							<path class="st2" d="M249.5,342.2v9.4c0,0.6-0.5,1.1-1.1,1.1H239c-0.6,0-1.1-0.5-1.1-1.1v-9.4c0-0.4,0.2-0.7,0.5-0.9
								c0.2-0.1,0.4-0.2,0.6-0.2h9.4c0.2,0,0.4,0.1,0.6,0.2C249.3,341.4,249.5,341.8,249.5,342.2z"/>
						</g>
					</g>
				</g>
			</g>
		</g>
	</g>
</g>
<g id="Character">
	<g>
		<g>
			<g>
				<path class="st10" d="M207.3,294.2c0,0-6.2,4.6-1.2,16.7c6.8,16.3,61.4,2.3,61.4,2.3c-1.9,10.7,1,18.8,2.9,29.5l5.1,28.2
					l-5.4,0.6l2.2,7.9h5.3l0.6,6.7l0,0c-1.3,0.1-2.2,1.2-2.1,2.5l1.2,6.2l1.1,1.3l24.2-3.7l-16.9-6.3l-5.6-88.5L207.3,294.2z"/>
				<g>
					<path class="st10" d="M291.4,305.1h5c0,0-1.5,3.4,0.4,18.4c1.9,15,8.2,34.2,8.2,34.2h-4.5l1.2,8.3h4.4v7l0,0
						c-1.2,0.1-2,1.1-2.1,2.3l-0.2,4.5l3.2,2l19.5-1.6l2.4-1.5l-10.8-5.1l-7.3-77.5l-23.7,1.8L291.4,305.1z"/>
					<g>
						<g>
							<g>
								<g id="Character--inject-2_2_">
									<polygon class="st30" points="311.1,374.7 319.6,373.8 320.4,353.7 311.9,354.6 									"/>
									<path class="st24" d="M320.5,370.2l-9.7-0.1c-0.3,0-0.6,0.2-0.7,0.5c0,0,0,0,0,0.1l-0.5,7.6c0,0.8,0.7,1.5,1.5,1.5
										c3.4,0,4.8-0.2,9-0.5c2.6-0.2,8.8-0.6,12.4-1.3c3.6-0.7,2.8-4.2,1.2-4.2c-3.7-0.1-9.4-1.3-11.8-3.2
										C321.5,370.4,321,370.2,320.5,370.2z"/>
									<polygon class="st23" points="311.8,354.6 320.4,353.7 320,363.4 311.5,364 									"/>
									<path class="st6" d="M250.7,269.4c0,0,65.2-3.3,69.6,21c3.6,36.8,1.3,68.7,1.3,68.7l-11.7-0.9c0,0-9.9-38.8-8.9-59.5
										c-18-2-66.9,6.8-74.5-6.6c-6.2-10.9-5.1-17.7-5.1-17.7L250.7,269.4z"/>
									<path class="st19" d="M250.7,269.4c0,0,65.2-3.3,69.6,21c3.6,36.8,1.3,68.7,1.3,68.7l-11.7-0.9c0,0-9.9-38.8-8.9-59.5
										c-18-2-66.9,6.8-74.5-6.6c-6.2-10.9-5.1-17.7-5.1-17.7L250.7,269.4z"/>
									<polygon class="st6" points="305.7,361.9 324,361 325.3,354.1 305,354.8 									"/>
									<path class="st6" d="M325.1,371.3c0.3-0.3,0.4-0.7,0.3-1.1c0-0.3-0.2-0.5-0.5-0.6c-1.1-0.4-3.5,1.2-3.8,1.4
										c0,0-0.1,0.1-0.1,0.1c0,0.1,0,0.2,0.1,0.2c0.7,0.2,1.5,0.3,2.3,0.3C324.1,371.8,324.7,371.6,325.1,371.3z M324.8,370
										c0.1,0.1,0.2,0.2,0.2,0.3c0.1,0.2,0,0.5-0.1,0.7c-0.4,0.4-1.5,0.4-3.1,0.1C322.8,370.5,324.2,369.8,324.8,370z"/>
									<path class="st6" d="M321.4,371.3c0.9-0.5,2.2-2.3,2-3.2c-0.1-0.3-0.4-0.6-0.7-0.6c-0.3-0.1-0.7,0.1-0.9,0.3
										c-0.9,0.8-0.7,3.3-0.7,3.4c0,0.1,0,0.1,0.1,0.2c0,0,0.1,0,0.1,0L321.4,371.3z M322.5,367.9c0.3,0,0.4,0.2,0.4,0.3
										c0.1,0.6-0.7,2-1.5,2.6c0-0.8,0.1-2.2,0.6-2.7C322.1,367.9,322.3,367.9,322.5,367.9C322.5,367.9,322.5,367.9,322.5,367.9z"
										/>
									<polygon class="st30" points="285.3,386.2 293.6,386 293,365.8 284.7,366 									"/>
									<path class="st24" d="M293.8,383.5l-9.6,0.6c-0.3,0-0.6,0.3-0.6,0.6l0,7.7c0.1,0.8,0.8,1.5,1.6,1.4
										c3.3-0.3,4.9-0.6,9.2-0.9c2.6-0.2,7.8-0.3,11.3-1.1c3.5-0.8,2.6-4.3,1.1-4.2c-3.7,0.1-8.9-2-11.4-3.7
										C294.8,383.6,294.3,383.5,293.8,383.5z"/>
									<path class="st6" d="M298.5,384.2c0.3-0.3,0.3-0.7,0.2-1.1c-0.1-0.3-0.3-0.5-0.5-0.5c-1.1-0.4-3.4,1.5-3.7,1.7
										c0,0-0.1,0.1-0.1,0.1c0,0.1,0.1,0.2,0.2,0.2c0.8,0.1,1.5,0.2,2.3,0.2C297.5,384.8,298.1,384.6,298.5,384.2z M298.1,383
										c0.1,0,0.2,0.1,0.2,0.3c0.1,0.2,0.1,0.5-0.1,0.7c-0.3,0.4-1.5,0.5-3.1,0.3C296.1,383.6,297.5,382.8,298.1,383z"/>
									<path class="st6" d="M294.8,384.6c0.8-0.6,2-2.5,1.7-3.4c-0.1-0.3-0.4-0.6-0.8-0.6c-0.3,0-0.7,0.1-0.9,0.3
										c-0.8,0.9-0.5,3.3-0.4,3.5c0,0.1,0.1,0.1,0.1,0.2c0,0,0.1,0,0.1,0C294.7,384.7,294.8,384.7,294.8,384.6z M295.7,381.1
										c0.3,0,0.4,0.2,0.4,0.3c0.2,0.6-0.6,2-1.3,2.7c-0.1-0.8-0.1-2.2,0.4-2.7C295.3,381.2,295.4,381.1,295.7,381.1L295.7,381.1z
										"/>
									<polygon class="st23" points="283.9,365.8 293.2,364.3 293.3,376.9 285.2,377.8 									"/>
									<g>
										<path class="st6" d="M230,272.8c0,0,64.4,4.7,65.3,23.5c4.8,30.6,1.2,70.8,1.2,70.8l-15.4,3.2c0,0-8-37.7-9.1-65.4
											c-15.8,2.7-48.2,7.6-59.3-0.3c-10.1-9.1-7.3-27.6-7.3-27.6L230,272.8z"/>
										<path class="st13" d="M230,272.8c0,0,64.4,4.7,65.3,23.5c4.8,30.6,1.2,70.8,1.2,70.8l-15.4,3.2c0,0-8-37.7-9.1-65.4
											c-15.8,2.7-48.2,7.6-59.3-0.3c-10.1-9.1-7.3-27.6-7.3-27.6L230,272.8z"/>
									</g>
									<polygon class="st6" points="279.6,375.4 298.5,373.8 298.9,365.6 278.2,367.7 									"/>
									<path class="st30" d="M234.5,216.8c0.4,1.5,0.7,2.7,1.1,4.1c0.4,1.3,0.8,2.6,1.2,3.9c0.9,2.6,1.8,5.2,2.9,7.8
										c2.2,5.4,5,10.5,8.6,15.2c1,1.3,2.2,2.5,3.4,3.6c1.4,1.2,3,2.3,4.7,3.1c3.3,1.4,6.8,2,10.4,1.7c3.1-0.3,6.1-1.1,9-2.4
										c1.3-0.6,2.6-1.3,3.9-2c0.6-0.4,1.2-0.8,1.8-1.2c0.6-0.5,1.1-0.8,1.8-1.4l-3.3-5.5l-1.7,0.5l-1.7,0.5
										c-1.2,0.3-2.3,0.6-3.5,0.8c-2.1,0.4-4.3,0.5-6.5,0.3c-1.7-0.1-3.4-0.7-4.9-1.6c-0.6-0.4-1.2-0.9-1.8-1.5
										c-0.7-0.7-1.3-1.5-1.8-2.3c-1.3-1.9-2.4-3.9-3.4-5.9c-1.1-2.1-2-4.4-2.9-6.7c-0.9-2.3-1.7-4.7-2.5-7l-1.1-3.6
										c-0.4-1.2-0.8-2.4-1-3.5L234.5,216.8z"/>
									<path class="st6" d="M233.2,209.6c5.2-7.1,13.5-4.8,18.5,6c2.8,5.7,5,11.7,6.7,17.9l-19,7.4
										C233.9,230.7,227.9,216.9,233.2,209.6z"/>
									<path class="st21" d="M233.2,209.6c5.2-7.1,13.5-4.8,18.5,6c2.8,5.7,5,11.7,6.7,17.9l-19,7.4
										C233.9,230.7,227.9,216.9,233.2,209.6z"/>
									<path class="st40" d="M241.6,220.9c-1.6-1-4.7,5.3-5.9,12.8c1.1,2.5,2.4,5,3.6,7.2l11.5-4.5
										C248.6,229.6,245.3,223.2,241.6,220.9z"/>
									<path class="st30" d="M280.8,240.7l4.1-2.4l1.8,9.4c0,0-6.9,4.5-9,1l0.1-2.4C278,244,279.1,242,280.8,240.7z"/>
									<polygon class="st30" points="290.2,237.6 294.2,245 286.7,247.6 284.9,238.2 									"/>
									<g>
										<path class="st6" d="M232.9,203.5l-9.9-1.1l-12.2,1.5c-3.8,0.5-6.9,3.4-7.4,7.2c-1.1,7.5-1.5,18-1.6,27.1
											c-0.1,10.2,1.5,25.2,3.6,38.8l45.4-7.6c-3.7-28.4-2.9-45.7-2.9-55.2c0-3.8-2.5-7.2-6.2-8.2L232.9,203.5z"/>
									</g>
									<path class="st40" d="M207.2,207.6c8.1-1.7,8.3,16.9,5.1,30.6c-0.9,4-5.7,2.5-7.3,1.5C199.8,236.5,197.3,213.9,207.2,207.6
										z"/>
									<g>
										<path class="st30" d="M208.8,232.6c-1.5,7.9-5,11.4-1.4,15c3.6,3.6,26.3,17.6,27.1,16.7c-1.6,1.6-3.2,3-4.8,4.6
											c-6.9-2.7-13.7-5.4-20.6-8c-5-1.9-13.1-5.2-16.4-9.4c-3-3.8-0.3-12,2.5-21.3C198.9,229,208.8,232.6,208.8,232.6z"/>
									</g>
									<path class="st6" d="M203.9,204.4c8.3-2.7,11.7,3.9,9.6,15.5c-1.1,6.3-2.7,12.5-4.9,18.4l-17.8-5
										C192.3,222,195.4,207.3,203.9,204.4z"/>
									<polygon class="st24" points="230.2,217.2 230.5,257.8 236.7,263.1 240.4,257.2 232.7,217.2 									"/>
									<polygon class="st24" points="230.2,217.2 232.7,217.2 233.8,215.1 232.2,214.2 230.5,214 228.7,215.1 									"/>
									<path class="st24" d="M216.1,204c-0.2,1.8,0.4,3.5,1.4,5c1,1.5,2.4,2.6,3.7,3.8c1.7,1.5,3.7,3,6,2.7c2.1-0.3,3.2-1.4,4-3.9
										c1.9,2.8,2,4.2,3.9,4.3c1.3,0.1,2.3-0.9,3.2-1.8c1.5-1.7,2.2-2.6,2.4-4.8c0.3-3.6-2.7-6.9-6.1-8c-3.7-1.2-7-1.5-10.8-1.8
										C220.6,199.1,216.7,200.3,216.1,204z"/>
									<path class="st30" d="M224.2,186.4l4.6,5l6.3,6.8c-0.5,0.8-0.9,1.6-1.2,2.5c-0.6,2-0.3,3.9,1.9,5.3
										c0.9,0.4,1.6,5.2-4.5,4.9c-4.1-0.1-6.8-1.4-9.3-3.9c-1.2-1.5-1.5-2.3-0.4-3.9C224.7,198.4,224.7,191.7,224.2,186.4z"/>
									<path class="st23" d="M233.6,196.5l-4-4.9c0,0.2-0.1,0.3-0.1,0.5c-0.2,0.7-0.3,1.4-0.3,2.2c-0.2,2.5,2.3,5.6,4.7,6.9
										l0.2-0.5c0.2-0.8,0.6-1.7,1.1-2.4c0,0,0.1-0.1,0.1-0.1L233.6,196.5z"/>
									<path class="st24" d="M239.1,184.8c3.7-7.2,2.9-11.2,6.4-15.1c1.9-0.8,5.2,2.7,3,8.6S239.1,184.8,239.1,184.8z"/>
									<path class="st30" d="M224.3,176.9c-0.4,8.3-1,13.2,2.7,17.8c5.6,7,16.2,4.1,19.1-4c2.6-7.3,2.8-19.6-5-23.7
										c-5.7-2.9-12.6-0.7-15.6,5C224.8,173.5,224.3,175.2,224.3,176.9z"/>
									<path class="st24" d="M223.3,184.3l4.5,2.7l0.6-7.3l3.7-2.1l4.5-6.8c0,0-9.8-2.8-12.7-3.2c-1-0.1-4.6,2.6-5.1,3.8
										c-1.5,3.3-0.7,7.1,1.6,9.9C221.2,182.4,222.2,183.4,223.3,184.3z"/>
									<path class="st30" d="M220.2,182.9c0.2,1.8,1.1,3.5,2.5,4.8c1.8,1.6,3.9-0.3,4.1-2.6c0.1-2.1-1-5.1-3.2-5.8
										C221.5,178.6,219.9,180.6,220.2,182.9z"/>
									<path class="st24" d="M236.9,181.5c-0.1,0.7,0.2,1.3,0.6,1.4c0.5,0.1,0.8-0.4,1-1.1c0.1-0.7-0.2-1.3-0.6-1.4
										C237.4,180.3,237,180.8,236.9,181.5z"/>
									<path class="st24" d="M244.6,182.9c-0.1,0.7,0.2,1.3,0.6,1.4s0.9-0.4,1-1.1c0.1-0.7-0.2-1.3-0.6-1.4
										C245.2,181.8,244.7,182.2,244.6,182.9z"/>
									<path class="st41" d="M242.1,182.9c0.3,1.9,0.8,3.8,1.6,5.6c-1.2,0.7-2.8-0.2-2.8-0.2L242.1,182.9z"/>
									<path class="st24" d="M239.6,192.3c-1.6-0.2-3-1.1-4-2.5c-0.1-0.1,0-0.2,0.1-0.3c0.1-0.1,0.2,0,0.3,0.1
										c1,1.4,2.7,2.3,4.5,2.4c0.1,0,0.2,0.1,0.2,0.2c0,0.1-0.1,0.2-0.2,0.2c0,0,0,0,0,0C240.2,192.4,239.9,192.4,239.6,192.3z"/>
									<path class="st24" d="M235.8,178.8c-0.1,0-0.1-0.1-0.2-0.1c-0.1-0.2-0.1-0.4,0-0.6c0.9-0.9,2.3-1.3,3.5-1
										c0.2,0.1,0.3,0.3,0.3,0.5c0,0,0,0,0,0c-0.1,0.2-0.3,0.3-0.5,0.3c-1-0.2-2,0.1-2.8,0.8C236.1,178.8,235.9,178.8,235.8,178.8
										z"/>
									<path class="st24" d="M245.3,178.5c0-0.1,0-0.1,0-0.2c0.1-0.2,0.3-0.4,0.5-0.3c1.3,0.3,2.3,1.1,2.8,2.4
										c0.1,0.2,0,0.4-0.3,0.5c-0.2,0.1-0.4,0-0.5-0.3c-0.4-0.9-1.2-1.6-2.2-1.8C245.5,178.7,245.4,178.6,245.3,178.5z"/>
								</g>
								<g>
									<g>
										<g>
											<path class="st6" d="M248.2,276.8l52.1-6.9c0.5-0.1,0.9-0.6,0.9-1.1l0,0c-0.1-0.5-0.6-0.9-1.1-0.9l-52.1,6.9
												c-0.5,0.1-0.9,0.6-0.9,1.1l0,0C247.2,276.5,247.7,276.9,248.2,276.8z"/>
											<path class="st19" d="M248.2,276.8l52.1-6.9c0.5-0.1,0.9-0.6,0.9-1.1l0,0c-0.1-0.5-0.6-0.9-1.1-0.9l-52.1,6.9
												c-0.5,0.1-0.9,0.6-0.9,1.1l0,0C247.2,276.5,247.7,276.9,248.2,276.8z"/>
											<path class="st6" d="M222.5,276.5l25.3,0.3c0.5,0,1-0.4,1-1l0,0c0-0.5-0.4-1-1-1l-25.3-0.3c-0.5,0-1,0.4-1,1l0,0
												C221.5,276.1,222,276.5,222.5,276.5z"/>
											<path class="st34" d="M222.5,276.5l25.3,0.3c0.5,0,1-0.4,1-1l0,0c0-0.5-0.4-1-1-1l-25.3-0.3c-0.5,0-1,0.4-1,1l0,0
												C221.5,276.1,222,276.5,222.5,276.5z"/>
											<g>
												<path class="st6" d="M249.4,275.7l-27.8-0.2c0,0-0.9-0.6,0.9-0.9c1.9-0.4,26-3.6,26-3.6L249.4,275.7z"/>
												<path class="st6" d="M249.4,275.7l-27.2-0.3c0,0-0.9-0.6,0.9-0.9c1.9-0.4,25.4-3.5,25.4-3.5L249.4,275.7z"/>
												<path class="st38" d="M249.4,275.7l-27.2-0.3c0,0-0.9-0.6,0.9-0.9c1.9-0.4,25.4-3.5,25.4-3.5L249.4,275.7z"/>
											</g>
										</g>
										<g>
											<path class="st6" d="M249.4,274.7l48.6-6.4c1.7-0.2,3.1-1.8,3-3.6l-1.1-24.9c-0.1-1.7-1.5-3-3.3-2.7l-48.6,6.4
												c-1.7,0.2-3.1,1.8-3,3.6l1.1,24.9C246.2,273.7,247.6,274.9,249.4,274.7z"/>
											<path class="st13" d="M249.4,274.7l48.6-6.4c1.7-0.2,3.1-1.8,3-3.6l-1.1-24.9c-0.1-1.7-1.5-3-3.3-2.7l-48.6,6.4
												c-1.7,0.2-3.1,1.8-3,3.6l1.1,24.9C246.2,273.7,247.6,274.9,249.4,274.7z"/>
										</g>
										<g>
											<path class="st6" d="M250.8,274.4l48.6-6.4c1.7-0.2,3.1-1.8,3-3.6l-1.1-24.9c-0.1-1.7-1.5-3-3.3-2.7l-48.6,6.4
												c-1.7,0.2-3.1,1.8-3,3.6l1.1,24.9C247.6,273.4,249.1,274.6,250.8,274.4z"/>
											<path class="st27" d="M250.8,274.4l48.6-6.4c1.7-0.2,3.1-1.8,3-3.6l-1.1-24.9c-0.1-1.7-1.5-3-3.3-2.7l-48.6,6.4
												c-1.7,0.2-3.1,1.8-3,3.6l1.1,24.9C247.6,273.4,249.1,274.6,250.8,274.4z"/>
										</g>
										<path class="st6" d="M279.1,257.1c-0.2,2.4-2.2,4.3-4.6,4.3s-4.2-1.9-4-4.3c0.2-2.4,2.2-4.3,4.6-4.3
											S279.2,254.7,279.1,257.1z"/>
									</g>
								</g>
								<g>
									<path class="st30" d="M237.4,263.8l4.2,0.5l-4.3,8.9c0,0-8.8-1.6-7.7-5.5l1.9-1.5C233.1,264.9,235.1,263.5,237.4,263.8z"/>
									<polygon class="st30" points="246,269.3 242.7,273.9 237.3,273.3 241.5,264.4 									"/>
								</g>
							</g>
						</g>
					</g>
				</g>
				<g>
					<path class="st6" d="M218.4,170.6c-0.7-1.4-1.5-2.8-1.8-4.3c-0.3-1.5-0.1-3.2,1-4.4c1-1.2,2.6-1.6,4.1-2
						c5.1-1.3,10.2-2.6,15.3-3.9c2.1-0.5,4.3-1.1,6.4-0.4c3.6,1.2,5.9,2.7,7,6.4c0.7,2.4,0.6,7.9-1.1,9.8c-1.3,1.4-3.4,1.6-5.3,1.7
						c-8.4,0.3-16.8-0.2-25.1-1.7L218.4,170.6z"/>
				</g>
				<path class="st24" d="M227.3,172.9C227.2,173.5,227.4,172.4,227.3,172.9c2.4-3.3,7.8-6,10.2-6.4c3.9-0.5,8.1,0.4,11.2,2.8
					c3.2,2.4,5.2,6.3,5.1,10.2c0,0.9-0.4,2.1-1.3,2.2c-0.8,0.1-1.3-1.7-1.8-2.4c-1.7-2.3-5.2-2.2-7.7-0.9c-1.3,0.7-2.7,1.8-4.1,1.4
					C237.9,179.6,227.3,172.9,227.3,172.9z"/>
			</g>
			<polygon class="st24" points="215,222.2 227.7,222.2 227.7,225.6 222.4,228.3 215.3,226.2 			"/>
			<polygon class="st24" points="237.3,222.2 248.1,222.2 248.1,225.6 243.6,228.3 237.6,226.2 			"/>
		</g>
		<g>
			<g>
				<g>
					<path class="st24" d="M281.2,196c-0.5,0.6-1.2,0.8-1.8,0.9c-1.4,0.2-2.9-0.6-4-1.5c-0.1,0.2-0.2,0.5-0.3,0.8l-2.6-2.4l-2.6-2.4
						c0.2-0.1,0.5-0.2,0.7-0.4c-1.4-1.4-2.5-3.6-1.2-5.4c0.1-0.1,0.2-0.2,0.2-0.3c0.1-0.1,0.2-0.1,0.3-0.1c0.2,0,0.4,0.3,0.2,0.5
						c-1.5,1.7-0.1,3.8,1.2,5.1c0.8-0.2,1.6-0.1,2.3,0.2c0,0,0,0,0,0c0.9-1.2,1.2-2.6,0-3.7c-0.4-0.4-1-0.7-1.5-0.9
						c-0.1,0-0.1-0.2,0-0.1c0.7,0.2,1.4,0.7,1.9,1.3c0.9,1.1,0.5,2.4-0.3,3.6c0,0,0.1,0,0.1,0.1c0.2-0.3,0.5-0.5,0.8-0.5l0,0.9
						l0.9-0.1c0,0.3-0.2,0.7-0.5,0.8c0,0,0,0.1,0.1,0.1c1.1-0.9,2.4-1.4,3.6-0.5c0.6,0.4,1.1,1.1,1.4,1.8c0,0.1-0.1,0.1-0.2,0.1
						c-0.2-0.5-0.6-1.1-1-1.5c-1.1-1-2.5-0.7-3.7,0.2c0,0,0,0,0,0c0.3,0.7,0.4,1.5,0.3,2.3c1.1,1,2.9,2.1,4.4,1.4
						c0.3-0.1,0.5-0.3,0.8-0.5C281.1,195.3,281.5,195.7,281.2,196z"/>
					<path class="st24" d="M272.5,193.7l-3.3-3.1c-0.3,0.2-0.6,0.4-0.9,0.6c-2.1-0.2-4.6,0.3-5.2,2.6c-0.1,0.4,0.5,0.5,0.6,0.1
						c0.5-1.7,2.2-2.2,3.9-2.1c-0.1,0.1-0.2,0.2-0.3,0.3c-2.3,2.5-2.7,5.9-0.7,7.8c1.9,1.8,5.4,1.3,7.8-1.2c0.1-0.1,0.2-0.3,0.3-0.4
						c0.2,1.7-0.2,3.5-1.9,4.1c-0.4,0.1-0.2,0.7,0.2,0.6c2.3-0.8,2.6-3.4,2.3-5.5c0.2-0.3,0.3-0.5,0.4-0.8L272.5,193.7z"/>
				</g>
				<g>
					<polygon class="st24" points="288.1,210.4 283.7,210.4 284.4,205.9 288.8,205.9 					"/>
					<path class="st24" d="M293.3,209.8c-0.1,0.5-0.3,0.9-0.7,1.2c-0.4,0.4-0.9,0.6-1.5,0.6H280c-0.4,0-0.8-0.1-1-0.4
						c-0.4-0.3-0.6-0.9-0.5-1.5c0,0,5.2-1.6,5.8-1.6c0.6,0,3.9,0,3.9,0L293.3,209.8z"/>
					<g>
						<g>
							<path class="st24" d="M294.5,199.5l0,0.2c-0.1,0.6-0.6,1-1.2,1h-11.7c-0.3,0-0.6-0.1-0.8-0.3c-0.2-0.2-0.3-0.5-0.2-0.9h3.1
								c1-1.9,2.8-3.2,4.6-3.2c1.8,0,3.2,1.3,3.6,3.2H294.5z"/>
							<path class="st24" d="M283,200.8c-0.1,0.4-0.2,0.7-0.3,1.1c-0.3,2,0.3,3.8,1.5,4.7c0.6,0.5,1.4,0.8,2.2,0.8
								c0.8,0,1.5-0.2,2.2-0.6c1.6-0.9,2.9-2.8,3.2-4.9c0.1-0.4,0.1-0.8,0.1-1.1H283z M289.2,202.7l-2-0.9l-2,0.9l-1.1-1.4l3.1,0.5
								l3.1-0.5L289.2,202.7z"/>
						</g>
					</g>
				</g>
				<g>
					<path class="st6" d="M269.8,185.2c-0.1,0.1-0.2,0.2-0.2,0.3c0.2-0.1,0.3-0.3,0.5-0.4C269.9,185.1,269.8,185.1,269.8,185.2z"/>
					<path class="st6" d="M281.3,178.2c-11.7,0-21.8,9.5-22.6,21.2c-0.6,9.1,4.6,16.8,12.4,19.8c0,0,0.1,0,0.1,0.1
						c1.2,0.4,2.4,0.8,3.8,1h0c0.4,0.1,0.8,0.1,1.2,0.2c0.7,0.1,1.4,0.1,2.2,0.1c11.7,0,21.8-9.5,22.6-21.1
						C301.8,187.7,293,178.2,281.3,178.2z M261.9,199.4c0.4-5.6,3.3-10.6,7.6-13.9c0.1-0.1,0.1-0.2,0.2-0.3c0.1-0.1,0.2-0.1,0.3-0.1
						c3.2-2.3,7-3.6,11.1-3.6c2.9,0,5.7,0.7,8,2l-9.1,12.7c0.3-0.1,0.5-0.3,0.8-0.5c0.3-0.3,0.8,0.1,0.5,0.4
						c-0.6,0.5-1.2,0.8-1.8,0.9l-11.8,16.5C263.8,210.1,261.5,205.1,261.9,199.4z M297.8,199.4c-0.7,9.9-9.3,17.9-19.2,17.9
						c-3.1,0-5.9-0.8-8.4-2.2l10.5-14.8c-0.2-0.2-0.3-0.5-0.2-0.9h0.9l10.3-14.5C295.8,188.4,298.2,193.6,297.8,199.4z"/>
				</g>
				<g>
					<path class="st6" d="M269.8,185.2c-0.1,0.1-0.2,0.2-0.2,0.3c0.2-0.1,0.3-0.3,0.5-0.4C269.9,185.1,269.8,185.1,269.8,185.2z"/>
					<path class="st11" d="M281.3,178.2c-11.7,0-21.8,9.5-22.6,21.2c-0.6,9.1,4.6,16.8,12.4,19.8c0,0,0.1,0,0.1,0.1
						c1.2,0.4,2.4,0.8,3.8,1h0c0.4,0.1,0.8,0.1,1.2,0.2c0.7,0.1,1.4,0.1,2.2,0.1c11.7,0,21.8-9.5,22.6-21.1
						C301.8,187.7,293,178.2,281.3,178.2z M261.9,199.4c0.4-5.6,3.3-10.6,7.6-13.9c0.1-0.1,0.1-0.2,0.2-0.3c0.1-0.1,0.2-0.1,0.3-0.1
						c3.2-2.3,7-3.6,11.1-3.6c2.9,0,5.7,0.7,8,2l-9.1,12.7c0.3-0.1,0.5-0.3,0.8-0.5c0.3-0.3,0.8,0.1,0.5,0.4
						c-0.6,0.5-1.2,0.8-1.8,0.9l-11.8,16.5C263.8,210.1,261.5,205.1,261.9,199.4z M297.8,199.4c-0.7,9.9-9.3,17.9-19.2,17.9
						c-3.1,0-5.9-0.8-8.4-2.2l10.5-14.8c-0.2-0.2-0.3-0.5-0.2-0.9h0.9l10.3-14.5C295.8,188.4,298.2,193.6,297.8,199.4z"/>
				</g>
			</g>
			<path class="st6" d="M276.6,218l-6.1,8.5l1-9.8C273.1,217.4,274.8,217.9,276.6,218z"/>
			<path class="st11" d="M276.6,218l-6.1,8.5l1-9.8C273.1,217.4,274.8,217.9,276.6,218z"/>
		</g>
		<polygon class="st1" points="288.2,201.7 288.2,201.7 288.1,201.7 288.2,201.7 		"/>
	</g>
</g>
</svg>
