<svg width="315" height="54.746" fill="none" version="1.1" viewBox="0 0 315 54.746" xmlns="http://www.w3.org/2000/svg">
 <path d="m45.587 1.7597h-36.428c-4.0866 0-7.3994 3.3128-7.3994 7.3994v36.428c0 4.0866 3.3128 7.3994 7.3994 7.3994h36.428c4.0866 0 7.3994-3.3128 7.3994-7.3994v-36.428c0-4.0866-3.3128-7.3994-7.3994-7.3994z" fill="url(#paint0_linear_492_63)"/>
 <g clip-rule="evenodd" fill-rule="evenodd">
  <path d="m27.74 49.902c-2.1391-0.0181-4.1424-0.868-5.6418-2.3919-1.4975-1.5212-2.3123-3.5349-2.2969-5.6688v-29.056c0.0185-2.1272 0.8597-4.1238 2.3699-5.6207 1.5089-1.4961 3.511-2.321 5.6362-2.321 0.0232 0 0.0461 0 0.0704 8e-4 2.137 0.0181 4.1401 0.86855 5.6397 2.394 1.4979 1.5239 2.3139 3.5385 2.2981 5.6749v29.055c-0.0177 2.1254-0.8605 4.1202-2.3729 5.6167-1.5106 1.4935-3.5108 2.3166-5.6335 2.3166z" fill="#281536"/>
  <path d="m33.602 12.519c0 3.2356-2.6295 5.8598-5.8643 5.8598-3.2404 0-5.8642-2.6242-5.8642-5.8598 0-3.2416 2.6238-5.8668 5.8642-5.8668 3.2348 0 5.8643 2.6252 5.8643 5.8668z" fill="#e22e2d"/>
  <path d="m33.602 27.375c0 3.2343-2.6295 5.8567-5.8643 5.8567-3.2404 0-5.8642-2.6224-5.8642-5.8567 0-3.2435 2.6238-5.8669 5.8642-5.8669 3.2348 0 5.8643 2.6234 5.8643 5.8669z" fill="#f8ab41"/>
  <path d="m33.674 42.226c0 3.237-2.6295 5.8686-5.8651 5.8686-3.2409 0-5.8637-2.6316-5.8637-5.8686 0-3.2426 2.6228-5.863 5.8637-5.863 3.2356 0 5.8651 2.6204 5.8651 5.863z" fill="#41ad4c"/>
 </g>
 <g fill="#281536">
  <path d="m45.587 54.746h-36.428c-5.0503 0-9.1592-4.1088-9.1592-9.1591v-36.428c0-5.0503 4.1089-9.1592 9.1592-9.1592h36.428c5.0503 0 9.1591 4.1089 9.1591 9.1592v36.428c0 5.0503-4.1088 9.1591-9.1591 9.1591zm-36.428-52.987c-4.0798 0-7.3994 3.3196-7.3994 7.3994v36.428c0 4.0797 3.3197 7.3994 7.3994 7.3994h36.428c4.0797 0 7.3994-3.3197 7.3994-7.3994v-36.428c0-4.0798-3.3197-7.3994-7.3994-7.3994z"/>
  <path d="m305.53 14.04h3.44c0.72 0 1.26-0.16 1.62-0.48s0.54-0.84 0.54-1.56c0-0.6934-0.18-1.1934-0.54-1.5-0.36-0.32-0.9-0.48-1.62-0.48h-3.44zm-3.14-6.46h7.7c0.64 0 1.214 0.10666 1.72 0.32 0.52 0.2 0.96 0.48 1.32 0.84 0.374 0.36 0.654 0.78 0.84 1.26 0.2 0.46663 0.3 0.97333 0.3 1.52 0 0.84-0.18 1.5666-0.54 2.18-0.346 0.6133-0.92 1.08-1.72 1.4v0.04c0.387 0.1066 0.707 0.2733 0.96 0.5 0.254 0.2133 0.46 0.4733 0.62 0.78 0.16 0.2933 0.274 0.62 0.34 0.98 0.08 0.36 0.134 0.72 0.16 1.08 0.014 0.2266 0.027 0.4933 0.04 0.8 0.014 0.3066 0.034 0.62 0.06 0.94 0.04 0.32 0.094 0.6266 0.16 0.92 0.08 0.28 0.194 0.52 0.34 0.72h-3.14c-0.173-0.4534-0.28-0.9934-0.32-1.62-0.04-0.6267-0.1-1.2267-0.18-1.8-0.106-0.7467-0.333-1.2934-0.68-1.64-0.346-0.3467-0.913-0.52-1.7-0.52h-3.14v5.58h-3.14z"/>
  <path d="m288.74 14.78c0 0.6 0.067 1.1866 0.2 1.76 0.147 0.56 0.373 1.0666 0.68 1.52 0.307 0.4533 0.707 0.82 1.2 1.1 0.493 0.2666 1.093 0.4 1.8 0.4s1.307-0.1334 1.8-0.4c0.493-0.28 0.893-0.6467 1.2-1.1 0.307-0.4534 0.527-0.96 0.66-1.52 0.147-0.5734 0.22-1.16 0.22-1.76 0-0.6267-0.073-1.2334-0.22-1.82-0.133-0.5867-0.353-1.1067-0.66-1.56-0.307-0.4667-0.707-0.8334-1.2-1.1-0.493-0.28-1.093-0.42003-1.8-0.42003s-1.307 0.14003-1.8 0.42003c-0.493 0.2666-0.893 0.6333-1.2 1.1-0.307 0.4533-0.533 0.9733-0.68 1.56-0.133 0.5866-0.2 1.1933-0.2 1.82zm-3.14 0c0-1.0667 0.16-2.0534 0.48-2.96 0.32-0.92 0.78-1.72 1.38-2.4 0.6-0.68 1.333-1.2133 2.2-1.6 0.88-0.38667 1.867-0.58 2.96-0.58 1.107 0 2.093 0.19333 2.96 0.58s1.6 0.92 2.2 1.6c0.6 0.68003 1.06 1.48 1.38 2.4 0.32 0.9066 0.48 1.8933 0.48 2.96 0 1.04-0.16 2.0133-0.48 2.92-0.32 0.8933-0.78 1.6733-1.38 2.34-0.6 0.6666-1.333 1.1933-2.2 1.58-0.867 0.3733-1.853 0.56-2.96 0.56-1.093 0-2.08-0.1867-2.96-0.56-0.867-0.3867-1.6-0.9134-2.2-1.58-0.6-0.6667-1.06-1.4467-1.38-2.34-0.32-0.9067-0.48-1.88-0.48-2.92z"/>
  <path d="m276.56 10.22h-4.28v-2.64h11.7v2.64h-4.28v11.64h-3.14z"/>
  <path d="m267.49 12.38c-0.053-0.36-0.173-0.6867-0.36-0.98-0.186-0.3067-0.42-0.5734-0.7-0.8-0.28-0.2267-0.6-0.4-0.96-0.52-0.346-0.13336-0.713-0.20003-1.1-0.20003-0.706 0-1.306 0.14003-1.8 0.42003-0.493 0.2666-0.893 0.6333-1.2 1.1-0.306 0.4533-0.533 0.9733-0.68 1.56-0.133 0.5866-0.2 1.1933-0.2 1.82 0 0.6 0.067 1.1866 0.2 1.76 0.147 0.56 0.374 1.0666 0.68 1.52 0.307 0.4533 0.707 0.82 1.2 1.1 0.494 0.2666 1.094 0.4 1.8 0.4 0.96 0 1.707-0.2934 2.24-0.88 0.547-0.5867 0.88-1.36 1-2.32h3.04c-0.08 0.8933-0.286 1.7-0.62 2.42-0.333 0.72-0.773 1.3333-1.32 1.84-0.546 0.5066-1.186 0.8933-1.92 1.16-0.733 0.2666-1.54 0.4-2.42 0.4-1.093 0-2.08-0.1867-2.96-0.56-0.866-0.3867-1.6-0.9134-2.2-1.58-0.6-0.6667-1.06-1.4467-1.38-2.34-0.32-0.9067-0.48-1.88-0.48-2.92 0-1.0667 0.16-2.0534 0.48-2.96 0.32-0.92 0.78-1.72 1.38-2.4 0.6-0.68 1.334-1.2133 2.2-1.6 0.88-0.38667 1.867-0.58 2.96-0.58 0.787 0 1.527 0.11333 2.22 0.34 0.707 0.22667 1.334 0.56 1.88 1 0.56 0.42667 1.02 0.96 1.38 1.6 0.36 0.64 0.587 1.3733 0.68 2.2z"/>
  <path d="m244.41 7.5795h10.68v2.64h-7.54v3.06h6.92v2.44h-6.92v3.5h7.7v2.64h-10.84z"/>
  <path d="m234.74 10.22h-4.28v-2.64h11.7v2.64h-4.28v11.64h-3.14z"/>
  <path d="m217.93 14.78c0 0.6 0.067 1.1866 0.2 1.76 0.147 0.56 0.374 1.0666 0.68 1.52 0.307 0.4533 0.707 0.82 1.2 1.1 0.494 0.2666 1.094 0.4 1.8 0.4 0.707 0 1.307-0.1334 1.8-0.4 0.494-0.28 0.894-0.6467 1.2-1.1 0.307-0.4534 0.527-0.96 0.66-1.52 0.147-0.5734 0.22-1.16 0.22-1.76 0-0.6267-0.073-1.2334-0.22-1.82-0.133-0.5867-0.353-1.1067-0.66-1.56-0.306-0.4667-0.706-0.8334-1.2-1.1-0.493-0.28-1.093-0.42003-1.8-0.42003-0.706 0-1.306 0.14003-1.8 0.42003-0.493 0.2666-0.893 0.6333-1.2 1.1-0.306 0.4533-0.533 0.9733-0.68 1.56-0.133 0.5866-0.2 1.1933-0.2 1.82zm-3.14 0c0-1.0667 0.16-2.0534 0.48-2.96 0.32-0.92 0.78-1.72 1.38-2.4 0.6-0.68 1.334-1.2133 2.2-1.6 0.88-0.38667 1.867-0.58 2.96-0.58 1.107 0 2.094 0.19333 2.96 0.58 0.867 0.38667 1.6 0.92 2.2 1.6 0.6 0.68003 1.06 1.48 1.38 2.4 0.32 0.9066 0.48 1.8933 0.48 2.96 0 1.04-0.16 2.0133-0.48 2.92-0.32 0.8933-0.78 1.6733-1.38 2.34-0.6 0.6666-1.333 1.1933-2.2 1.58-0.866 0.3733-1.853 0.56-2.96 0.56-1.093 0-2.08-0.1867-2.96-0.56-0.866-0.3867-1.6-0.9134-2.2-1.58-0.6-0.6667-1.06-1.4467-1.38-2.34-0.32-0.9067-0.48-1.88-0.48-2.92z"/>
  <path d="m203.52 14.04h3.44c0.72 0 1.26-0.16 1.62-0.48s0.54-0.84 0.54-1.56c0-0.6934-0.18-1.1934-0.54-1.5-0.36-0.32-0.9-0.48-1.62-0.48h-3.44zm-3.14-6.46h7.7c0.64 0 1.213 0.10666 1.72 0.32 0.52 0.2 0.96 0.48 1.32 0.84 0.373 0.36 0.653 0.78 0.84 1.26 0.2 0.46663 0.3 0.97333 0.3 1.52 0 0.84-0.18 1.5666-0.54 2.18-0.347 0.6133-0.92 1.08-1.72 1.4v0.04c0.387 0.1066 0.707 0.2733 0.96 0.5 0.253 0.2133 0.46 0.4733 0.62 0.78 0.16 0.2933 0.273 0.62 0.34 0.98 0.08 0.36 0.133 0.72 0.16 1.08 0.013 0.2266 0.027 0.4933 0.04 0.8 0.013 0.3066 0.033 0.62 0.06 0.94 0.04 0.32 0.093 0.6266 0.16 0.92 0.08 0.28 0.193 0.52 0.34 0.72h-3.14c-0.173-0.4534-0.28-0.9934-0.32-1.62-0.04-0.6267-0.1-1.2267-0.18-1.8-0.107-0.7467-0.333-1.2934-0.68-1.64-0.347-0.3467-0.913-0.52-1.7-0.52h-3.14v5.58h-3.14z"/>
  <path d="m189.58 14.3h2.44c0.36 0 0.707-0.0267 1.04-0.08 0.334-0.0534 0.627-0.1534 0.88-0.3 0.254-0.16 0.454-0.38 0.6-0.66 0.16-0.28 0.24-0.6467 0.24-1.1 0-0.4534-0.08-0.82-0.24-1.1-0.146-0.28-0.346-0.4934-0.6-0.64-0.253-0.16-0.546-0.2667-0.88-0.32-0.333-0.0534-0.68-0.08-1.04-0.08h-2.44zm-3.14-6.72h6.44c0.894 0 1.654 0.13333 2.28 0.4 0.627 0.25333 1.134 0.59333 1.52 1.02 0.4 0.42667 0.687 0.91333 0.86 1.46 0.187 0.5466 0.28 1.1133 0.28 1.7 0 0.5733-0.093 1.14-0.28 1.7-0.173 0.5466-0.46 1.0333-0.86 1.46-0.386 0.4266-0.893 0.7733-1.52 1.04-0.626 0.2533-1.386 0.38-2.28 0.38h-3.3v5.12h-3.14z"/>
  <path d="m170.61 10.22h-4.28v-2.64h11.7v2.64h-4.28v11.64h-3.14z"/>
  <path d="m152.02 7.5795h3.12l5.96 9.58h0.04v-9.58h2.94v14.28h-3.14l-5.94-9.56h-0.04v9.56h-2.94z"/>
  <path d="m145.52 7.5795h3.14v14.28h-3.14z"/>
  <path d="m131.88 14.78c0 0.6 0.067 1.1866 0.2 1.76 0.147 0.56 0.373 1.0666 0.68 1.52 0.307 0.4533 0.707 0.82 1.2 1.1 0.493 0.2666 1.093 0.4 1.8 0.4s1.307-0.1334 1.8-0.4c0.493-0.28 0.893-0.6467 1.2-1.1 0.307-0.4534 0.527-0.96 0.66-1.52 0.147-0.5734 0.22-1.16 0.22-1.76 0-0.6267-0.073-1.2334-0.22-1.82-0.133-0.5867-0.353-1.1067-0.66-1.56-0.307-0.4667-0.707-0.8334-1.2-1.1-0.493-0.28-1.093-0.42003-1.8-0.42003s-1.307 0.14003-1.8 0.42003c-0.493 0.2666-0.893 0.6333-1.2 1.1-0.307 0.4533-0.533 0.9733-0.68 1.56-0.133 0.5866-0.2 1.1933-0.2 1.82zm-3.14 0c0-1.0667 0.16-2.0534 0.48-2.96 0.32-0.92 0.78-1.72 1.38-2.4 0.6-0.68 1.333-1.2133 2.2-1.6 0.88-0.38667 1.867-0.58 2.96-0.58 1.107 0 2.093 0.19333 2.96 0.58s1.6 0.92 2.2 1.6c0.6 0.68003 1.06 1.48 1.38 2.4 0.32 0.9066 0.48 1.8933 0.48 2.96 0 1.04-0.16 2.0133-0.48 2.92-0.32 0.8933-0.78 1.6733-1.38 2.34-0.6 0.6666-1.333 1.1933-2.2 1.58-0.867 0.3733-1.853 0.56-2.96 0.56-1.093 0-2.08-0.1867-2.96-0.56-0.867-0.3867-1.6-0.9134-2.2-1.58-0.6-0.6667-1.06-1.4467-1.38-2.34-0.32-0.9067-0.48-1.88-0.48-2.92z"/>
  <path d="m118.56 14.3h2.44c0.36 0 0.707-0.0267 1.04-0.08 0.334-0.0534 0.627-0.1534 0.88-0.3 0.254-0.16 0.454-0.38 0.6-0.66 0.16-0.28 0.24-0.6467 0.24-1.1 0-0.4534-0.08-0.82-0.24-1.1-0.146-0.28-0.346-0.4934-0.6-0.64-0.253-0.16-0.546-0.2667-0.88-0.32-0.333-0.0534-0.68-0.08-1.04-0.08h-2.44zm-3.14-6.72h6.44c0.894 0 1.654 0.13333 2.28 0.4 0.627 0.25333 1.134 0.59333 1.52 1.02 0.4 0.42667 0.687 0.91333 0.86 1.46 0.187 0.5466 0.28 1.1133 0.28 1.7 0 0.5733-0.093 1.14-0.28 1.7-0.173 0.5466-0.46 1.0333-0.86 1.46-0.386 0.4266-0.893 0.7733-1.52 1.04-0.626 0.2533-1.386 0.38-2.28 0.38h-3.3v5.12h-3.14z"/>
  <path d="m103.13 19.22h2.8c0.453 0 0.893-0.0734 1.32-0.22 0.427-0.1467 0.807-0.3867 1.14-0.72 0.333-0.3467 0.6-0.7934 0.8-1.34 0.2-0.5467 0.3-1.2134 0.3-2 0-0.72-0.073-1.3667-0.22-1.94-0.133-0.5867-0.36-1.0867-0.68-1.5-0.32-0.4134-0.747-0.7267-1.28-0.94-0.52-0.2267-1.167-0.34-1.94-0.34h-2.24zm-3.14-11.64h6.16c0.92 0 1.773 0.14666 2.56 0.44 0.8 0.29333 1.487 0.73333 2.06 1.32 0.587 0.58666 1.04 1.32 1.36 2.2 0.333 0.88 0.5 1.9133 0.5 3.1 0 1.04-0.133 2-0.4 2.88s-0.673 1.64-1.22 2.28c-0.533 0.64-1.207 1.1466-2.02 1.52-0.8 0.36-1.747 0.54-2.84 0.54h-6.16z"/>
  <path d="m84.569 7.5795h3.1201l5.9599 9.58h0.0401v-9.58h2.9399v14.28h-3.14l-5.9399-9.56h-0.04v9.56h-2.9401z"/>
  <path d="m71 7.5795h10.68v2.64h-7.54v3.06h6.92v2.44h-6.92v3.5h7.7v2.64h-10.84z"/>
 </g>
 <g fill="#d22730">
  <path d="m293.41 29v3.102h3.847v-3.102zm0 4.1648v16h3.847v-16z"/>
  <path d="m289.86 33.198c-0.74 0-1.428 0.0914-2.062 0.2645-0.998 0.2838-1.843 0.731-2.545 1.3562-0.701 0.6252-1.241 1.3899-1.618 2.2941-0.358 0.9089-0.544 1.9189-0.544 3.025v8.9933h3.957v-8.9933c0-1.111 0.382-1.9526 1.141-2.5393 0.783-0.606 1.804-0.7983 3.06-0.5771v-3.7464c-0.482-0.0578-0.945-0.0866-1.389-0.0866z"/>
  <path d="m315 33.213h-4.912l-11.069 15.904h4.888z"/>
  <path d="m310.11 49.117h4.888l-11.069-15.904h-4.912z"/>
  <path d="m248.74 29.115v13.447c0 1.0676 0.153 2.0343 0.449 2.9 0.3 0.8464 0.744 1.5582 1.327 2.1401 0.582 0.5867 1.298 1.0051 2.157 1.2696 0.859 0.2597 1.862 0.3319 2.998 0.2068v-3.6165c-0.998 0.0577-1.747-0.1347-2.248-0.5772-0.483-0.4424-0.721-1.2071-0.721-2.294v-5.8192h2.969v-3.5685h-2.969v-4.0879z"/>
  <path d="m222.96 33.184c-1.06 0-2.019 0.1875-2.879 0.5482-0.84 0.3463-1.565 0.8272-2.181 1.4524-0.601 0.6252-1.074 1.361-1.413 2.2075-0.32 0.8464-0.482 1.7602-0.482 2.7461v8.9981h3.962v-9.0943c0-0.8849 0.277-1.5967 0.84-2.1401 0.559-0.5483 1.275-0.8176 2.158-0.8176s1.183 0.1154 1.56 0.3366c0.378 0.2213 0.669 0.4954 0.864 0.8176 0.201 0.3222 0.335 0.6589 0.392 1.0003 0.057 0.3223 0.095 0.5868 0.095 0.808v9.0943h3.957v-8.9981c0-1.0292-0.167-1.967-0.486-2.8134-0.301-0.8465-0.745-1.5679-1.346-2.169-0.578-0.6252-1.308-1.1062-2.163-1.4524-0.84-0.3415-1.799-0.5194-2.878-0.5194z"/>
  <path d="m239.48 33.141c-1.079 0-2.071 0.2308-3.012 0.6637-0.94 0.4136-1.766 0.981-2.472 1.7072-0.707 0.7118-1.265 1.5727-1.676 2.5586-0.391 0.9666-0.582 1.9958-0.582 3.102 0 1.1061 0.196 2.1305 0.582 3.1019 0.411 0.9715 0.974 1.8276 1.676 2.5586 0.706 0.7118 1.527 1.2744 2.472 1.688 0.941 0.4136 1.938 0.6156 3.017 0.6156 1.9 0 3.489-0.4665 4.74-1.4187 1.275-0.9667 2.139-2.2363 2.587-3.7993h-4.138c-0.334 0.6155-0.793 1.0724-1.385 1.3706-0.587 0.2789-1.193 0.4136-1.828 0.4136s-1.274-0.1347-1.828-0.4136c-0.549-0.2982-1.012-0.7021-1.403-1.2167l10.697-4.5256c-0.177-1.0292-0.501-1.9381-0.969-2.7268-0.454-0.7887-1.007-1.4476-1.676-1.9814-0.649-0.5531-1.389-0.9619-2.215-1.2408-0.821-0.2934-1.685-0.4569-2.587-0.4569zm-0.019 3.4482c0.63 0 1.203 0.1154 1.709 0.3511 0.511 0.2405 0.936 0.5723 1.294 1.0051l-7.108 3.0299c0.019-0.6541 0.134-1.2504 0.349-1.7794 0.233-0.5339 0.525-0.9908 0.878-1.3707 0.372-0.3943 0.797-0.6877 1.289-0.9041 0.491-0.2165 1.026-0.3319 1.594-0.3319z"/>
  <path d="m257.53 33.194v8.9789c0 1.0244 0.144 1.967 0.449 2.8327 0.32 0.8464 0.778 1.5822 1.351 2.2074 0.601 0.606 1.317 1.0773 2.158 1.4236 0.84 0.3414 1.794 0.5049 2.878 0.5049s1.947-0.1923 2.788-0.5723c0.84-0.4039 1.546-0.9378 2.124-1.6207 0.582 0.6829 1.279 1.2168 2.1 1.6207 0.84 0.38 1.79 0.5723 2.85 0.5723 1.059 0 1.99-0.1635 2.849-0.5049 0.86-0.3655 1.585-0.8561 2.182-1.4765 0.62-0.6252 1.093-1.361 1.413-2.2074 0.339-0.8657 0.515-1.7891 0.515-2.775v-8.9837h-3.966v9.0943c0 0.8849-0.277 1.5967-0.84 2.1402-0.559 0.5434-1.275 0.8127-2.153 0.8127-0.879 0-1.184-0.1058-1.561-0.327-0.382-0.2212-0.668-0.4906-0.864-0.8176-0.201-0.3222-0.334-0.6492-0.396-0.9715-0.058-0.3414-0.086-0.6204-0.086-0.8464v-9.0847h-3.957v9.0943c0 0.8849-0.292 1.5967-0.85 2.1402-0.539 0.5434-1.255 0.8127-2.148 0.8127s-1.146-0.1058-1.528-0.327c-0.381-0.2212-0.677-0.4906-0.878-0.8176-0.2-0.3222-0.334-0.6492-0.396-0.9715-0.057-0.3414-0.081-0.6204-0.081-0.8464v-9.0847h-3.957z"/>
 </g>
 <path d="m82.783 34.781v14.219h-2.6953l-6.0449-9.8633v9.8633h-2.6856v-14.219h2.6856l6.0644 9.8731v-9.8731zm15.048 6.7481v0.7324c0 1.0742-0.1433 2.041-0.4297 2.9004-0.2865 0.8529-0.6934 1.5788-1.2207 2.1777-0.5274 0.599-1.1556 1.058-1.8848 1.377s-1.5397 0.4785-2.4316 0.4785c-0.879 0-1.6862-0.1595-2.4219-0.4785-0.7292-0.319-1.3607-0.778-1.8946-1.377-0.5338-0.5989-0.9472-1.3248-1.2402-2.1777-0.293-0.8594-0.4394-1.8262-0.4394-2.9004v-0.7324c0-1.0807 0.1464-2.0475 0.4394-2.9004s0.7031-1.5788 1.2305-2.1777c0.5273-0.6055 1.1556-1.0677 1.8847-1.3867 0.7357-0.3191 1.543-0.4786 2.4219-0.4786 0.8919 0 1.7025 0.1595 2.4317 0.4786 0.7291 0.319 1.3574 0.7812 1.8847 1.3867 0.5339 0.5989 0.944 1.3248 1.2305 2.1777 0.293 0.8529 0.4395 1.8197 0.4395 2.9004zm-2.7149 0.7324v-0.7519c0-0.7748-0.0716-1.4551-0.2148-2.041-0.1433-0.5925-0.3549-1.0905-0.6348-1.4942-0.28-0.4036-0.625-0.7064-1.0352-0.9082-0.4101-0.2083-0.8724-0.3125-1.3867-0.3125-0.5208 0-0.9831 0.1042-1.3867 0.3125-0.3971 0.2018-0.7357 0.5046-1.0156 0.9082-0.28 0.4037-0.4948 0.9017-0.6446 1.4942-0.1432 0.5859-0.2148 1.2662-0.2148 2.041v0.7519c0 0.7682 0.0716 1.4486 0.2148 2.041 0.1498 0.5925 0.3646 1.0938 0.6446 1.5039 0.2864 0.4037 0.6315 0.7097 1.0351 0.918 0.4037 0.2083 0.8659 0.3125 1.3868 0.3125 0.5208 0 0.983-0.1042 1.3867-0.3125 0.4036-0.2083 0.7422-0.5143 1.0156-0.918 0.2799-0.4101 0.4915-0.9114 0.6348-1.5039 0.1432-0.5924 0.2148-1.2728 0.2148-2.041zm9.2866 4.0137 2.832-11.494h1.533l0.098 2.4219-3.028 11.797h-1.621zm-1.787-11.494 2.324 11.455v2.7637h-1.768l-3.2224-14.219zm9.189 11.406 2.285-11.406h2.676l-3.223 14.219h-1.767zm-2.305-11.406 2.832 11.533 0.166 2.6855h-1.621l-3.017-11.807 0.117-2.4122zm21.014 9.0333h-3.662v-2.1094h3.662c0.599 0 1.084-0.0977 1.456-0.293 0.377-0.2018 0.654-0.4753 0.83-0.8203 0.175-0.3516 0.263-0.752 0.263-1.2012 0-0.4362-0.088-0.8431-0.263-1.2207-0.176-0.3776-0.453-0.6836-0.83-0.9179-0.372-0.2344-0.857-0.3516-1.456-0.3516h-2.783v12.1h-2.685v-14.219h5.468c1.107 0 2.051 0.1986 2.832 0.5958 0.788 0.3906 1.387 0.9342 1.797 1.6308 0.417 0.6901 0.625 1.4779 0.625 2.3633 0 0.918-0.208 1.709-0.625 2.373-0.41 0.6641-1.009 1.1752-1.797 1.5332-0.781 0.3581-1.725 0.5372-2.832 0.5372zm12.275-6.875-4.053 12.06h-2.841l5.312-14.219h1.816zm3.389 12.06-4.073-12.06-0.244-2.1583h1.827l5.341 14.219zm-0.186-5.2832v2.1191h-7.627v-2.1191zm5.302-8.9356h5.166c1.081 0 2.009 0.1628 2.783 0.4883 0.775 0.3256 1.371 0.8073 1.787 1.4453 0.417 0.6381 0.625 1.4226 0.625 2.3536 0 0.7356-0.13 1.3737-0.39 1.914-0.261 0.5404-0.628 0.9929-1.104 1.3574-0.468 0.3646-1.022 0.6511-1.66 0.8594l-0.84 0.4297h-4.56l-0.02-2.1191h3.408c0.554 0 1.013-0.0977 1.377-0.293 0.365-0.1953 0.638-0.4655 0.821-0.8106 0.189-0.345 0.283-0.7389 0.283-1.1816 0-0.4753-0.091-0.8854-0.274-1.2305-0.182-0.3515-0.458-0.6217-0.83-0.8105-0.371-0.1888-0.839-0.2832-1.406-0.2832h-2.48v12.1h-2.686zm8.027 14.219-3.291-6.3672 2.842-0.0098 3.33 6.2403v0.1367zm10.966-14.219v14.219h-2.675v-14.219zm4.415 0v2.1192h-11.456v-2.1192zm19.393 6.7481v0.7324c0 1.0742-0.144 2.041-0.43 2.9004-0.287 0.8529-0.694 1.5788-1.221 2.1777-0.527 0.599-1.155 1.058-1.885 1.377-0.729 0.319-1.539 0.4785-2.431 0.4785-0.879 0-1.686-0.1595-2.422-0.4785-0.729-0.319-1.361-0.778-1.895-1.377-0.534-0.5989-0.947-1.3248-1.24-2.1777-0.293-0.8594-0.439-1.8262-0.439-2.9004v-0.7324c0-1.0807 0.146-2.0475 0.439-2.9004s0.703-1.5788 1.231-2.1777c0.527-0.6055 1.155-1.0677 1.884-1.3867 0.736-0.3191 1.543-0.4786 2.422-0.4786 0.892 0 1.703 0.1595 2.432 0.4786 0.729 0.319 1.357 0.7812 1.885 1.3867 0.533 0.5989 0.944 1.3248 1.23 2.1777 0.293 0.8529 0.44 1.8197 0.44 2.9004zm-2.715 0.7324v-0.7519c0-0.7748-0.072-1.4551-0.215-2.041-0.143-0.5925-0.355-1.0905-0.635-1.4942-0.28-0.4036-0.625-0.7064-1.035-0.9082-0.41-0.2083-0.872-0.3125-1.387-0.3125-0.521 0-0.983 0.1042-1.387 0.3125-0.397 0.2018-0.735 0.5046-1.015 0.9082-0.28 0.4037-0.495 0.9017-0.645 1.4942-0.143 0.5859-0.215 1.2662-0.215 2.041v0.7519c0 0.7682 0.072 1.4486 0.215 2.041 0.15 0.5925 0.365 1.0938 0.645 1.5039 0.286 0.4037 0.631 0.7097 1.035 0.918s0.866 0.3125 1.387 0.3125 0.983-0.1042 1.386-0.3125c0.404-0.2083 0.743-0.5143 1.016-0.918 0.28-0.4101 0.492-0.9114 0.635-1.5039 0.143-0.5924 0.215-1.2728 0.215-2.041zm8.475-7.4805v14.219h-2.685v-14.219zm5.733 6.1426v2.1192h-6.436v-2.1192zm0.752-6.1426v2.1192h-7.188v-2.1192z" fill="#6f727b"/>
 <defs>
  <linearGradient id="paint0_linear_492_63" x1="27.373" x2="27.373" y1="1.7597" y2="52.987" gradientUnits="userSpaceOnUse">
   <stop stop-color="#6E5878" offset="0"/>
   <stop stop-color="#431B42" offset="1"/>
  </linearGradient>
 </defs>
</svg>
