<svg id="Layer_1" data-name="Layer 1" xmlns="http://www.w3.org/2000/svg" viewBox="0 0 169.87 85.04"><defs><style>.cls-1{fill:#5a5a5c;}.cls-2{fill:#036a80;}.cls-3{fill:#cf5a27;}</style></defs><path class="cls-1" d="M60.87,80.13h2.27l.22.59H60.65l.22-.59Zm.26.19-.06.14-.76,1.8h-.7L62,76.86l2.38,5.4h-.7l-.75-1.76-.06-.15L62,78.28l-.87,2Z"/><path class="cls-1" d="M69.67,82.26H69l.63-5.41,2,3.74,2-3.74.63,5.41h-.63l-.38-3.48-1.66,3-1.67-3Z"/><path class="cls-1" d="M76.68,81.67h2.58v.59H76.68Zm0-2.5h2.44v.59H76.68Zm0-2h2.58v.59H76.68ZM77,82.27h-.62V77.12H77Z"/><path class="cls-1" d="M81.77,82.26h-.63l.63-5.41,2,3.74,2-3.74.63,5.41h-.63l-.38-3.48-1.66,3-1.67-3Z"/><path class="cls-1" d="M88.93,79.2h.83a1.14,1.14,0,0,0,.46-.09.74.74,0,0,0,.32-.26.69.69,0,0,0,.12-.41.68.68,0,0,0-.26-.57,1,1,0,0,0-.64-.2h-.7v4h.77a1.34,1.34,0,0,0,.58-.12.81.81,0,0,0,.39-.34,1,1,0,0,0,.06-1,.79.79,0,0,0-.23-.31.92.92,0,0,0-.35-.19,1.65,1.65,0,0,0-.46-.06h-.9v-.35h.9a3,3,0,0,1,.69.08,1.85,1.85,0,0,1,.55.25,1.15,1.15,0,0,1,.37.42,1.31,1.31,0,0,1,.13.61,1.39,1.39,0,0,1-.23.84,1.33,1.33,0,0,1-.62.5,2.28,2.28,0,0,1-.89.17H88.43V77.11h1.32a2,2,0,0,1,.8.14,1.16,1.16,0,0,1,.53.42,1.3,1.3,0,0,1,.19.72,1.06,1.06,0,0,1-.19.62,1.17,1.17,0,0,1-.53.39,2.2,2.2,0,0,1-.8.14h-.83v-.35Z"/><path class="cls-1" d="M93.94,81.67h2.58v.59H93.94Zm0-2.5h2.44v.59H93.94Zm0-2h2.58v.59H93.94Zm.28,5.15H93.6V77.12h.62Z"/><path class="cls-1" d="M100.31,79.72l1.83,2.54h-.77l-1.76-2.54ZM99,77.11h1a1.93,1.93,0,0,1,.88.19,1.64,1.64,0,0,1,.63.53,1.5,1.5,0,0,1,.23.83,1.41,1.41,0,0,1-.23.81A1.5,1.5,0,0,1,101,80a1.93,1.93,0,0,1-.88.19H99v-.55h1a1.37,1.37,0,0,0,.58-.12,1,1,0,0,0,.39-.34.93.93,0,0,0,.14-.54,1,1,0,0,0-.14-.54,1.07,1.07,0,0,0-.39-.34,1.36,1.36,0,0,0-.58-.11H99V77.1Zm.28,5.15H98.7V77.11h.62Z"/><path class="cls-1" d="M107.76,80.72a1.94,1.94,0,0,0,.69.73,2.05,2.05,0,0,0,2,0,1.84,1.84,0,0,0,.68-.73,2.07,2.07,0,0,0,.26-1,2.11,2.11,0,0,0-.26-1,1.88,1.88,0,0,0-.68-.72,1.84,1.84,0,0,0-1-.26,1.87,1.87,0,0,0-1,.26,2,2,0,0,0-.69.72,2.11,2.11,0,0,0-.25,1A2.07,2.07,0,0,0,107.76,80.72ZM107,78.64a2.5,2.5,0,0,1,.55-.84,2.39,2.39,0,0,1,.83-.56,2.52,2.52,0,0,1,1-.2,2.49,2.49,0,0,1,1,.2,2.48,2.48,0,0,1,1.37,1.4,2.75,2.75,0,0,1,.19,1,2.8,2.8,0,0,1-.19,1,2.63,2.63,0,0,1-.54.84,2.48,2.48,0,0,1-.83.56,2.66,2.66,0,0,1-1,.2,2.49,2.49,0,0,1-1-.2,2.54,2.54,0,0,1-1.38-1.4,2.8,2.8,0,0,1-.19-1A3,3,0,0,1,107,78.64Z"/><path class="cls-1" d="M114.34,79.17h2.22v.59h-2.22Zm0-2h2.29v.59h-2.29Zm.28,5.15H114V77.12h.63Z"/><path class="cls-1" d="M122.49,79.2h.83a1.14,1.14,0,0,0,.46-.09.74.74,0,0,0,.32-.26.76.76,0,0,0,.12-.41.68.68,0,0,0-.26-.57,1,1,0,0,0-.64-.2h-.7v4h.77a1.37,1.37,0,0,0,.58-.12.86.86,0,0,0,.39-.34,1.1,1.1,0,0,0,.06-1,.79.79,0,0,0-.23-.31.92.92,0,0,0-.35-.19,1.65,1.65,0,0,0-.46-.06h-.9v-.35h.9a3,3,0,0,1,.69.08,1.85,1.85,0,0,1,.55.25,1.15,1.15,0,0,1,.37.42,1.44,1.44,0,0,1,.13.61,1.46,1.46,0,0,1-.23.84,1.38,1.38,0,0,1-.62.5,2.31,2.31,0,0,1-.89.17H122V77.11h1.32a1.92,1.92,0,0,1,.79.14,1.07,1.07,0,0,1,.53.42,1.23,1.23,0,0,1,.2.72,1,1,0,0,1-.2.62,1.07,1.07,0,0,1-.53.39,2.1,2.1,0,0,1-.79.14h-.83v-.35Z"/><path class="cls-1" d="M131.66,77.11v5.41l-3.88-4.09v3.83h-.62V76.85L131,81V77.11Z"/><path class="cls-1" d="M134.52,77.11h-.62v5.15h.62Z"/><path class="cls-1" d="M142.42,79.65h2.38a3.4,3.4,0,0,1-.16,1,2.69,2.69,0,0,1-.48.86,2.29,2.29,0,0,1-.77.6,2.44,2.44,0,0,1-1,.21,2.7,2.7,0,0,1-1-.19,2.46,2.46,0,0,1-.83-.55,2.65,2.65,0,0,1-.74-1.91,3,3,0,0,1,.19-1,2.77,2.77,0,0,1,.55-.85,2.36,2.36,0,0,1,.83-.55,2.7,2.7,0,0,1,1-.19,3,3,0,0,1,.87.12,2.45,2.45,0,0,1,.72.37,2.23,2.23,0,0,1,.54.6l-.44.41a1.75,1.75,0,0,0-.68-.64,2,2,0,0,0-1-.24,1.91,1.91,0,0,0-1.68,1,2.27,2.27,0,0,0,0,2.11,2,2,0,0,0,.7.72,1.91,1.91,0,0,0,1,.25,2.06,2.06,0,0,0,.68-.11,1.38,1.38,0,0,0,.52-.32,1.51,1.51,0,0,0,.36-.47,1.9,1.9,0,0,0,.21-.56h-1.7v-.61Z"/><path class="cls-1" d="M148.4,79.72l1.83,2.54h-.77l-1.76-2.54Zm-1.27-2.61h1.05a2,2,0,0,1,.89.19,1.61,1.61,0,0,1,.62.53,1.5,1.5,0,0,1,.23.83,1.34,1.34,0,0,1-.23.81,1.42,1.42,0,0,1-.62.54,2,2,0,0,1-.89.19h-1.05v-.55h1.05a1.34,1.34,0,0,0,.58-.12.87.87,0,0,0,.39-.34.93.93,0,0,0,.15-.54,1,1,0,0,0-.15-.54.93.93,0,0,0-.39-.34,1.34,1.34,0,0,0-.58-.11h-1.05V77.1Zm.28,5.15h-.62V77.11h.62Z"/><path class="cls-1" d="M152.57,80.72a1.89,1.89,0,0,0,.7.73,1.92,1.92,0,0,0,1,.26,2,2,0,0,0,1-.26,1.86,1.86,0,0,0,.69-.73,2.07,2.07,0,0,0,.25-1,2.11,2.11,0,0,0-.25-1,2,2,0,0,0-.69-.72,1.84,1.84,0,0,0-1-.26,1.81,1.81,0,0,0-1,.26,1.93,1.93,0,0,0-.7.72,2.22,2.22,0,0,0-.25,1A2.18,2.18,0,0,0,152.57,80.72Zm-.71-2.08a2.63,2.63,0,0,1,.54-.84,2.39,2.39,0,0,1,.83-.56,2.52,2.52,0,0,1,1-.2,2.57,2.57,0,0,1,1,.2,2.72,2.72,0,0,1,.82.56,2.66,2.66,0,0,1,.55.84,2.75,2.75,0,0,1,.19,1,3,3,0,0,1-.19,1,2.66,2.66,0,0,1-.55.84,2.44,2.44,0,0,1-.82.56,2.71,2.71,0,0,1-1,.2,2.52,2.52,0,0,1-1-.2,2.48,2.48,0,0,1-1.37-1.4,2.8,2.8,0,0,1-.2-1A2.75,2.75,0,0,1,151.86,78.64Z"/><path class="cls-1" d="M159.4,77.11v3.46a1.31,1.31,0,0,0,.28.86,1.09,1.09,0,0,0,.84.32,1.07,1.07,0,0,0,.83-.32,1.26,1.26,0,0,0,.29-.86V77.11h.62v3.46a2,2,0,0,1-.12.71,1.71,1.71,0,0,1-.35.56,1.63,1.63,0,0,1-.56.36,1.8,1.8,0,0,1-.71.13,1.85,1.85,0,0,1-.72-.13,1.5,1.5,0,0,1-.55-.36,1.71,1.71,0,0,1-.35-.56,2,2,0,0,1-.12-.71V77.11Z"/><path class="cls-1" d="M164.81,77.11h1.05a2,2,0,0,1,.89.19,1.61,1.61,0,0,1,.62.53,1.5,1.5,0,0,1,.23.83,1.46,1.46,0,0,1-.85,1.35,2,2,0,0,1-.89.19h-1.05v-.59h1.05a1.3,1.3,0,0,0,.81-.24.87.87,0,0,0,.31-.72.85.85,0,0,0-.31-.71,1.3,1.3,0,0,0-.81-.24h-1.05v-.59Zm.28,5.15h-.62V77.11h.62Z"/><path class="cls-2" d="M60.34,71.75v-24h5.07v8.13a5.81,5.81,0,0,1,3.86-1.31,6.93,6.93,0,0,1,5.41,2.11,8.06,8.06,0,0,1,1.91,5.62v9.41H71.52v-8.5a5,5,0,0,0-.75-2.89,2.66,2.66,0,0,0-2.34-1.1,3.91,3.91,0,0,0-3,1.46v11Z"/><path class="cls-2" d="M80.42,54.88h5.07V71.75H80.42Zm4.9-2.4h-4.7A2.84,2.84,0,0,1,80,50.55a3,3,0,0,1,5.18-2.15A2.93,2.93,0,0,1,86,50.55a2.84,2.84,0,0,1-.67,1.93"/><path class="cls-2" d="M99.29,57.34a6.53,6.53,0,0,0-3.14.75,5.45,5.45,0,0,0-2.13,2v6.48a5.43,5.43,0,0,0,2.13,2,6.43,6.43,0,0,0,3.14.76,5.32,5.32,0,0,0,4-1.71,6.5,6.5,0,0,0,0-8.54,5.32,5.32,0,0,0-4-1.71M91.13,71.74v-24H94v8.78a7.39,7.39,0,0,1,5.34-2,8.19,8.19,0,0,1,6.13,2.5,9.12,9.12,0,0,1,0,12.42A8.19,8.19,0,0,1,99.36,72a7.45,7.45,0,0,1-5.34-2v1.69Z"/><path class="cls-2" d="M119.37,69.28a6.54,6.54,0,0,0,3.12-.74,5.59,5.59,0,0,0,2.15-2V60.07a5.51,5.51,0,0,0-2.15-2,6.42,6.42,0,0,0-3.12-.74,5.31,5.31,0,0,0-4.05,1.7,6.53,6.53,0,0,0,0,8.54,5.3,5.3,0,0,0,4.05,1.71m5.27,2.46V70.07a7.64,7.64,0,0,1-5.34,2,8.17,8.17,0,0,1-6.13-2.5,9.15,9.15,0,0,1,0-12.42,8.21,8.21,0,0,1,6.13-2.5,7.6,7.6,0,0,1,5.34,2V54.87h2.89V71.75Z"/><path class="cls-2" d="M132.57,71.74V54.87h2.89v1.92a6.3,6.3,0,0,1,5.2-2.19,6.2,6.2,0,0,1,4.67,1.87,6.85,6.85,0,0,1,1.81,5V71.74h-2.89V61.62a4.3,4.3,0,0,0-1.14-3.09,4.06,4.06,0,0,0-3.09-1.2,4.36,4.36,0,0,0-4.56,3.51v10.9Z"/><path class="cls-2" d="M152,71.74v-24h2.89V62.5l7.42-7.63h3.8l-7.79,7.93,8.56,8.94H163l-8.09-8.43v8.43Z"/><path class="cls-3" d="M21.21,12.06a9.47,9.47,0,1,1-9.48-9.52,9.49,9.49,0,0,1,9.48,9.52"/><path class="cls-3" d="M21.21,37.25a9.47,9.47,0,1,1-9.48-9.52,9.49,9.49,0,0,1,9.48,9.52"/><path class="cls-3" d="M46.92,37.25a9.47,9.47,0,1,1-9.47-9.52A9.49,9.49,0,0,1,46.92,37.25Z"/><path class="cls-2" d="M46.92,12a9.47,9.47,0,1,1-9.47-9.52A9.49,9.49,0,0,1,46.92,12"/><path class="cls-3" d="M46.92,62.47A9.47,9.47,0,1,1,37.45,53,9.49,9.49,0,0,1,46.92,62.47Z"/><path class="cls-3" d="M21.21,62.47A9.47,9.47,0,1,1,11.73,53a9.49,9.49,0,0,1,9.48,9.52"/></svg>