<svg xmlns="http://www.w3.org/2000/svg" height="512" viewBox="0 0 64 64" width="512"><g id="Global"><g><path d="m64 26c0 2.42-.33 4.77-.97 7h-10.16c-1.18 0-2.31.53-3.07 1.44l-2.87 3.45c-.6.72-.93 1.62-.93 2.56v10.29c-2.52.82-5.21 1.26-8 1.26-14.34 0-26-11.66-26-26 0-11.18 7.08-20.73 17-24.39v7.18c0 1.37.72 2.64 1.9 3.35l1.2.72c1.18.71 1.9 1.98 1.9 3.35v5.88c0 2.16 1.75 3.91 3.91 3.91 1.31 0 2.53-.65 3.25-1.74l2.67-4.01c1.2-1.79 3.63-2.28 5.42-1.08l.8.53c1.24.83 2.78 1.09 4.23.73l8.48-2.36c.81 2.5 1.24 5.17 1.24 7.93z" fill="#aad7fd"></path><g fill="#48a1ff"><path d="m63.03 33c-2.33 8.39-8.78 15.07-17.03 17.74v-10.29c0-.94.33-1.84.93-2.56l2.87-3.45c.76-.91 1.89-1.44 3.07-1.44z"></path><path d="m62.76 18.07-8.48 2.36c-1.45.36-2.99.1-4.23-.73l-.8-.53c-1.79-1.2-4.22-.71-5.42 1.08l-2.67 4.01c-.72 1.09-1.94 1.74-3.25 1.74-2.16 0-3.91-1.75-3.91-3.91v-5.88c0-1.37-.72-2.64-1.9-3.35l-1.2-.72c-1.18-.71-1.9-1.98-1.9-3.35v-7.18c2.8-1.04 5.84-1.61 9-1.61 11.58 0 21.41 7.6 24.76 18.07z"></path><path d="m36 44v16c0 2.21-1.79 4-4 4h-26c-2.21 0-4-1.79-4-4v-16c0-1.1.9-2 2-2h30c1.1 0 2 .9 2 2z"></path><path d="m26 38h-14c-1.104 0-2-.896-2-2v-6c0-2.206 1.794-4 4-4h10c2.206 0 4 1.794 4 4v6c0 1.104-.896 2-2 2zm-12-4h10v-4h-10z"></path></g><path d="m38 38v6c0 4.41-3.59 8-8 8h-22c-4.41 0-8-3.59-8-8v-6c0-2.21 1.79-4 4-4h30c2.21 0 4 1.79 4 4z" fill="#2c39fd"></path><path d="m23 47v6c0 1.1-.9 2-2 2h-4c-1.1 0-2-.9-2-2v-6c0-1.1.9-2 2-2h4c1.1 0 2 .9 2 2z" fill="#f2f2fd"></path></g></g></svg>