<svg xmlns="http://www.w3.org/2000/svg" height="512" viewBox="0 0 64 64" width="512"><g id="Financial_Report"><g><path d="m45 5v52c0 2.76-2.24 5-5 5h-25v-12c0-1.1-.9-2-2-2h-12v-43c0-2.76 2.24-5 5-5h34c2.76 0 5 2.24 5 5z" fill="#aad7fd"></path><g fill="#f2f2fd"><path d="m22 40h-11c-1.104 0-2-.896-2-2s.896-2 2-2h11c1.104 0 2 .896 2 2s-.896 2-2 2z"></path><path d="m27 32h-16c-1.104 0-2-.896-2-2s.896-2 2-2h16c1.104 0 2 .896 2 2s-.896 2-2 2z"></path><path d="m36.414 8.586c-.473-.473-1.149-.679-1.807-.547l-5 1c-.723.145-1.308.675-1.521 1.381s-.021 1.472.5 1.994l.586.586-3.172 3.171-5.586-5.585c-.781-.781-2.047-.781-2.828 0l-7 7c-.781.781-.781 2.047 0 2.828s2.047.781 2.828 0l5.586-5.585 5.586 5.585c.391.391.902.586 1.414.586s1.023-.195 1.414-.586l4.586-4.586.586.586c.381.381.892.586 1.414.586.193 0 .389-.028.579-.086.706-.213 1.237-.798 1.382-1.522l1-5c.132-.656-.074-1.333-.547-1.806z"></path></g><path d="m13 48c1.105 0 2 .895 2 2v12c-.53 0-1.04-.21-1.41-.59l-12-12c-.38-.37-.59-.88-.59-1.41z" fill="#48a1ff"></path><circle cx="45" cy="46" fill="#2c39fd" r="18"></circle><path d="m45.5 44h-1c-.827 0-1.5-.673-1.5-1.5s.673-1.5 1.5-1.5h4.5c1.104 0 2-.896 2-2s-.896-2-2-2h-2c0-1.104-.896-2-2-2s-2 .896-2 2v.213c-2.305.655-4 2.775-4 5.287 0 3.033 2.468 5.5 5.5 5.5h1c.827 0 1.5.673 1.5 1.5s-.673 1.5-1.5 1.5h-4.5c-1.104 0-2 .896-2 2s.896 2 2 2h2c0 1.104.896 2 2 2s2-.896 2-2v-.213c2.305-.655 4-2.775 4-5.287 0-3.033-2.468-5.5-5.5-5.5z" fill="#f2f2fd"></path></g></g></svg>