<svg xmlns="http://www.w3.org/2000/svg" height="512" viewBox="0 0 64 64" width="512"><g id="Idea"><g><path d="m52 46v16c0 1.1-.9 2-2 2h-36c-1.1 0-2-.9-2-2v-16z" fill="#aad7fd"></path><path d="m57.79 54.89c-.34.68-1.03 1.11-1.79 1.11h-18c-.63 0-1.22-.3-1.6-.8l-4.4-5.87-4.4 5.87c-.38.5-.97.8-1.6.8h-18c-.76 0-1.45-.43-1.79-1.11-.34-.67-.26-1.48.19-2.09l6-8c.38-.5.97-.8 1.6-.8h36c.63 0 1.22.3 1.6.8l6 8c.45.61.53 1.42.19 2.09z" fill="#48a1ff"></path><path d="m32 41c-1.104 0-2-.896-2-2v-2c0-1.104.896-2 2-2s2 .896 2 2v2c0 1.104-.896 2-2 2z" fill="#2c39fd"></path><path d="m46 14c0 3.79-1.49 7.33-4.2 9.98-1.69 1.66-3.02 3.61-3.96 5.8-.31.74-1.04 1.22-1.84 1.22h-8c-.8 0-1.52-.48-1.84-1.21-.88-2.07-2.29-4.09-4.17-6.01-2.65-2.71-4.07-6.3-3.99-10.09.16-7.27 6.2-13.4 13.45-13.68 3.85-.15 7.49 1.24 10.26 3.9 2.77 2.67 4.29 6.25 4.29 10.09z" fill="#2c39fd"></path><g fill="#48a1ff"><path d="m40 32v4c0 1.65-1.35 3-3 3h-10c-1.65 0-3-1.35-3-3v-4c0-1.65 1.35-3 3-3h10c1.65 0 3 1.35 3 3z"></path><path d="m12 28c-.512 0-1.024-.195-1.414-.586-.781-.781-.781-2.047 0-2.828l2-2c.78-.781 2.048-.781 2.828 0 .781.781.781 2.047 0 2.828l-2 2c-.39.391-.902.586-1.414.586z"></path><path d="m12 16h-4c-1.104 0-2-.896-2-2s.896-2 2-2h4c1.104 0 2 .896 2 2s-.896 2-2 2z"></path><path d="m14 6c-.512 0-1.024-.195-1.414-.586l-2-2c-.781-.781-.781-2.047 0-2.828.78-.781 2.048-.781 2.828 0l2 2c.781.781.781 2.047 0 2.828-.39.391-.902.586-1.414.586z"></path><path d="m52 28c-.512 0-1.024-.195-1.414-.586l-2-2c-.781-.781-.781-2.047 0-2.828.78-.781 2.048-.781 2.828 0l2 2c.781.781.781 2.047 0 2.828-.39.391-.902.586-1.414.586z"></path><path d="m56 16h-4c-1.104 0-2-.896-2-2s.896-2 2-2h4c1.104 0 2 .896 2 2s-.896 2-2 2z"></path><path d="m50 6c-.512 0-1.024-.195-1.414-.586-.781-.781-.781-2.047 0-2.828l2-2c.78-.781 2.048-.781 2.828 0 .781.781.781 2.047 0 2.828l-2 2c-.39.391-.902.586-1.414.586z"></path></g></g></g></svg>