<svg xmlns="http://www.w3.org/2000/svg" height="512" viewBox="0 0 64 64" width="512"><g id="Goal"><g><path d="m60.9 16.37c.2.61.1 1.28-.28 1.8-.37.52-.98.83-1.62.83h-16v-16h16c.64 0 1.25.31 1.62.83.38.52.48 1.19.28 1.8l-1.79 5.37z" fill="#2c39fd"></path><path d="m43 33c-1.104 0-2-.896-2-2v-29c0-1.104.896-2 2-2s2 .896 2 2v29c0 1.104-.896 2-2 2z" fill="#48a1ff"></path><path d="m34 32v10c0 1.1-.9 2-2 2h-14c-1.1 0-2-.9-2-2v-10c0-1.1.9-2 2-2h14c1.1 0 2 .9 2 2z" fill="#2c39fd"></path><path d="m24 42v10c0 1.1-.9 2-2 2h-12c-1.1 0-2-.9-2-2v-10c0-1.1.9-2 2-2h12c1.1 0 2 .9 2 2z" fill="#48a1ff"></path><path d="m14 52v10c0 1.1-.9 2-2 2h-10c-1.1 0-2-.9-2-2v-10c0-1.1.9-2 2-2h10c1.1 0 2 .9 2 2z" fill="#2c39fd"></path><g fill="#aad7fd"><path d="m64 32v30c0 1.1-.9 2-2 2h-52v-14h10v-10h10v-10h32c1.1 0 2 .9 2 2z"></path><path d="m17 20c0 .76-.43 1.45-1.11 1.79-1.98.99-3.37 2.81-3.81 4.99l-.12.61c-.19.94-1.01 1.61-1.96 1.61s-1.77-.67-1.96-1.61l-.12-.61c-.44-2.18-1.83-4-3.81-4.99-.68-.34-1.11-1.03-1.11-1.79s.43-1.45 1.11-1.79c1.98-.99 3.37-2.81 3.81-4.99l.12-.61c.19-.94 1.01-1.61 1.96-1.61s1.77.67 1.96 1.61l.12.61c.44 2.18 1.83 4 3.81 4.99.68.34 1.11 1.03 1.11 1.79z"></path><path d="m35 9c0 .76-.43 1.45-1.11 1.79-1.98.99-3.37 2.81-3.81 4.99l-.12.61c-.19.94-1.01 1.61-1.96 1.61s-1.77-.67-1.96-1.61l-.12-.61c-.44-2.18-1.83-4-3.81-4.99-.68-.34-1.11-1.03-1.11-1.79s.43-1.45 1.11-1.79c1.98-.99 3.37-2.81 3.81-4.99l.12-.61c.19-.94 1.01-1.61 1.96-1.61s1.77.67 1.96 1.61l.12.61c.44 2.18 1.83 4 3.81 4.99.68.34 1.11 1.03 1.11 1.79z"></path></g></g></g></svg>