<svg width="193" height="36" viewBox="0 0 193 36" fill="none" xmlns="http://www.w3.org/2000/svg">
<g clip-path="url(#clip0_513_3692)">
<path d="M182.363 5.21053C182.363 4.26316 182.599 3.43421 183.072 2.60526C183.545 1.77632 184.136 1.18421 184.963 0.710526C185.79 0.236842 186.736 0 187.681 0C188.627 0 189.572 0.236842 190.4 0.710526C191.227 1.18421 191.818 1.77632 192.291 2.60526C192.764 3.43421 193 4.26316 193 5.21053C193 6.15789 192.764 6.98684 192.291 7.81579C191.818 8.64474 191.227 9.23684 190.4 9.71053C189.572 10.1842 188.627 10.4211 187.681 10.4211C186.736 10.4211 185.79 10.1842 184.963 9.71053C184.136 9.23684 183.545 8.64474 183.072 7.81579C182.599 6.98684 182.363 6.15789 182.363 5.21053ZM183.309 5.21053C183.309 6.03947 183.545 6.75 183.899 7.46053C184.254 8.17105 184.845 8.64474 185.554 9C186.263 9.35526 186.972 9.59211 187.8 9.59211C188.627 9.59211 189.336 9.35526 190.045 9C190.754 8.64474 191.227 8.05263 191.7 7.46053C192.054 6.75 192.291 6.03947 192.291 5.21053C192.291 4.38158 192.054 3.67105 191.7 2.96053C191.345 2.25 190.754 1.77632 190.045 1.42105C189.336 1.06579 188.627 0.828947 187.8 0.828947C186.972 0.828947 186.263 1.06579 185.554 1.42105C184.845 1.77632 184.372 2.36842 183.899 2.96053C183.427 3.67105 183.309 4.38158 183.309 5.21053ZM186.618 5.68421V8.05263H185.554V2.13158H187.681C188.391 2.13158 188.982 2.25 189.454 2.60526C189.927 2.96053 190.045 3.31579 190.045 3.90789C190.045 4.5 189.691 4.85526 189.1 5.21053C189.691 5.44737 190.045 5.92105 190.045 6.63158V7.10526C190.045 7.46053 190.045 7.81579 190.163 7.93421V8.05263H189.1C188.982 7.93421 188.982 7.57895 188.982 7.10526C188.982 6.63158 188.982 6.39474 188.982 6.39474C188.863 5.92105 188.627 5.68421 188.036 5.68421H186.618ZM186.618 4.85526H187.8C188.154 4.85526 188.391 4.73684 188.627 4.61842C188.863 4.5 188.982 4.26316 188.982 4.02632C188.982 3.67105 188.863 3.43421 188.745 3.31579C188.509 3.19737 188.154 3.07895 187.681 3.07895H186.618V4.85526Z" fill="#041C2C"/>
<path d="M27.774 1.65789C28.2467 0.947368 27.774 0 26.9467 0H18.9099H15.3643H12.7642C9.57311 0 7.20937 0.828948 5.43656 2.36842C3.66375 3.9079 2.60006 6.1579 2.36368 9.11842L1.65456 16.8158C1.41819 19.7763 2.00912 22.0263 3.54556 23.5658C5.08199 25.1053 7.32755 25.9342 10.2822 25.9342H13.5915C14.1824 25.8158 14.537 25.4605 14.6552 24.75L15.0097 20.9605C15.1279 20.25 14.537 19.7763 13.8279 19.7763H12.055C10.8732 19.7763 10.0459 19.5395 9.57312 19.0658C9.10037 18.5921 8.98218 17.7632 8.98218 16.4605L9.57312 9.47369C9.6913 8.28947 10.0459 7.46053 10.5186 6.98684C11.1096 6.51316 11.9369 6.27632 13.1187 6.27632H14.6552H17.0189H22.8101C23.992 6.27632 25.0557 5.68421 25.7648 4.73684L27.774 1.65789Z" fill="#00B373"/>
<path d="M0.236388 34.342C-0.236361 35.0525 0.236388 35.9999 1.0637 35.9999H9.33682H12.8824H15.4826C18.5554 35.9999 20.9192 35.1709 22.692 33.6315C24.4648 32.092 25.5285 29.842 25.7649 26.8815L26.474 19.1841C26.7104 16.2236 26.1194 13.9736 24.583 12.4341C23.0465 10.8946 20.801 10.0657 17.8463 10.0657H14.5371C13.9461 10.1841 13.5916 10.5394 13.4734 11.2499L13.1188 15.0394C13.0006 15.7499 13.5916 16.2236 14.3007 16.2236H16.1917C17.3736 16.2236 18.2009 16.4604 18.6736 16.9341C19.1464 17.4078 19.2646 18.2367 19.2646 19.4209L18.6736 26.2894C18.5554 27.4736 18.2009 28.3025 17.7281 28.7762C17.1372 29.2499 16.3099 29.4867 15.128 29.4867H13.5916H11.2278H5.08207C3.9002 29.4867 2.83651 30.0788 2.12739 31.0262L0.236388 34.342Z" fill="#00AF73"/>
<path d="M49.5204 36H30.8468C30.0195 36 29.665 35.6447 29.7831 34.8158L32.7378 1.18421C32.856 0.355263 33.2106 0 34.0379 0H52.7115C53.4206 0 53.7752 0.355263 53.7752 1.18421L53.4206 4.97368C53.3024 5.80263 52.9479 6.15789 52.1206 6.15789H40.1836C39.7109 6.15789 39.4745 6.39474 39.4745 6.75L38.8836 13.9737C38.8836 14.3289 39.0018 14.5658 39.4745 14.5658H49.2841C50.1114 14.5658 50.4659 14.9211 50.3477 15.75L49.9932 19.5395C49.875 20.3684 49.5204 20.7237 48.6931 20.7237H38.8836C38.4108 20.7237 38.1744 20.9605 38.1744 21.3158L37.4653 29.1316C37.4653 29.4868 37.5835 29.7237 38.0563 29.7237H49.9932C50.7023 29.7237 51.0569 30.0789 51.0569 30.9079L50.8205 34.8158C50.7023 35.6447 50.2296 36 49.5204 36Z" fill="#041C2C"/>
<path d="M69.7305 36H63.4666C60.3937 36 58.1481 35.1711 56.7299 33.6316C55.1934 32.0921 54.6025 29.8421 54.8389 26.8816L56.3753 9.11842C56.7299 6.15789 57.6754 3.90789 59.4482 2.36842C61.221 0.828947 63.5848 0 66.6576 0H72.9216C75.8762 0 78.1218 0.828947 79.6582 2.36842C81.1947 3.90789 81.7856 6.15789 81.5492 9.11842L81.3129 11.7237C81.1947 12.5526 80.8401 12.9079 79.8946 12.9079H75.0489C74.2216 12.9079 73.8671 12.5526 73.9852 11.7237L74.2216 9.47368C74.3398 8.28947 74.1034 7.46053 73.6307 6.98684C73.1579 6.51316 72.3306 6.27632 71.1487 6.27632H67.2486C66.0667 6.27632 65.2394 6.51316 64.6484 6.98684C64.0575 7.46053 63.8211 8.28947 63.7029 9.47368L62.1665 26.5263C62.0483 27.7105 62.2847 28.5395 62.7574 29.0132C63.2302 29.4868 64.0575 29.7237 65.2394 29.7237H69.1396C70.3214 29.7237 71.2669 29.4868 71.8579 29.0132C72.4488 28.5395 72.8034 27.7105 72.8034 26.5263L73.0397 24.2763C73.1579 23.4474 73.5125 23.0921 74.3398 23.0921H79.1855C80.0128 23.0921 80.3674 23.4474 80.3674 24.2763L80.131 26.8816C79.8946 29.8421 78.8309 32.0921 77.0581 33.6316C75.0489 35.1711 72.6852 36 69.7305 36Z" fill="#041C2C"/>
<path d="M96.3228 36H91.4771C90.6498 36 90.2953 35.6447 90.2953 34.8158L92.7772 6.75C92.7772 6.39474 92.659 6.15789 92.1863 6.15789H85.6859C84.8586 6.15789 84.5041 5.80263 84.6223 4.97368L84.9768 1.18421C85.095 0.355263 85.5678 0 86.2769 0H107.905C108.732 0 109.087 0.355263 108.969 1.18421L108.732 4.97368C108.614 5.80263 108.26 6.15789 107.432 6.15789H100.932C100.459 6.15789 100.223 6.39474 100.223 6.75L97.7411 34.8158C97.5047 35.6447 97.1501 36 96.3228 36Z" fill="#041C2C"/>
<path d="M120.078 1.18421L117.006 34.8158C116.887 35.6447 116.533 36 115.705 36H110.86C110.032 36 109.678 35.6447 109.796 34.8158L112.751 1.18421C112.869 0.355263 113.224 0 114.051 0H118.897C119.724 0 120.078 0.355263 120.078 1.18421Z" fill="#041C2C"/>
<path d="M162.035 29.8421H166.053C167.235 29.8421 168.181 29.6053 168.772 29.1316C169.363 28.6579 169.717 27.8289 169.717 26.6447L171.372 9.47368C171.49 8.28947 171.254 7.46053 170.781 6.98684C170.308 6.51316 169.481 6.27632 168.299 6.27632H164.281C163.099 6.27632 162.153 6.51316 161.68 6.98684C161.09 7.46053 160.853 8.28947 160.735 9.47368L159.199 26.5263C159.08 27.7105 159.317 28.5395 159.671 29.0132C160.026 29.6053 160.853 29.8421 162.035 29.8421ZM166.763 36H160.38C157.308 36 155.062 35.1711 153.644 33.6316C152.107 32.0921 151.516 29.8421 151.753 26.8816L153.289 9.11842C153.526 6.15789 154.589 3.90789 156.362 2.36842C158.135 0.828947 160.499 0 163.571 0H169.954C173.026 0 175.272 0.828947 176.69 2.36842C178.227 3.90789 178.818 6.15789 178.581 9.11842L177.045 26.8816C176.808 29.8421 175.745 32.0921 173.972 33.6316C172.199 35.2895 169.835 36 166.763 36Z" fill="#041C2C"/>
<path d="M142.416 12.0789H147.262C148.089 12.0789 148.562 11.7237 148.562 10.8947L148.68 9.23683C148.916 6.2763 148.325 4.0263 146.789 2.48683C145.252 0.947355 143.007 0.118408 140.052 0.118408H134.025C130.952 0.118408 128.588 0.947355 126.815 2.48683C125.042 4.0263 123.979 6.2763 123.742 9.23683L122.206 27C121.969 29.9605 122.56 32.2105 124.097 33.75C125.633 35.2895 127.879 36.1184 130.834 36.1184H136.861C139.816 36.1184 142.179 35.2895 143.952 33.75C145.725 32.2105 146.789 29.9605 147.025 27L147.852 17.6447C147.971 16.8158 147.498 16.3421 146.671 16.3421H136.625H135.325C134.379 16.3421 133.788 17.2895 134.143 18L135.561 20.9605C136.034 21.9079 137.097 22.5 138.161 22.5H139.461C139.934 22.5 140.052 22.7368 140.052 23.0921L139.698 26.6447C139.579 27.8289 139.225 28.6579 138.752 29.25C138.161 29.7237 137.334 29.9605 136.152 29.9605H132.37C131.188 29.9605 130.361 29.7237 129.888 29.25C129.415 28.7763 129.297 27.9474 129.297 26.6447L131.07 9.47367C131.188 8.28946 131.543 7.46051 132.015 6.98683C132.606 6.51315 133.434 6.2763 134.616 6.2763H138.397C139.579 6.2763 140.407 6.51315 140.879 6.98683C141.352 7.46051 141.47 8.28946 141.352 9.47367L141.234 10.7763C141.234 11.6053 141.589 12.0789 142.416 12.0789Z" fill="#041C2C"/>
</g>
<defs>
<clipPath id="clip0_513_3692">
<rect width="193" height="36" fill="white"/>
</clipPath>
</defs>
</svg>
