<?xml version="1.0" encoding="UTF-8"?> <svg xmlns="http://www.w3.org/2000/svg" xmlns:xlink="http://www.w3.org/1999/xlink" width="328px" height="68px" viewBox="0 0 328 68" version="1.1"><!-- Generator: Sketch 57.1 (83088) - https://sketch.com --><title>Strands+Crif_L_full-color-horizontal</title><desc>Created with Sketch.</desc><g id="Symbols" stroke="none" stroke-width="1" fill="none" fill-rule="evenodd"><g id="Logo-Strands-Color-+-Crif" transform="translate(-48.000000, -48.000000)"><g id="Strands+Crif_L_full-color-horizontal" transform="translate(48.000000, 48.000000)"><g id="Group" transform="translate(165.850033, 45.053749)"><path d="M12.3625747,5.83304579 L14.4955541,19.2403451 L11.3613802,19.2403451 L10.9696085,16.0408759 L5.1583278,16.0408759 L3.13417386,19.2403451 L0.17412077,19.2403451 L9.40252157,5.83304579 L12.3625747,5.83304579 Z M6.70364964,13.6467153 L10.6866622,13.6467153 L10.0337094,8.48838752 L6.70364964,13.6467153 Z" id="Shape" fill-opacity="0.6" fill="#023642"></path><g transform="translate(27.206370, 5.658925)" fill="#023642"><path d="M6.24658261,2.82946251 C5.7459854,3.04711347 5.35421367,3.37358991 5.02773723,3.80889184 C4.70126078,4.26595886 4.41831453,4.74479098 4.17889847,5.24538819 C3.93948242,5.7459854 3.72183145,6.3118779 3.54771068,6.8777704 C3.52594559,6.9213006 3.52594559,6.98659589 3.50418049,7.03012608 C3.48241539,7.07365627 3.48241539,7.13895156 3.4606503,7.18248175 C3.4388852,7.24777704 3.4388852,7.29130723 3.41712011,7.35660252 C3.39535501,7.40013271 3.39535501,7.465428 3.37358991,7.5089582 C3.35182482,7.61778368 3.33005972,7.70484406 3.30829463,7.81366954 C3.28652953,7.92249502 3.26476443,8.0313205 3.24299934,8.11838089 C3.19946914,8.33603185 3.15593895,8.55368281 3.13417386,8.77133378 C3.11240876,8.98898474 3.11240876,9.1848706 3.13417386,9.40252157 C3.13417386,9.59840743 3.15593895,9.7942933 3.22123424,9.99017916 C3.28652953,10.186065 3.35182482,10.3601858 3.4606503,10.5125415 C3.56947578,10.6648971 3.70006636,10.8172528 3.83065693,10.9260783 C3.96124751,11.0349038 4.13536828,11.1219642 4.30948905,11.1437293 C4.50537492,11.1872595 4.70126078,11.2090246 4.89714665,11.2307896 C5.09303251,11.2525547 5.31068348,11.2525547 5.50656934,11.2525547 C5.52833444,11.2525547 5.52833444,11.2525547 5.55009954,11.2525547 C5.57186463,11.2525547 5.57186463,11.2525547 5.59362973,11.2525547 C5.61539482,11.2525547 5.61539482,11.2525547 5.61539482,11.2525547 C5.61539482,11.2525547 5.63715992,11.2525547 5.63715992,11.2525547 C5.65892502,11.2525547 5.65892502,11.2525547 5.68069011,11.2525547 L10.3166556,11.2307896 L9.70723291,13.5596549 L4.94067684,13.5596549 C4.54890511,13.5596549 4.17889847,13.5378898 3.83065693,13.5161248 C3.4606503,13.4943597 3.11240876,13.4290644 2.78593232,13.3637691 C2.45945587,13.2984738 2.13297943,13.1896483 1.87179827,13.0372926 C1.58885202,12.884937 1.32767087,12.667286 1.08825481,12.4278699 C0.80530856,12.1231586 0.565892502,11.7966821 0.413536828,11.4266755 C0.239416058,11.0566689 0.152355674,10.6431321 0.130590577,10.2078301 C0.108825481,9.7725282 0.108825481,9.33722628 0.130590577,8.88015926 C0.152355674,8.42309224 0.239416058,7.96602522 0.370006636,7.5089582 C0.391771732,7.465428 0.391771732,7.40013271 0.391771732,7.35660252 C0.391771732,7.31307233 0.413536828,7.24777704 0.413536828,7.20424685 C0.435301924,7.16071666 0.435301924,7.11718646 0.457067021,7.07365627 C0.478832117,7.03012608 0.478832117,6.96483079 0.500597213,6.9213006 C0.522362309,6.8777704 0.522362309,6.83424021 0.544127405,6.79071002 C0.565892502,6.74717983 0.587657598,6.70364964 0.587657598,6.66011944 C0.609422694,6.61658925 0.609422694,6.57305906 0.63118779,6.52952887 C0.652952887,6.48599867 0.674717983,6.44246848 0.674717983,6.39893829 C1.02295952,5.33244857 1.43649635,4.41831453 1.93709356,3.65653616 C2.43769078,2.8729927 3.00358328,2.24180491 3.63477107,1.7412077 C4.26595886,1.24061048 5.00597213,0.870603849 5.83304579,0.63118779 C6.66011944,0.391771732 7.59601858,0.261181155 8.6189781,0.261181155 L13.2984738,0.239416058 L12.6890511,2.52475116 L8.0530856,2.52475116 C7.33483743,2.48122097 6.74717983,2.59004645 6.24658261,2.82946251 Z" id="Path"></path><path d="M22.2874585,0.17412077 C22.3527538,0.195885866 22.4180491,0.195885866 22.4833444,0.195885866 C22.5486397,0.195885866 22.613935,0.195885866 22.6792303,0.195885866 C22.7009954,0.195885866 22.7227605,0.195885866 22.7445255,0.195885866 C22.7662906,0.195885866 22.7880557,0.195885866 22.8098208,0.195885866 C22.8315859,0.195885866 22.8315859,0.195885866 22.8315859,0.195885866 C22.8315859,0.195885866 22.853351,0.195885866 22.853351,0.195885866 C22.8968812,0.217650962 22.9186463,0.217650962 22.9621765,0.217650962 C23.0057067,0.217650962 23.0274718,0.217650962 23.071002,0.217650962 C23.310418,0.239416058 23.5715992,0.261181155 23.8110153,0.304711347 C24.0504313,0.348241539 24.2898474,0.391771732 24.5074983,0.457067021 C24.7251493,0.522362309 24.9428003,0.63118779 25.116921,0.761778368 C25.3128069,0.892368945 25.4651626,1.04472462 25.5957532,1.21884539 C25.7263437,1.37120106 25.8134041,1.56708693 25.9004645,1.7412077 C25.9657598,1.93709356 26.0310551,2.13297943 26.0528202,2.35063039 C26.0745853,2.56828135 26.0963504,2.80769741 26.0745853,3.02534837 C26.0745853,3.24299934 26.0310551,3.48241539 25.9875249,3.70006636 C25.9657598,3.74359655 25.9657598,3.78712674 25.9657598,3.83065693 C25.9657598,3.87418713 25.9439947,3.91771732 25.9222296,3.96124751 C25.9222296,3.98301261 25.9222296,4.0047777 25.9222296,4.0265428 C25.9222296,4.0483079 25.9222296,4.07007299 25.9222296,4.09183809 C25.9222296,4.11360319 25.9222296,4.13536828 25.9222296,4.15713338 C25.9222296,4.17889847 25.9222296,4.20066357 25.9222296,4.22242867 C25.791639,4.67949569 25.6392833,5.11479761 25.4216324,5.52833444 C25.2039814,5.94187127 24.9428003,6.3118779 24.6163238,6.63835435 C24.3116125,6.96483079 23.9416058,7.24777704 23.5498341,7.4871931 C23.1580624,7.70484406 22.7009954,7.87896483 22.2003981,7.98779031 L24.0504313,13.5596549 L20.8727273,13.5596549 L19.3274054,8.29250166 L15.9973457,8.29250166 L14.6043796,13.5596549 L11.753152,13.5596549 L15.3443928,0.152355674 L22.2874585,0.152355674 L22.2874585,0.17412077 Z M17.5209025,2.56828135 L16.6067684,5.94187127 L20.0674187,5.94187127 C20.0891838,5.96363636 20.0891838,5.96363636 20.1109489,5.96363636 C20.132714,5.96363636 20.132714,5.96363636 20.1544791,5.96363636 C20.1762442,5.96363636 20.1762442,5.96363636 20.1980093,5.96363636 C20.2197744,5.96363636 20.2197744,5.96363636 20.2415395,5.96363636 C20.5462508,5.96363636 20.8291971,5.94187127 21.1121433,5.89834107 C21.3950896,5.85481088 21.6780358,5.78951559 21.939217,5.70245521 C22.2003981,5.59362973 22.4180491,5.44127405 22.613935,5.201858 C22.8098208,4.96244194 22.9404114,4.65773059 23.0492369,4.26595886 C23.1580624,3.87418713 23.1580624,3.54771068 23.1145322,3.30829463 C23.0492369,3.06887857 22.8968812,2.91652289 22.6574652,2.82946251 C22.4180491,2.76416722 22.1568679,2.69887193 21.8956868,2.65534174 C21.6127405,2.61181155 21.3297943,2.59004645 21.0033179,2.59004645 L21.0250829,2.56828135 L17.5209025,2.56828135 Z" id="Shape"></path><polygon id="Path" points="25.7698739 13.58142 29.3611148 0.17412077 32.2994028 0.17412077 28.7081619 13.58142"></polygon><path d="M34.2364964,4.09183809 C34.6717983,3.17770405 35.1941606,2.43769078 35.7600531,1.87179827 C36.3259456,1.30590577 37.087724,0.892368945 38.0453882,0.609422694 C39.0248175,0.326476443 40.2001327,0.195885866 41.5713338,0.195885866 L45.8590577,0.17412077 L45.2278699,2.50298607 L40.7007299,2.50298607 C40.1130723,2.52475116 39.5689449,2.59004645 39.1118779,2.69887193 C38.6548109,2.82946251 38.2412741,3.00358328 37.8930325,3.26476443 C37.544791,3.50418049 37.2400796,3.83065693 36.9788985,4.24419376 C36.7177173,4.65773059 36.5000664,5.1800929 36.3041805,5.7677505 L44.3790312,5.7459854 L43.7478434,8.0530856 L35.6947578,8.0530856 L34.2364964,13.5378898 L31.4287989,13.5378898 L33.0611812,7.37836762 C33.3876576,6.11599204 33.8011944,5.00597213 34.2364964,4.09183809 Z" id="Path"></path><path d="M59.7887193,11.4702057 L59.2228268,13.58142 L55.6968812,13.58142 C55.3704048,13.58142 55.0221632,13.5596549 54.6956868,13.5378898 C54.3692104,13.5161248 54.0427339,13.4508295 53.7597877,13.3855342 C53.4768414,13.3202389 53.2156603,13.1896483 52.9544791,13.0372926 C52.715063,12.884937 52.4974121,12.667286 52.3015262,12.449635 C52.1491705,12.2319841 52.01858,12.0143331 51.9097545,11.7749171 C51.800929,11.535501 51.7356337,11.2743198 51.7138686,11.0131387 C51.6703384,10.7301924 51.6485733,10.4472462 51.6485733,10.1642999 C51.6485733,9.88135368 51.6703384,9.59840743 51.7138686,9.29369608 C51.7356337,9.25016589 51.7356337,9.2066357 51.7356337,9.16310551 C51.7356337,9.11957532 51.7573988,9.07604512 51.7573988,9.03251493 C51.7573988,9.01074983 51.7573988,8.98898474 51.7573988,8.96721964 C51.7573988,8.94545455 51.7791639,8.92368945 51.7791639,8.90192435 C51.800929,8.88015926 51.800929,8.88015926 51.800929,8.83662906 C51.800929,8.81486397 51.800929,8.79309887 51.800929,8.77133378 C51.8226941,8.74956868 51.8226941,8.72780358 51.8226941,8.68427339 C51.8226941,8.66250829 51.8444592,8.6189781 51.8444592,8.59721301 C51.8444592,8.57544791 51.8444592,8.55368281 51.8444592,8.51015262 C51.8444592,8.48838752 51.8662243,8.44485733 51.8662243,8.42309224 C51.8879894,8.35779695 51.9097545,8.29250166 51.9315196,8.24897147 C51.9532847,8.18367618 51.9750498,8.14014599 51.9968149,8.09661579 C52.1056403,7.81366954 52.2144658,7.53072329 52.3668215,7.24777704 C52.5191772,6.96483079 52.6715328,6.68188454 52.8891838,6.42070338 C53.0850697,6.13775713 53.2809555,5.89834107 53.5203716,5.63715992 C53.7597877,5.39774386 53.9992037,5.1800929 54.28215,4.98420703 C54.6086264,4.74479098 54.9351029,4.52714001 55.2615793,4.37478434 C55.5880557,4.22242867 55.9145322,4.11360319 56.2410086,4.0265428 C56.4151294,3.98301261 56.5892502,3.96124751 56.7633709,3.91771732 C56.9374917,3.89595222 57.1116125,3.87418713 57.2857332,3.85242203 C57.4380889,3.83065693 57.6122097,3.80889184 57.7863305,3.80889184 C57.9604512,3.80889184 58.134572,3.80889184 58.2869277,3.80889184 L61.8346384,3.78712674 L61.2469808,5.92010617 L58.4828135,5.92010617 C58.4610484,5.92010617 58.4610484,5.92010617 58.4175182,5.94187127 C58.3957532,5.94187127 58.3957532,5.94187127 58.3739881,5.94187127 C58.352223,5.94187127 58.352223,5.94187127 58.3304579,5.94187127 C58.3086928,5.94187127 58.3086928,5.94187127 58.2869277,5.94187127 C58.2651626,5.94187127 58.2433975,5.94187127 58.2216324,5.94187127 C58.1781022,5.94187127 58.1563371,5.94187127 58.1128069,5.94187127 C58.0692767,5.94187127 58.0475116,5.94187127 58.0039814,5.94187127 C57.9604512,5.94187127 57.9386861,5.94187127 57.8951559,5.94187127 C57.8733908,5.94187127 57.8298607,5.94187127 57.8080956,5.94187127 C57.677505,5.94187127 57.5686795,5.94187127 57.4380889,5.94187127 C57.3074983,5.94187127 57.1986729,5.96363636 57.0680823,5.98540146 C57.0245521,5.98540146 56.9810219,5.98540146 56.9374917,6.00716656 C56.8939615,6.02893165 56.8504313,6.02893165 56.8069011,6.05069675 C56.7198407,6.07246184 56.6327804,6.09422694 56.54572,6.13775713 C56.4586596,6.15952223 56.3933643,6.20305242 56.3063039,6.24658261 C56.0233577,6.37717319 55.7839416,6.55129396 55.5880557,6.72541473 C55.3921699,6.9213006 55.2180491,7.11718646 55.0656934,7.33483743 C54.9351029,7.57425348 54.8045123,7.81366954 54.6956868,8.0530856 C54.5868613,8.29250166 54.4998009,8.53191772 54.4345056,8.77133378 C54.3692104,9.01074983 54.3256802,9.25016589 54.3256802,9.48958195 C54.3039151,9.72899801 54.3039151,9.94664897 54.3256802,10.186065 C54.3474453,10.403716 54.4127405,10.5996019 54.521566,10.7737226 C54.6303915,10.9478434 54.7609821,11.1001991 54.9568679,11.2307896 C55.0439283,11.2960849 55.1309887,11.3396151 55.2398142,11.3831453 C55.3486397,11.4266755 55.4574652,11.4484406 55.5662906,11.4702057 C55.6751161,11.4919708 55.7839416,11.4919708 55.8927671,11.5137359 C56.0233577,11.535501 56.1321831,11.535501 56.2627737,11.535501 C56.3063039,11.535501 56.328069,11.535501 56.3715992,11.535501 C56.4151294,11.535501 56.4368945,11.535501 56.4804247,11.535501 C56.5021898,11.535501 56.5239549,11.535501 56.54572,11.535501 C56.5674851,11.535501 56.5892502,11.535501 56.6110153,11.535501 C56.6327804,11.535501 56.6327804,11.535501 56.6763106,11.535501 C56.6980756,11.535501 56.7198407,11.535501 56.7416058,11.535501 C56.7633709,11.535501 56.7633709,11.535501 56.7633709,11.535501 C56.7633709,11.535501 56.785136,11.535501 56.785136,11.535501 C56.8069011,11.535501 56.8069011,11.535501 56.8286662,11.535501 C56.8504313,11.535501 56.8504313,11.535501 56.8504313,11.535501 C56.8504313,11.535501 56.8721964,11.535501 56.8721964,11.535501 C56.8721964,11.535501 56.8939615,11.535501 56.9157266,11.535501 L56.9157266,11.5137359 L59.7887193,11.5137359 L59.7887193,11.4702057 Z" id="Path" fill-opacity="0.6"></path><path d="M68.6035833,13.0155275 C68.2771068,13.1896483 67.9288653,13.342004 67.5588587,13.4508295 C67.3194426,13.5161248 67.0800265,13.58142 66.8406105,13.6249502 C66.6011944,13.6684804 66.3617784,13.7120106 66.1223623,13.7337757 C65.9917717,13.7555408 65.8829463,13.7555408 65.7741208,13.7555408 C65.6652953,13.7555408 65.5347047,13.7555408 65.4258792,13.7555408 C65.0776377,13.7555408 64.7293962,13.7337757 64.4029197,13.6684804 C64.0764433,13.6031851 63.7499668,13.5378898 63.4452555,13.4290644 C63.1405441,13.3202389 62.879363,13.1678832 62.6399469,13.0155275 C62.4005309,12.8414068 62.204645,12.6455209 62.0305242,12.4061048 C61.8564035,12.1666888 61.7040478,11.9055076 61.5952223,11.6225614 C61.4863968,11.3396151 61.3993364,11.0349038 61.3775713,10.7084273 C61.3558062,10.3819509 61.3558062,10.0554745 61.3993364,9.70723291 C61.4428666,9.35899137 61.5081619,9.01074983 61.5952223,8.66250829 C61.7040478,8.31426676 61.8128733,7.96602522 61.9652289,7.63954877 C62.1175846,7.31307233 62.2917054,6.96483079 62.4875912,6.63835435 C62.7052422,6.3118779 62.9228932,6.00716656 63.1840743,5.72422031 C63.4452555,5.44127405 63.7282017,5.1800929 64.0329131,4.94067684 C64.3376244,4.72302588 64.6423358,4.52714001 64.9688122,4.35301924 C65.2952887,4.17889847 65.6435302,4.0265428 66.0135368,3.91771732 C66.3835435,3.80889184 66.731785,3.72183145 67.1017916,3.65653616 C67.4717983,3.59124088 67.8200398,3.56947578 68.1682814,3.56947578 C68.5165229,3.56947578 68.8429993,3.59124088 69.1694758,3.65653616 C69.4959522,3.72183145 69.8006636,3.80889184 70.1053749,3.91771732 C70.4100863,4.0265428 70.6930325,4.17889847 70.9324486,4.35301924 C71.1718646,4.52714001 71.3677505,4.72302588 71.5418713,4.94067684 C71.715992,5.1800929 71.8465826,5.44127405 71.9554081,5.72422031 C72.0642336,6.00716656 72.1295289,6.3118779 72.1730591,6.63835435 C72.1948242,6.96483079 72.1948242,7.31307233 72.1730591,7.63954877 C72.151294,7.96602522 72.0859987,8.31426676 71.9989383,8.66250829 C71.9118779,9.01074983 71.7812873,9.35899137 71.6289317,9.70723291 C71.476576,10.0554745 71.2806901,10.3819509 71.0630392,10.7084273 C70.8671533,11.0349038 70.6277372,11.3613802 70.3883212,11.6225614 C70.1489051,11.8837425 69.8441938,12.1666888 69.5394824,12.4061048 L69.5394824,12.3843397 C69.2565362,12.6237558 68.9300597,12.8414068 68.6035833,13.0155275 Z M65.2735236,11.535501 C65.3170537,11.5572661 65.3388188,11.5790312 65.382349,11.5790312 C65.4258792,11.6007963 65.4476443,11.6007963 65.4911745,11.6225614 C65.5347047,11.6443265 65.5564698,11.6443265 65.6,11.6443265 C65.8829463,11.6878567 66.1876576,11.6878567 66.4706038,11.6443265 C66.7753152,11.5790312 67.0582614,11.4702057 67.3629728,11.31785 C67.6676841,11.1654944 67.9288653,10.9696085 68.1682814,10.7519575 C68.4076974,10.5125415 68.6035833,10.2513603 68.777704,9.96841407 C68.8429993,9.85958859 68.8865295,9.7725282 68.9300597,9.64193762 C68.9735899,9.53311214 69.0171201,9.40252157 69.0606503,9.29369608 C69.1259456,9.16310551 69.1694758,9.05428003 69.213006,8.92368945 C69.2565362,8.79309887 69.2783013,8.68427339 69.3218315,8.55368281 C69.3871267,8.27073656 69.4088918,8.00955541 69.4088918,7.74837425 C69.4088918,7.4871931 69.3871267,7.24777704 69.3435965,7.00836098 C69.3000664,6.76894492 69.1912409,6.55129396 69.0606503,6.3554081 C68.9300597,6.18128733 68.7341739,6.02893165 68.4947578,5.92010617 C68.4512276,5.89834107 68.3859323,5.87657598 68.3424021,5.85481088 C68.2771068,5.83304579 68.2335766,5.81128069 68.1900464,5.81128069 C68.1247512,5.78951559 68.0594559,5.78951559 68.0159257,5.78951559 C67.9506304,5.78951559 67.9071002,5.7677505 67.8418049,5.7677505 C67.7112143,5.7459854 67.5588587,5.7459854 67.4282681,5.7677505 C67.2759124,5.78951559 67.1453218,5.81128069 67.0147313,5.83304579 C66.8623756,5.85481088 66.7100199,5.89834107 66.5794293,5.96363636 C66.4270737,6.02893165 66.2964831,6.09422694 66.1658925,6.15952223 C65.8611812,6.3118779 65.6,6.50776377 65.382349,6.72541473 C65.1646981,6.94306569 64.9688122,7.18248175 64.7946914,7.465428 C64.7293962,7.57425348 64.6641009,7.68307896 64.6205707,7.79190445 C64.5552754,7.90072993 64.5117452,8.00955541 64.468215,8.11838089 C64.4246848,8.22720637 64.3811546,8.33603185 64.3593895,8.44485733 C64.3376244,8.55368281 64.3158593,8.66250829 64.2940942,8.77133378 C64.2070338,9.07604512 64.1635036,9.35899137 64.1635036,9.62017253 C64.1635036,9.90311878 64.1852687,10.1642999 64.250564,10.4254811 C64.3158593,10.6866622 64.4246848,10.9043132 64.5770405,11.078434 C64.7293962,11.2525547 64.925282,11.4049104 65.1864632,11.4919708 L65.2082283,11.4702057 C65.2082283,11.4919708 65.2299934,11.5137359 65.2735236,11.535501 Z" id="Shape" fill-opacity="0.6"></path><path d="M84.9056403,3.74359655 C85.5368281,3.76536165 86.0591904,3.83065693 86.5380226,3.96124751 C86.9950896,4.09183809 87.3868613,4.28772395 87.6698076,4.52714001 C87.9527538,4.76655607 88.1268746,5.13656271 88.1921699,5.61539482 C88.2574652,6.09422694 88.1921699,6.68188454 88.0180491,7.37836762 L86.3639018,13.58142 L83.7520902,13.58142 L85.3191772,7.68307896 C85.4497678,7.22601194 85.4932979,6.85600531 85.4497678,6.59482415 C85.4280027,6.333643 85.3191772,6.15952223 85.1450564,6.09422694 C84.9709356,6.02893165 84.7532847,5.96363636 84.4703384,5.94187127 C84.1873922,5.92010617 83.8609157,5.89834107 83.4473789,5.92010617 C83.3820836,5.94187127 83.2950232,5.94187127 83.2297279,5.94187127 C83.1644326,5.94187127 83.0991374,5.94187127 83.0338421,5.94187127 C82.9685468,5.94187127 82.9032515,5.94187127 82.8379562,5.94187127 C82.7726609,5.94187127 82.7073656,5.94187127 82.6420703,5.94187127 L80.6179164,13.6031851 L77.9625747,13.6031851 L80.0084937,5.94187127 L76.9613802,5.94187127 L74.9154612,13.6031851 L72.3036496,13.6031851 L74.9372263,3.76536165 L84.9056403,3.76536165 L84.9056403,3.74359655 Z" id="Path" fill-opacity="0.6"></path><path d="M96.3323159,3.74359655 C97.050564,3.76536165 97.6817518,3.87418713 98.182349,4.07007299 C98.7047113,4.28772395 99.0964831,4.5924353 99.4011944,5.00597213 C99.7059058,5.41950896 99.8800265,5.92010617 99.9670869,6.48599867 C100.032382,7.05189117 99.988852,7.70484406 99.8364964,8.42309224 C99.7712011,8.74956868 99.6841407,9.07604512 99.5753152,9.40252157 C99.4664897,9.72899801 99.314134,10.0337094 99.1617784,10.3601858 C98.9876576,10.6648971 98.7917717,10.9696085 98.5741208,11.2743198 C98.3564698,11.5572661 98.1170537,11.8402123 97.8341075,12.0796284 C97.5076311,12.4061048 97.1593895,12.667286 96.811148,12.8631719 C96.4629064,13.0590577 96.1146649,13.2114134 95.7446583,13.2984738 C95.3964167,13.3855342 95.0264101,13.4508295 94.6564035,13.4943597 C94.2863968,13.5378898 93.9163902,13.5596549 93.5463835,13.5596549 L91.3045786,13.5596549 L90.3469144,17.1073656 L87.7568679,17.1073656 L91.3481088,3.72183145 L96.3323159,3.72183145 L96.3323159,3.74359655 Z M91.848706,11.4702057 C91.8704711,11.4702057 91.8922362,11.4702057 91.9140013,11.4702057 C91.9357664,11.4702057 91.9575315,11.4702057 91.9792966,11.4702057 C92.0010617,11.4702057 92.0010617,11.4702057 92.0445919,11.4702057 C92.066357,11.4702057 92.0881221,11.4702057 92.1098872,11.4702057 C92.1534174,11.4702057 92.1969476,11.4702057 92.2404778,11.4702057 C92.284008,11.4702057 92.3275382,11.4702057 92.3710683,11.4702057 C92.9587259,11.4919708 93.5028534,11.4484406 94.0034506,11.4049104 C94.5040478,11.3396151 94.9611148,11.2525547 95.3746516,11.1219642 C95.7664234,10.9913736 96.1146649,10.6866622 96.4193762,10.2513603 C96.7240876,9.81605839 96.9635036,9.1848706 97.1593895,8.40132714 C97.3117452,7.74837425 97.3335103,7.22601194 97.2464499,6.85600531 C97.1593895,6.48599867 96.9635036,6.24658261 96.6370272,6.13775713 C96.3105508,6.02893165 95.9405441,5.96363636 95.5270073,5.92010617 C95.1134705,5.87657598 94.6564035,5.85481088 94.1558062,5.85481088 C94.0905109,5.87657598 94.0034506,5.87657598 93.9381553,5.87657598 C93.87286,5.87657598 93.8075647,5.87657598 93.7422694,5.87657598 C93.6769741,5.87657598 93.6116788,5.87657598 93.5463835,5.87657598 C93.4810883,5.87657598 93.415793,5.87657598 93.3504977,5.87657598 L93.3504977,5.85481088 L91.848706,11.4702057 Z" id="Shape" fill-opacity="0.6"></path><path d="M108.237823,3.74359655 C108.52077,3.76536165 108.781951,3.78712674 109.043132,3.80889184 C109.304313,3.83065693 109.565494,3.89595222 109.826676,3.93948242 C110.066092,3.98301261 110.305508,4.09183809 110.501393,4.22242867 C110.697279,4.35301924 110.8714,4.52714001 111.045521,4.74479098 C111.176111,4.91891175 111.284937,5.11479761 111.350232,5.31068348 C111.415528,5.50656934 111.459058,5.7459854 111.480823,5.96363636 C111.502588,6.20305242 111.480823,6.44246848 111.459058,6.68188454 C111.437293,6.9213006 111.371997,7.16071666 111.328467,7.42189781 L109.696085,13.5596549 L102.709489,13.5596549 C102.208892,13.5596549 101.77359,13.4943597 101.425348,13.3637691 C101.055342,13.2331785 100.794161,13.0155275 100.598275,12.7543464 C100.402389,12.4714001 100.293563,12.1449237 100.271798,11.753152 C100.250033,11.3831453 100.337094,10.9260783 100.489449,10.4472462 C100.685335,9.85958859 100.924751,9.38075647 101.229463,8.98898474 C101.534174,8.59721301 101.90418,8.31426676 102.339482,8.14014599 C102.753019,7.96602522 103.210086,7.83543464 103.667153,7.74837425 C104.12422,7.66131387 104.624818,7.61778368 105.14718,7.61778368 L108.5643,7.59601858 C108.694891,7.20424685 108.738421,6.8777704 108.694891,6.61658925 C108.65136,6.3554081 108.52077,6.18128733 108.324884,6.09422694 C108.128998,5.98540146 107.889582,5.92010617 107.606636,5.87657598 C107.323689,5.83304579 107.018978,5.81128069 106.670737,5.81128069 L102.361248,5.78951559 L102.905375,3.76536165 L108.237823,3.76536165 L108.237823,3.74359655 Z M107.49781,11.6007963 L108.041938,9.57664234 L104.973059,9.57664234 C104.951294,9.59840743 104.951294,9.59840743 104.929529,9.59840743 C104.907764,9.59840743 104.907764,9.59840743 104.885999,9.59840743 C104.864234,9.59840743 104.864234,9.59840743 104.842468,9.59840743 C104.820703,9.59840743 104.820703,9.59840743 104.798938,9.59840743 C104.624818,9.62017253 104.450697,9.64193762 104.276576,9.66370272 C104.102455,9.68546782 103.928334,9.75076311 103.754214,9.7942933 C103.601858,9.83782349 103.449502,9.94664897 103.340677,10.0772395 C103.231851,10.2295952 103.123026,10.403716 103.079496,10.5996019 C102.992435,10.8390179 102.97067,11.0349038 102.992435,11.1872595 C103.0142,11.3396151 103.101261,11.4266755 103.253616,11.4702057 C103.384207,11.5137359 103.536563,11.5572661 103.710683,11.5790312 C103.863039,11.6007963 104.03716,11.6225614 104.233046,11.6225614 L104.233046,11.6007963 L107.49781,11.6007963 Z" id="Shape" fill-opacity="0.6"></path><path d="M119.446848,3.74359655 C120.078036,3.76536165 120.643928,3.83065693 121.100995,3.93948242 C121.579827,4.07007299 121.949834,4.24419376 122.254545,4.50537492 C122.537492,4.74479098 122.711612,5.11479761 122.776908,5.59362973 C122.842203,6.07246184 122.776908,6.66011944 122.581022,7.35660252 L120.926875,13.5596549 L118.336828,13.5596549 L119.903915,7.63954877 C120.012741,7.31307233 120.056271,7.03012608 120.056271,6.79071002 C120.056271,6.55129396 120.012741,6.37717319 119.92568,6.26834771 C119.83862,6.15952223 119.686264,6.07246184 119.468613,6.00716656 C119.250962,5.94187127 118.968016,5.92010617 118.619774,5.92010617 L116.55209,5.89834107 L114.506171,13.5596549 L111.916125,13.5596549 L114.549701,3.72183145 L119.446848,3.72183145 L119.446848,3.74359655 Z" id="Path" fill-opacity="0.6"></path><path d="M130.00292,11.4049104 L132.048839,3.74359655 L134.638885,3.74359655 L132.070604,13.3202389 C131.918248,13.9296616 131.700597,14.473789 131.417651,14.9526211 C131.134705,15.4314532 130.829993,15.823225 130.438222,16.1279363 C130.04645,16.4544127 129.611148,16.6938288 129.088786,16.8461845 C128.588188,16.9985401 128.000531,17.0856005 127.347578,17.0856005 L122.254545,17.1073656 L122.776908,15.1049768 L127.412873,15.1049768 C127.69582,15.0832117 127.935236,15.0396815 128.131121,14.9743862 C128.348772,14.9090909 128.522893,14.8220305 128.697014,14.6914399 C128.871135,14.5608494 129.001725,14.4084937 129.110551,14.2126078 C129.219376,14.016722 129.306437,13.799071 129.371732,13.5596549 L127.086397,13.5596549 C126.411679,13.5596549 125.845786,13.4943597 125.366954,13.3637691 C124.888122,13.2331785 124.518115,13.0372926 124.256934,12.7543464 C123.973988,12.4931652 123.821632,12.1231586 123.778102,11.6225614 C123.734572,11.1219642 123.799867,10.5343066 123.995753,9.7942933 L125.628135,3.72183145 L128.196417,3.72183145 L126.62933,9.57664234 C126.520504,9.94664897 126.476974,10.2295952 126.455209,10.4907764 C126.433444,10.7301924 126.476974,10.9260783 126.564035,11.0349038 C126.62933,11.1654944 126.781685,11.2525547 126.999336,11.31785 C127.216987,11.3831453 127.499934,11.4049104 127.848175,11.4049104 L127.86994,11.3831453 L130.00292,11.3831453 L130.00292,11.4049104 Z" id="Path" fill-opacity="0.6"></path></g><g transform="translate(17.629728, 0.000000)" fill="#EE7D11" fill-rule="nonzero" id="Path"><path d="M6.44246848,3.59124088 C7.53072329,3.22123424 7.98779031,3.02534837 8.59721301,3.65653616 C9.2066357,4.28772395 9.51134705,5.13656271 9.51134705,5.13656271 C9.51134705,5.13656271 8.98898474,5.65892502 8.16191108,5.96363636 C7.61778368,6.15952223 6.9213006,6.26834771 6.9213006,6.26834771 C6.9213006,6.26834771 7.09542137,5.68069011 7.24777704,5.201858 C7.42189781,4.72302588 7.94426012,3.61300597 7.94426012,3.61300597 L7.42189781,3.54771068 C7.42189781,3.54771068 6.81247512,4.37478434 6.3118779,5.52833444 C5.94187127,6.39893829 5.72422031,7.40013271 5.72422031,7.40013271 C5.72422031,7.40013271 7.66131387,7.18248175 8.77133378,6.81247512 C9.88135368,6.44246848 10.7301924,6.11599204 10.9260783,5.87657598 C11.1437293,5.63715992 11.535501,5.07126742 11.7966821,3.61300597 C12.0143331,2.37239549 11.6225614,1.50179164 11.6225614,1.50179164 C11.6225614,1.50179164 11.4919708,1.43649635 10.9043132,1.6976775 C10.7954877,1.7412077 10.6866622,1.80650299 10.5996019,1.85003318 C10.403716,1.95885866 10.1642999,2.19827472 10.0337094,2.37239549 C10.2078301,2.76416722 10.403716,3.37358991 10.2513603,3.91771732 C9.59840743,2.93828799 9.03251493,2.41592568 8.51015262,2.24180491 C7.74837425,1.98062376 7.33483743,2.11121433 5.78951559,2.80769741 C4.44007963,3.41712011 1.95885866,4.87538155 0.696483079,5.63715992 C0.370006636,5.83304579 0.152355674,5.96363636 0.152355674,5.96363636 C0.152355674,5.96363636 5.26715328,4.0047777 6.44246848,3.59124088"></path><path d="M8.94545455,2.08944924 C8.94545455,2.08944924 9.40252157,1.63238222 10.2513603,1.1535501 C11.2307896,0.609422694 12.7108162,0.0870603849 12.7108162,0.0870603849 C12.7108162,0.0870603849 11.535501,0.304711347 9.94664897,1.04472462 C9.35899137,1.32767087 8.59721301,1.95885866 8.59721301,1.95885866 L8.94545455,2.08944924 Z"></path></g></g><g id="Group"><g transform="translate(108.390179, 1.741208)" fill="#023642"><path d="M0.500597213,29.0999336 C0.282946251,28.8822827 0.152355674,28.7081619 0.0652952887,28.5340411 C0,28.3599204 0.0652952887,28.0987392 0.261181155,27.7504977 L1.89356337,24.9428003 C2.06768414,24.6163238 2.3288653,24.4422031 2.63357664,24.420438 C2.96005309,24.3986729 3.22123424,24.4639681 3.41712011,24.6163238 C3.48241539,24.6380889 3.72183145,24.8122097 4.15713338,25.116921 C4.5924353,25.4216324 5.13656271,25.7263437 5.81128069,26.0745853 C6.46423358,26.4010617 7.20424685,26.7275382 7.98779031,27.0104844 C8.77133378,27.2934307 9.53311214,27.4457863 10.2513603,27.4457863 C11.4266755,27.4457863 12.4061048,27.0975448 13.1896483,26.4228268 C13.9731918,25.7481088 14.3649635,24.9210352 14.3649635,23.9633709 C14.3649635,22.8098208 13.8861314,21.8303915 12.9284672,20.9815528 C11.9708029,20.132714 10.5343066,19.3274054 8.6407432,18.543862 C7.59601858,18.1303251 6.55129396,17.6297279 5.52833444,17.0420703 C4.50537492,16.4761778 3.59124088,15.7796948 2.78593232,14.9961513 C1.98062376,14.2126078 1.34943597,13.2984738 0.870603849,12.2755143 C0.391771732,11.2525547 0.152355674,10.0772395 0.152355674,8.74956868 C0.152355674,7.74837425 0.348241539,6.72541473 0.740013271,5.70245521 C1.131785,4.65773059 1.7412077,3.72183145 2.54651626,2.8947578 C3.35182482,2.06768414 4.39654944,1.39296616 5.68069011,0.848838752 C6.96483079,0.326476443 8.51015262,0.0652952887 10.3166556,0.0652952887 C11.4702057,0.0652952887 12.5366954,0.195885866 13.5378898,0.457067021 C14.5390843,0.718248175 15.4532183,1.00119443 16.2367618,1.34943597 C17.0203052,1.67591241 17.6732581,2.02415395 18.2173855,2.35063039 C18.7615129,2.67710683 19.1315196,2.93828799 19.3491705,3.11240876 C19.5885866,3.26476443 19.7409423,3.48241539 19.7844725,3.78712674 C19.8280027,4.09183809 19.7844725,4.35301924 19.6321168,4.5924353 L17.9126742,7.18248175 C17.7385534,7.44366291 17.4991374,7.66131387 17.194426,7.79190445 C16.8897147,7.92249502 16.6067684,7.90072993 16.3455873,7.72660916 C16.2585269,7.66131387 15.9973457,7.5089582 15.5620438,7.22601194 C15.1267419,6.96483079 14.6043796,6.68188454 13.9949569,6.37717319 C13.3855342,6.09422694 12.7543464,5.83304579 12.0578633,5.59362973 C11.3613802,5.35421367 10.7084273,5.22362309 10.0772395,5.22362309 C8.77133378,5.22362309 7.79190445,5.57186463 7.11718646,6.26834771 C6.44246848,6.96483079 6.09422694,7.68307896 6.09422694,8.40132714 C6.09422694,9.46781685 6.52952887,10.3819509 7.37836762,11.1654944 C8.22720637,11.9490378 9.57664234,12.7108162 11.4266755,13.4725946 C12.5149303,13.9296616 13.6249502,14.4302588 14.7567352,15.0179164 C15.8885202,15.5838089 16.9114798,16.280292 17.8038487,17.0856005 C18.7179827,17.8909091 19.4362309,18.8268082 20.0238885,19.915063 C20.589781,21.0033179 20.8727273,22.2656934 20.8727273,23.7239549 C20.8727273,24.8992701 20.6333112,26.0310551 20.1544791,27.0975448 C19.675647,28.1640345 18.9791639,29.1216987 18.0650299,29.9487724 C17.1508958,30.7758461 16.062641,31.450564 14.7785003,31.9511612 C13.4943597,32.4517585 12.0360982,32.6476443 10.4472462,32.6476443 C9.03251493,32.6476443 7.74837425,32.4952887 6.63835435,32.2123424 C5.50656934,31.9293962 4.52714001,31.5811546 3.70006636,31.1893829 C2.8729927,30.7976111 2.19827472,30.4058394 1.67591241,30.0140677 C1.11001991,29.622296 0.740013271,29.3175846 0.500597213,29.0999336 Z" id="Path"></path><path d="M34.7153285,5.92010617 L27.7940279,5.92010617 C27.5546118,5.92010617 27.3587259,5.83304579 27.1846052,5.68069011 C27.0104844,5.50656934 26.9451891,5.31068348 26.9451891,5.07126742 L26.9451891,1.34943597 C26.9451891,1.11001991 27.0322495,0.914134041 27.1846052,0.740013271 C27.3587259,0.565892502 27.5546118,0.500597213 27.7940279,0.500597213 L47.5567352,0.500597213 C47.7961513,0.500597213 47.9920372,0.587657598 48.1661579,0.740013271 C48.3402787,0.914134041 48.405574,1.11001991 48.405574,1.34943597 L48.405574,5.07126742 C48.405574,5.31068348 48.3185136,5.50656934 48.1661579,5.68069011 C47.9920372,5.85481088 47.7961513,5.92010617 47.5567352,5.92010617 L40.6354346,5.92010617 L40.6354346,31.3199735 C40.6354346,31.5593895 40.5483743,31.7552754 40.3960186,31.9293962 C40.2218978,32.1035169 40.0260119,32.1688122 39.7865959,32.1688122 L35.5859323,32.1688122 C35.3465163,32.1688122 35.1506304,32.0817518 34.9765096,31.9293962 C34.8023889,31.7552754 34.7370936,31.5593895 34.7370936,31.3199735 L34.7370936,5.92010617 L34.7153285,5.92010617 Z" id="Path"></path><path d="M56.9592568,1.34943597 C56.9592568,1.11001991 57.0463172,0.914134041 57.1986729,0.740013271 C57.3727936,0.565892502 57.5686795,0.500597213 57.8080956,0.500597213 L70.7365627,0.500597213 C72.0859987,0.500597213 73.3701393,0.761778368 74.5672196,1.26237558 C75.7642999,1.78473789 76.8090246,2.48122097 77.7013935,3.35182482 C78.6155275,4.22242867 79.3120106,5.24538819 79.8343729,6.44246848 C80.3567352,7.61778368 80.5961513,8.88015926 80.5961513,10.2513603 C80.5961513,11.2743198 80.4220305,12.2537492 80.0955541,13.1896483 C79.7690776,14.1255474 79.3120106,14.9961513 78.724353,15.7796948 C78.1366954,16.5632382 77.4402123,17.2597213 76.6131387,17.8909091 C75.8078301,18.5003318 74.8936961,19.0226941 73.8925017,19.4144658 L80.0955541,30.9282017 C80.2479098,31.2329131 80.2479098,31.5158593 80.1173192,31.8205707 C79.9867286,32.1035169 79.7255474,32.2558726 79.3337757,32.2558726 L74.5889847,32.2558726 C74.3713338,32.2558726 74.2189781,32.2123424 74.1101526,32.125282 C74.0013271,32.0382216 73.9142668,31.9511612 73.8707366,31.8641009 L67.86357,19.8715328 L62.8358328,19.8715328 L62.8358328,31.4287989 C62.8358328,31.668215 62.7487724,31.8641009 62.5964167,32.0382216 C62.422296,32.2123424 62.2264101,32.2776377 61.986994,32.2776377 L57.8298607,32.2776377 C57.5904446,32.2776377 57.3945587,32.1905773 57.220438,32.0382216 C57.0463172,31.8641009 56.9810219,31.668215 56.9810219,31.4287989 L56.9810219,1.34943597 L56.9592568,1.34943597 Z M70.2359655,14.930856 C70.8453882,14.930856 71.4112807,14.8002654 71.9554081,14.5608494 C72.4995355,14.3214333 72.9783676,13.9949569 73.3701393,13.5596549 C73.7836762,13.1461181 74.1101526,12.6455209 74.3495687,12.0796284 C74.5889847,11.5137359 74.7195753,10.9260783 74.7195753,10.2948905 C74.7195753,9.68546782 74.5889847,9.11957532 74.3495687,8.59721301 C74.1101526,8.0748507 73.7836762,7.59601858 73.3701393,7.18248175 C72.9566025,6.76894492 72.4995355,6.46423358 71.9554081,6.22481752 C71.4112807,6.00716656 70.8453882,5.87657598 70.2359655,5.87657598 L62.8575979,5.87657598 L62.8575979,14.8873258 L70.2359655,14.8873258 L70.2359655,14.930856 L70.2359655,14.930856 Z" id="Shape"></path><path d="M87.5609821,32.1905773 C87.2345056,32.1905773 86.9733245,32.0599867 86.8209688,31.8205707 C86.646848,31.5811546 86.646848,31.2982084 86.7992037,31.0152621 L100.859456,0.544127405 C101.033577,0.217650962 101.294758,0.0435301924 101.621234,0.0435301924 L102.078301,0.0435301924 C102.317717,0.0435301924 102.491838,0.0870603849 102.600664,0.17412077 C102.709489,0.261181155 102.796549,0.391771732 102.84008,0.544127405 L116.769741,31.0152621 C116.922097,31.3199735 116.922097,31.5811546 116.747976,31.8205707 C116.573855,32.0599867 116.334439,32.1905773 116.007963,32.1905773 L112.06848,32.1905773 C111.742004,32.1905773 111.480823,32.125282 111.284937,31.9946914 C111.089051,31.8641009 110.91493,31.6246848 110.762575,31.2982084 L108.542535,26.4010617 L95.0264101,26.4010617 L92.8063703,31.2982084 C92.7193099,31.5376244 92.5669542,31.7552754 92.3493033,31.9293962 C92.1316523,32.1035169 91.848706,32.1905773 91.5004645,32.1905773 L87.5609821,32.1905773 Z M106.322495,21.3733245 L101.795355,11.4049104 L101.664764,11.4049104 L97.2246848,21.3733245 L106.322495,21.3733245 Z" id="Shape"></path><path d="M124.714001,0.848838752 C124.714001,0.609422694 124.801062,0.413536828 124.953417,0.261181155 C125.127538,0.108825481 125.323424,0.0435301924 125.56284,0.0435301924 L126.694625,0.0435301924 L145.499668,20.0674187 L145.543198,20.0674187 L145.543198,1.37120106 C145.543198,1.131785 145.630259,0.935899137 145.782614,0.761778368 C145.956735,0.587657598 146.152621,0.522362309 146.392037,0.522362309 L150.549171,0.522362309 C150.788587,0.522362309 150.984472,0.609422694 151.158593,0.761778368 C151.332714,0.935899137 151.398009,1.131785 151.398009,1.37120106 L151.398009,31.8423358 C151.398009,32.0817518 151.310949,32.2776377 151.158593,32.4299934 C150.984472,32.582349 150.788587,32.6476443 150.549171,32.6476443 L149.460916,32.6476443 L130.568812,11.8619774 L130.525282,11.8619774 L130.525282,31.3417386 C130.525282,31.5811546 130.438222,31.7770405 130.285866,31.9511612 C130.111745,32.125282 129.915859,32.1905773 129.676443,32.1905773 L125.56284,32.1905773 C125.323424,32.1905773 125.127538,32.1035169 124.953417,31.9511612 C124.779297,31.7770405 124.714001,31.5811546 124.714001,31.3417386 L124.714001,0.848838752 L124.714001,0.848838752 Z" id="Path"></path><path d="M163.499403,1.34943597 C163.499403,1.11001991 163.564698,0.914134041 163.717054,0.740013271 C163.869409,0.565892502 164.065295,0.500597213 164.304711,0.500597213 L175.013139,0.500597213 C177.189648,0.500597213 179.235567,0.914134041 181.150896,1.7412077 C183.087989,2.56828135 184.763902,3.70006636 186.222163,5.13656271 C187.65866,6.57305906 188.81221,8.24897147 189.639283,10.1642999 C190.466357,12.0796284 190.879894,14.1255474 190.879894,16.3020571 C190.879894,18.5003318 190.466357,20.5680159 189.639283,22.5051095 C188.81221,24.4422031 187.680425,26.1181155 186.222163,27.5546118 C184.785667,28.9911082 183.087989,30.1228932 181.150896,30.9499668 C179.213802,31.7770405 177.167883,32.1905773 175.013139,32.1905773 L164.304711,32.1905773 C164.065295,32.1905773 163.869409,32.1035169 163.717054,31.9511612 C163.564698,31.7770405 163.499403,31.5811546 163.499403,31.3417386 L163.499403,1.34943597 Z M174.490776,26.6622429 C175.970803,26.6622429 177.320239,26.4010617 178.560849,25.8786994 C179.80146,25.3563371 180.86795,24.6163238 181.760319,23.7021898 C182.674453,22.7880557 183.370936,21.6780358 183.893298,20.4156603 C184.41566,19.1532847 184.655076,17.7820836 184.655076,16.3020571 C184.655076,14.8220305 184.393895,13.4508295 183.893298,12.210219 C183.370936,10.9478434 182.674453,9.88135368 181.760319,8.94545455 C180.846184,8.0313205 179.779695,7.29130723 178.560849,6.76894492 C177.320239,6.24658261 175.970803,5.98540146 174.490776,5.98540146 L169.332449,5.98540146 L169.332449,26.684008 L174.490776,26.6622429 L174.490776,26.6622429 Z" id="Shape"></path><path d="M199.06357,29.0999336 C198.845919,28.8822827 198.715328,28.7081619 198.628268,28.5340411 C198.562973,28.3599204 198.628268,28.0987392 198.824154,27.7504977 L200.456536,24.9428003 C200.630657,24.6163238 200.891838,24.4422031 201.196549,24.420438 C201.523026,24.3986729 201.784207,24.4639681 201.980093,24.6163238 C202.045388,24.6380889 202.284804,24.8122097 202.720106,25.116921 C203.155408,25.4216324 203.699536,25.7263437 204.374253,26.0745853 C205.027206,26.4010617 205.76722,26.7275382 206.550763,27.0104844 C207.334307,27.2934307 208.096085,27.4457863 208.814333,27.4457863 C209.989648,27.4457863 210.969078,27.0975448 211.752621,26.4228268 C212.536165,25.7481088 212.927936,24.9210352 212.927936,23.9633709 C212.927936,22.8098208 212.449104,21.8303915 211.49144,20.9815528 C210.533776,20.132714 209.097279,19.3274054 207.203716,18.543862 C206.158991,18.1303251 205.114267,17.6297279 204.091307,17.0420703 C203.068348,16.4761778 202.154214,15.7796948 201.348905,14.9961513 C200.543597,14.2126078 199.912409,13.2984738 199.433577,12.2755143 C198.954745,11.2525547 198.715328,10.0772395 198.715328,8.74956868 C198.715328,7.74837425 198.911214,6.72541473 199.302986,5.70245521 C199.694758,4.67949569 200.30418,3.72183145 201.109489,2.8947578 C201.914798,2.06768414 202.959522,1.39296616 204.243663,0.848838752 C205.527804,0.326476443 207.073125,0.0652952887 208.879628,0.0652952887 C210.033179,0.0652952887 211.099668,0.195885866 212.100863,0.457067021 C213.102057,0.718248175 214.016191,1.00119443 214.799735,1.34943597 C215.583278,1.67591241 216.236231,2.02415395 216.780358,2.35063039 C217.324486,2.67710683 217.694492,2.93828799 217.912143,3.11240876 C218.151559,3.26476443 218.303915,3.48241539 218.347445,3.78712674 C218.390975,4.09183809 218.347445,4.35301924 218.19509,4.5924353 L216.475647,7.18248175 C216.301526,7.44366291 216.06211,7.66131387 215.757399,7.79190445 C215.452687,7.92249502 215.169741,7.90072993 214.90856,7.72660916 C214.8215,7.66131387 214.560319,7.5089582 214.125017,7.22601194 C213.689715,6.96483079 213.167352,6.68188454 212.55793,6.37717319 C211.948507,6.09422694 211.317319,5.83304579 210.620836,5.59362973 C209.924353,5.35421367 209.2714,5.22362309 208.640212,5.22362309 C207.334307,5.22362309 206.354877,5.57186463 205.680159,6.26834771 C205.005441,6.96483079 204.6572,7.68307896 204.6572,8.40132714 C204.6572,9.46781685 205.092502,10.3819509 205.94134,11.1654944 C206.790179,11.9490378 208.139615,12.7108162 209.989648,13.4725946 C211.077903,13.9296616 212.187923,14.4302588 213.319708,15.0179164 C214.451493,15.5838089 215.474453,16.280292 216.366821,17.0856005 C217.280956,17.8909091 217.999204,18.8268082 218.586861,19.915063 C219.152754,21.0033179 219.4357,22.2656934 219.4357,23.7239549 C219.4357,24.8992701 219.196284,26.0310551 218.717452,27.0975448 C218.23862,28.1640345 217.542137,29.1216987 216.628003,29.9487724 C215.713869,30.7758461 214.625614,31.450564 213.341473,31.9511612 C212.057332,32.4517585 210.620836,32.6911745 209.031984,32.6911745 C207.617253,32.6911745 206.333112,32.5388188 205.223092,32.2558726 C204.091307,31.9729263 203.111878,31.6246848 202.284804,31.2329131 C201.457731,30.8411413 200.783013,30.4493696 200.26065,30.0575979 C199.694758,29.622296 199.324751,29.3175846 199.06357,29.0999336 Z" id="Path"></path></g><g fill="#00AAA1" id="Path"><path d="M84.81858,4.94067684 C84.81858,7.96602522 82.4897147,10.0119443 79.0508295,10.0119443 L59.5928334,9.99017916 C58.0039814,9.99017916 56.8069011,10.2731254 55.9580624,11.1872595 L35.7818182,32.7347047 C33.6488388,34.9982747 30.3623092,36.2824154 26.8363636,36.2824154 C26.8145985,36.2824154 5.85481088,36.2824154 5.85481088,36.2824154 C2.39416058,36.2824154 0.0870603849,34.3670869 0.0870603849,31.3852687 C0.0870603849,28.3599204 2.41592568,26.3357664 5.85481088,26.3357664 L25.2257465,26.3357664 C26.8363636,26.3357664 27.815793,25.9439947 28.7081619,25.0080956 L48.7973457,3.56947578 C50.9956204,1.24061048 53.7380226,0.0651117203 58.0257465,0.0651117203 C58.0475116,0.0651117203 79.0725946,0.0651117203 79.0725946,0.0651117203 C82.4897147,0.0435301924 84.81858,1.95885866 84.81858,4.94067684"></path><g fill-opacity="0.6"><path d="M33.3005972,16.1279363 C30.6017253,13.2549436 28.6428666,11.1872595 28.6428666,11.1872595 C27.7722628,10.2731254 26.7928334,9.99017916 25.1822163,9.99017916 L5.83304579,10.0119443 C2.37239549,10.0119443 0.0652952887,7.96602522 0.0652952887,4.94067684 C0.0652952887,1.95885866 2.39416058,0.0435301924 5.83304579,0.0435301924 L26.8145985,0.0435301924 C30.3405441,0.0435301924 33.6488388,1.24061048 35.8253484,3.56947578 C35.8253484,3.56947578 37.7624419,5.65892502 40.4395488,8.51015262 L33.3005972,16.1279363 Z"></path><path d="M51.2568016,20.1109489 C53.9121433,22.9404114 55.8274718,25.0080956 55.8274718,25.0080956 C56.6980756,25.9439947 58.0039814,26.3357664 59.5057731,26.3357664 L79.0508295,26.3140013 C82.5114798,26.3140013 84.81858,28.3381553 84.81858,31.3852687 C84.81858,34.3670869 82.5114798,36.2824154 79.0508295,36.2824154 L57.8298607,36.2824154 C53.6944924,36.2824154 50.9520902,34.9982747 48.9497014,32.7782349 C48.9497014,32.7782349 46.9255474,30.6234904 44.1613802,27.6852024 L51.2568016,20.1109489 Z"></path></g></g></g></g></g></g></svg> 