<?xml version="1.0" encoding="utf-8"?>
<!-- Generator: Adobe Illustrator 25.3.1, SVG Export Plug-In . SVG Version: 6.00 Build 0)  -->
<svg version="1.1" xmlns="http://www.w3.org/2000/svg" xmlns:xlink="http://www.w3.org/1999/xlink" x="0px" y="0px"
	 viewBox="0 0 750 500" style="enable-background:new 0 0 750 500;" xml:space="preserve">
<style type="text/css">
	.st0{fill:#E0E0E0;}
	.st1{fill:#EBEBEB;}
	.st2{fill:#F0F0F0;}
	.st3{display:none;}
	.st4{display:inline;}
	.st5{fill:#407BFF;}
	.st6{opacity:0.9;}
	.st7{fill:#FFFFFF;}
	.st8{fill:#F5F5F5;}
	.st9{opacity:0.3;}
	.st10{fill:#263238;}
	.st11{opacity:0.5;fill:#FFFFFF;}
	.st12{opacity:0.3;fill:#FFFFFF;}
	.st13{opacity:0.6;fill:#FFFFFF;}
	.st14{fill:none;stroke:#407BFF;stroke-linecap:round;stroke-linejoin:round;stroke-miterlimit:10;}
	.st15{fill:#FFB7B1;}
	.st16{opacity:0.4;fill:#FFFFFF;enable-background:new    ;}
	.st17{opacity:0.8;fill:#FFFFFF;enable-background:new    ;}
	.st18{opacity:0.2;enable-background:new    ;}
	.st19{fill:#FF6E6A;}
	.st20{fill:none;stroke:#263238;stroke-width:0.5;stroke-linecap:round;stroke-linejoin:round;stroke-miterlimit:10;}
	.st21{opacity:0.2;fill:none;stroke:#263238;stroke-width:0.5;stroke-linecap:round;stroke-linejoin:round;stroke-miterlimit:10;}
	.st22{fill:none;stroke:#263238;stroke-width:2;stroke-linecap:round;stroke-linejoin:round;}
	.st23{opacity:0.2;fill:none;stroke:#263238;stroke-width:2;stroke-miterlimit:10;enable-background:new    ;}
	.st24{opacity:0.2;fill:#FFFFFF;enable-background:new    ;}
	.st25{opacity:0.6;fill:#FFFFFF;enable-background:new    ;}
</style>
<g id="Background_complete">
	<g>
		<g>
			<g>
				<g>
					<g>
						<path class="st0" d="M691.6,321.9H510.9c-3.2,0-5.9-2.6-5.9-5.9V52.7c0-3.2,2.6-5.9,5.9-5.9h180.7c3.2,0,5.9,2.6,5.9,5.9V316
							C697.5,319.2,694.9,321.9,691.6,321.9z M510.9,47.1c-3.1,0-5.6,2.5-5.6,5.6V316c0,3.1,2.5,5.6,5.6,5.6h180.7
							c3.1,0,5.6-2.5,5.6-5.6V52.7c0-3.1-2.5-5.6-5.6-5.6H510.9z"/>
					</g>
				</g>
				<g>
					<g>
						<path class="st0" d="M483.2,321.9H302.5c-3.2,0-5.9-2.6-5.9-5.9V52.7c0-3.2,2.6-5.9,5.9-5.9h180.7c3.2,0,5.9,2.6,5.9,5.9V316
							C489.1,319.2,486.5,321.9,483.2,321.9z M302.5,47.1c-3.1,0-5.6,2.5-5.6,5.6V316c0,3.1,2.5,5.6,5.6,5.6h180.7
							c3.1,0,5.6-2.5,5.6-5.6V52.7c0-3.1-2.5-5.6-5.6-5.6H302.5z"/>
					</g>
				</g>
			</g>
			<g>
				<g>
					<g>
						<path class="st0" d="M274.9,321.9H94.2c-3.2,0-5.9-2.6-5.9-5.9V52.7c0-3.2,2.6-5.9,5.9-5.9h180.7c3.2,0,5.9,2.6,5.9,5.9V316
							C280.8,319.2,278.2,321.9,274.9,321.9z M94.2,47.1c-3.1,0-5.6,2.5-5.6,5.6V316c0,3.1,2.5,5.6,5.6,5.6h180.7
							c3.1,0,5.6-2.5,5.6-5.6V52.7c0-3.1-2.5-5.6-5.6-5.6H94.2z"/>
					</g>
				</g>
			</g>
		</g>
		<g>
			<g>
				<g>
					<rect y="382.9" class="st0" width="750" height="0.1"/>
				</g>
			</g>
			<g>
				<rect x="653.6" y="412.3" class="st1" width="55.7" height="0.4"/>
				<rect x="495" y="416.9" class="st1" width="14.6" height="0.4"/>
				<rect x="40.6" y="399.5" class="st1" width="72.7" height="0.4"/>
				<rect x="128.3" y="399.5" class="st1" width="10.7" height="0.4"/>
				<rect x="173.6" y="406.6" class="st1" width="157.6" height="0.4"/>
			</g>
		</g>
	</g>
	<g>
		<path class="st2" d="M268,69h-29.9c-0.8,0-1.4-0.8-1.4-1.7V60c0-0.9,0.6-1.7,1.4-1.7H268c0.8,0,1.4,0.8,1.4,1.7v7.2
			C269.4,68.2,268.8,69,268,69z"/>
		<path class="st2" d="M268,95.5h-29.9c-0.8,0-1.4-0.8-1.4-1.7v-7.2c0-0.9,0.6-1.7,1.4-1.7H268c0.8,0,1.4,0.8,1.4,1.7v7.2
			C269.4,94.7,268.8,95.5,268,95.5z"/>
		<path class="st2" d="M278,82.2h-29.9c-0.8,0-1.4-0.8-1.4-1.7v-7.2c0-0.9,0.6-1.7,1.4-1.7H278c0.8,0,1.4,0.8,1.4,1.7v7.2
			C279.5,81.5,278.8,82.2,278,82.2z"/>
		<path class="st1" d="M243.7,82.2h-29.9c-0.8,0-1.4-0.8-1.4-1.7v-7.2c0-0.9,0.6-1.7,1.4-1.7h29.9c0.8,0,1.4,0.8,1.4,1.7v7.2
			C245.2,81.5,244.5,82.2,243.7,82.2z"/>
	</g>
	<g>
		<path class="st2" d="M541.4,270.4h-29.9c-0.8,0-1.4-0.8-1.4-1.7v-7.2c0-0.9,0.6-1.7,1.4-1.7h29.9c0.8,0,1.4,0.8,1.4,1.7v7.2
			C542.9,269.6,542.2,270.4,541.4,270.4z"/>
		<path class="st2" d="M541.4,296.9h-29.9c-0.8,0-1.4-0.8-1.4-1.7v-7.2c0-0.9,0.6-1.7,1.4-1.7h29.9c0.8,0,1.4,0.8,1.4,1.7v7.2
			C542.9,296.1,542.2,296.9,541.4,296.9z"/>
		<path class="st2" d="M551.5,283.7h-29.9c-0.8,0-1.4-0.8-1.4-1.7v-7.2c0-0.9,0.6-1.7,1.4-1.7h29.9c0.8,0,1.4,0.8,1.4,1.7v7.2
			C552.9,282.9,552.2,283.7,551.5,283.7z"/>
		<path class="st1" d="M517.2,283.7h-29.9c-0.8,0-1.4-0.8-1.4-1.7v-7.2c0-0.9,0.6-1.7,1.4-1.7h29.9c0.8,0,1.4,0.8,1.4,1.7v7.2
			C518.6,282.9,517.9,283.7,517.2,283.7z"/>
	</g>
	<g>
		<path class="st2" d="M363.5,257.3h-29.9c-0.8,0-1.4-0.8-1.4-1.7v-7.2c0-0.9,0.6-1.7,1.4-1.7h29.9c0.8,0,1.4,0.8,1.4,1.7v7.2
			C364.9,256.6,364.3,257.3,363.5,257.3z"/>
		<path class="st1" d="M353.1,270.4h-29.9c-0.8,0-1.4-0.8-1.4-1.7v-7.2c0-0.9,0.6-1.7,1.4-1.7h29.9c0.8,0,1.4,0.8,1.4,1.7v7.2
			C354.6,269.6,353.9,270.4,353.1,270.4z"/>
	</g>
	<path class="st2" d="M375.9,157.5h-29.9c-0.8,0-1.4-0.8-1.4-1.7v-7.2c0-0.9,0.6-1.7,1.4-1.7h29.9c0.8,0,1.4,0.8,1.4,1.7v7.2
		C377.3,156.7,376.6,157.5,375.9,157.5z"/>
	<path class="st2" d="M499.3,49.9h-29.9c-0.8,0-1.4-0.8-1.4-1.7V41c0-0.9,0.6-1.7,1.4-1.7h29.9c0.8,0,1.4,0.8,1.4,1.7v7.2
		C500.7,49.2,500.1,49.9,499.3,49.9z"/>
	<g>
		<path class="st2" d="M563.7,148.8h-29.9c-0.8,0-1.4-0.8-1.4-1.7v-7.2c0-0.9,0.6-1.7,1.4-1.7h29.9c0.8,0,1.4,0.8,1.4,1.7v7.2
			C565.1,148.1,564.4,148.8,563.7,148.8z"/>
		<path class="st2" d="M527.7,148.8h-29.9c-0.8,0-1.4-0.8-1.4-1.7v-7.2c0-0.9,0.6-1.7,1.4-1.7h29.9c0.8,0,1.4,0.8,1.4,1.7v7.2
			C529.1,148.1,528.5,148.8,527.7,148.8z"/>
		<path class="st1" d="M551.7,162.6l-29.9,0.2c-0.8,0-1.4-0.8-1.4-1.7l0-7.2c0-0.9,0.6-1.7,1.4-1.7l29.9-0.2c0.8,0,1.4,0.8,1.4,1.7
			l0,7.2C553.1,161.8,552.5,162.6,551.7,162.6z"/>
	</g>
	<g>
		<path class="st2" d="M671.9,66.3H642c-0.8,0-1.4-0.8-1.4-1.7v-7.2c0-0.9,0.6-1.7,1.4-1.7h29.9c0.8,0,1.4,0.8,1.4,1.7v7.2
			C673.3,65.5,672.7,66.3,671.9,66.3z"/>
		<path class="st1" d="M659.9,80.1L630,80.3c-0.8,0-1.4-0.8-1.4-1.7l0-7.2c0-0.9,0.6-1.7,1.4-1.7l29.9-0.2c0.8,0,1.4,0.8,1.4,1.7
			l0,7.2C661.3,79.3,660.7,80.1,659.9,80.1z"/>
	</g>
	<g>
		<path class="st2" d="M94.9,85.3H65c-0.8,0-1.4-0.8-1.4-1.7v-7.2c0-0.9,0.6-1.7,1.4-1.7h29.9c0.8,0,1.4,0.8,1.4,1.7v7.2
			C96.4,84.5,95.7,85.3,94.9,85.3z"/>
		<path class="st2" d="M169.4,38.5h-29.9c-0.8,0-1.4-0.8-1.4-1.7v-7.2c0-0.9,0.6-1.7,1.4-1.7h29.9c0.8,0,1.4,0.8,1.4,1.7v7.2
			C170.8,37.8,170.2,38.5,169.4,38.5z"/>
		<path class="st1" d="M86,99.2l-32.3,0.2c-0.8,0-1.5-0.8-1.5-1.7l0-7.2c0-0.9,0.7-1.7,1.5-1.7l32.3-0.2c0.8,0,1.5,0.8,1.5,1.7
			l0,7.2C87.5,98.5,86.8,99.2,86,99.2z"/>
	</g>
</g>
<g id="Background_simple" class="st3">
	<g class="st4">
		<g>
			<path class="st5" d="M608.4,129.2c-29.6-16.4-69.3-19-106.5-15.4s-73.6,12.9-110.6,18.2c-17.9,2.6-37.8,4-52.1-3.9
				c-15.8-8.8-19.1-25.8-29.6-38.4c-16.8-20.2-51.8-28-83.6-24.1c-31.8,3.9-69.3,19.9-87.1,46.7c-18.1,24.2-27.8,52.4-23.7,79.4
				c4.1,27,22.8,52.4,52.5,66.1c27.5,12.8,61.7,14.9,94.7,14.1c63.6-1.4,131-11.8,187.9,7.7c24,8.2,44.8,21.4,69.9,27.6
				c37.2,9.1,82.8-0.1,109.3-24c22.1-19.9,29.4-47.1,28.1-72.5C656,179.3,640.9,147.2,608.4,129.2z"/>
		</g>
		<g class="st6">
			<path class="st7" d="M608.4,129.2c-29.6-16.4-69.3-19-106.5-15.4s-73.6,12.9-110.6,18.2c-17.9,2.6-37.8,4-52.1-3.9
				c-15.8-8.8-19.1-25.8-29.6-38.4c-16.8-20.2-51.8-28-83.6-24.1c-31.8,3.9-69.3,19.9-87.1,46.7c-18.1,24.2-27.8,52.4-23.7,79.4
				c4.1,27,22.8,52.4,52.5,66.1c27.5,12.8,61.7,14.9,94.7,14.1c63.6-1.4,131-11.8,187.9,7.7c24,8.2,44.8,21.4,69.9,27.6
				c37.2,9.1,82.8-0.1,109.3-24c22.1-19.9,29.4-47.1,28.1-72.5C656,179.3,640.9,147.2,608.4,129.2z"/>
		</g>
	</g>
</g>
<g id="Shadow">
	<g>
		<g>
			<path class="st8" d="M690.1,453.5c0,10.2-141.1,18.5-315.1,18.5s-315.1-8.3-315.1-18.5C59.9,443.3,201,435,375,435
				S690.1,443.3,690.1,453.5z"/>
		</g>
	</g>
</g>
<g id="Shelves">
	<g>
		<path class="st1" d="M412,173.5H382c-0.8,0-1.4-0.8-1.4-1.7v-7.2c0-0.9,0.6-1.7,1.4-1.7H412c0.8,0,1.4,0.8,1.4,1.7v7.2
			C413.4,172.7,412.7,173.5,412,173.5z"/>
	</g>
	<g>
		<g>
			<g>
				<rect x="326.7" y="59.8" class="st5" width="50.4" height="42.8"/>
				<rect x="326.7" y="59.8" class="st9" width="10.3" height="42.8"/>
				<g>
					<g>
						<path class="st10" d="M326.7,83.2c16.6,0,33.2,0,49.8,0c0.5,0,0.5-0.8,0-0.8c-16.6,0-33.2,0-49.8,0
							C326.2,82.5,326.2,83.2,326.7,83.2L326.7,83.2z"/>
					</g>
				</g>
				<rect x="340.1" y="85.4" class="st7" width="6.4" height="8.9"/>
			</g>
			<g>
				<rect x="437.4" y="59.8" class="st5" width="50.4" height="42.8"/>
				<rect x="437.4" y="59.8" class="st11" width="50.4" height="42.8"/>
				<rect x="437.4" y="59.8" class="st9" width="10.3" height="42.8"/>
				<g>
					<g>
						<path class="st10" d="M437.4,83.2c16.6,0,33.2,0,49.8,0c0.5,0,0.5-0.8,0-0.8c-16.6,0-33.2,0-49.8,0
							C436.9,82.5,436.9,83.2,437.4,83.2L437.4,83.2z"/>
					</g>
				</g>
				<rect x="450.8" y="85.4" class="st7" width="6.4" height="8.9"/>
			</g>
			<g>
				<rect x="382" y="82.8" class="st5" width="50.4" height="19.7"/>
				<rect x="382" y="82.8" class="st9" width="10.3" height="19.7"/>
				<rect x="395.5" y="94.2" class="st7" width="10.4" height="4.6"/>
			</g>
			<g>
				<rect x="389" y="63.2" class="st5" width="50.4" height="19.7"/>
				<rect x="389" y="63.2" class="st9" width="10.3" height="19.7"/>
				<rect x="402.4" y="74.6" class="st7" width="10.4" height="4.6"/>
			</g>
			<g>
				<rect x="371.2" y="118.8" class="st5" width="70.4" height="87.8"/>
				<rect x="371.2" y="118.8" class="st11" width="70.4" height="87.8"/>
				<rect x="371.2" y="118.8" class="st9" width="9.2" height="88.3"/>
				<rect x="407.5" y="145.1" class="st7" width="6.4" height="14.2"/>
				<g>
					<g>
						<path class="st10" d="M371.2,145.5c18.3,0,36.6,0,54.9,0c5.2,0,10.3,0,15.5,0c0.5,0,0.5-0.8,0-0.8c-18.3,0-36.6,0-54.9,0
							c-5.2,0-10.3,0-15.5,0C370.7,144.8,370.7,145.5,371.2,145.5L371.2,145.5z"/>
					</g>
				</g>
				<g>
					<g>
						<path class="st10" d="M371.2,176.5c18.4,0,36.7,0,55.1,0c5.2,0,10.5,0,15.7,0c0.5,0,0.5-0.8,0-0.8c-18.4,0-36.7,0-55.1,0
							c-5.2,0-10.5,0-15.7,0C370.7,175.7,370.7,176.5,371.2,176.5L371.2,176.5z"/>
					</g>
				</g>
				<rect x="407.5" y="118.8" class="st7" width="6.4" height="14.2"/>
				<rect x="421" y="179" class="st7" width="14.3" height="6.3"/>
			</g>
			<g>
				<path class="st10" d="M314.3,101.3v23l12.2-11.2h174.9l10.8,9.3v-21.1H314.3z M357.3,108.8h-18.6v-2.5h18.6V108.8z M390.4,108.8
					h-18.6v-2.5h18.6V108.8z M423.6,108.8H405v-2.5h18.6V108.8z M456.7,108.8h-18.6v-2.5h18.6V108.8z M489.1,108.8h-18.6v-2.5h18.6
					V108.8z"/>
				<path class="st12" d="M314.3,101.3v23l12.2-11.2h174.9l10.8,9.3v-21.1H314.3z M357.3,108.8h-18.6v-2.5h18.6V108.8z M390.4,108.8
					h-18.6v-2.5h18.6V108.8z M423.6,108.8H405v-2.5h18.6V108.8z M456.7,108.8h-18.6v-2.5h18.6V108.8z M489.1,108.8h-18.6v-2.5h18.6
					V108.8z"/>
			</g>
			<g>
				<path class="st10" d="M314.3,219.3v23l12.2-11.2h174.9l10.8,9.3v-21.1H314.3z M357.3,226.7h-18.6v-2.5h18.6V226.7z M390.4,226.7
					h-18.6v-2.5h18.6V226.7z M423.6,226.7H405v-2.5h18.6V226.7z M456.7,226.7h-18.6v-2.5h18.6V226.7z M489.1,226.7h-18.6v-2.5h18.6
					V226.7z"/>
				<path class="st12" d="M314.3,219.3v23l12.2-11.2h174.9l10.8,9.3v-21.1H314.3z M357.3,226.7h-18.6v-2.5h18.6V226.7z M390.4,226.7
					h-18.6v-2.5h18.6V226.7z M423.6,226.7H405v-2.5h18.6V226.7z M456.7,226.7h-18.6v-2.5h18.6V226.7z M489.1,226.7h-18.6v-2.5h18.6
					V226.7z"/>
			</g>
			<g>
				<rect x="326.1" y="206.7" class="st10" width="9.8" height="12.4"/>
				<rect x="371.2" y="206.7" class="st10" width="9.8" height="12.4"/>
				<rect x="335" y="206.7" class="st10" width="38.3" height="5.6"/>
			</g>
			<g>
				<rect x="380.2" y="206.7" class="st10" width="9.8" height="12.4"/>
				<rect x="425.4" y="206.7" class="st10" width="9.8" height="12.4"/>
				<rect x="389.2" y="206.7" class="st10" width="38.3" height="5.6"/>
			</g>
			<g>
				<rect x="435.7" y="206.7" class="st10" width="9.8" height="12.4"/>
				<rect x="480.8" y="206.7" class="st10" width="9.8" height="12.4"/>
				<rect x="444.6" y="206.7" class="st10" width="38.3" height="5.6"/>
			</g>
			<rect x="326.7" y="163.9" class="st5" width="50.4" height="42.8"/>
			<rect x="326.7" y="163.9" class="st9" width="10.3" height="42.7"/>
			<g>
				<g>
					<path class="st10" d="M326.7,187.4c16.6,0,33.2,0,49.8,0c0.5,0,0.5-0.8,0-0.8c-16.6,0-33.2,0-49.8,0
						C326.2,186.6,326.2,187.4,326.7,187.4L326.7,187.4z"/>
				</g>
			</g>
			<rect x="364.8" y="166.8" class="st7" width="6.4" height="8.9"/>
			<rect x="340.1" y="189.6" class="st7" width="6.4" height="8.9"/>
			<g>
				<rect x="441.6" y="171.8" class="st5" width="47.5" height="34.8"/>
				<rect x="441.6" y="171.8" class="st9" width="9.4" height="34.8"/>
				<rect x="457.4" y="176.1" class="st7" width="9.2" height="11.6"/>
			</g>
			<g>
				<rect x="371.2" y="273.9" class="st5" width="70.4" height="87.8"/>
				<rect x="371.2" y="273.9" class="st9" width="9.2" height="88.3"/>
				<rect x="407.5" y="300.2" class="st7" width="6.4" height="14.2"/>
				<g>
					<g>
						<path class="st10" d="M371.2,300.6c18.3,0,36.6,0,54.9,0c5.2,0,10.3,0,15.5,0c0.5,0,0.5-0.8,0-0.8c-18.3,0-36.6,0-54.9,0
							c-5.2,0-10.3,0-15.5,0C370.7,299.8,370.7,300.6,371.2,300.6L371.2,300.6z"/>
					</g>
				</g>
				<g>
					<g>
						<path class="st10" d="M371.2,331.5c18.4,0,36.7,0,55.1,0c5.2,0,10.5,0,15.7,0c0.5,0,0.5-0.8,0-0.8c-18.4,0-36.7,0-55.1,0
							c-5.2,0-10.5,0-15.7,0C370.7,330.8,370.7,331.5,371.2,331.5L371.2,331.5z"/>
					</g>
				</g>
				<rect x="407.5" y="273.9" class="st7" width="6.4" height="14.2"/>
				<rect x="421" y="334.1" class="st7" width="14.3" height="6.3"/>
			</g>
			<g>
				<path class="st10" d="M314.3,374.3v23l12.2-11.2h174.9l10.8,9.3v-21.1H314.3z M357.3,381.8h-18.6v-2.5h18.6V381.8z M390.4,381.8
					h-18.6v-2.5h18.6V381.8z M423.6,381.8H405v-2.5h18.6V381.8z M456.7,381.8h-18.6v-2.5h18.6V381.8z M489.1,381.8h-18.6v-2.5h18.6
					V381.8z"/>
				<path class="st12" d="M314.3,374.3v23l12.2-11.2h174.9l10.8,9.3v-21.1H314.3z M357.3,381.8h-18.6v-2.5h18.6V381.8z M390.4,381.8
					h-18.6v-2.5h18.6V381.8z M423.6,381.8H405v-2.5h18.6V381.8z M456.7,381.8h-18.6v-2.5h18.6V381.8z M489.1,381.8h-18.6v-2.5h18.6
					V381.8z"/>
			</g>
			<g>
				<rect x="326.1" y="361.8" class="st10" width="9.8" height="12.4"/>
				<rect x="371.2" y="361.8" class="st10" width="9.8" height="12.4"/>
				<rect x="335" y="361.8" class="st10" width="38.3" height="5.6"/>
			</g>
			<g>
				<rect x="380.2" y="361.8" class="st10" width="9.8" height="12.4"/>
				<rect x="425.4" y="361.8" class="st10" width="9.8" height="12.4"/>
				<rect x="389.2" y="361.8" class="st10" width="38.3" height="5.6"/>
			</g>
			<g>
				<rect x="435.7" y="361.8" class="st10" width="9.8" height="12.4"/>
				<rect x="480.8" y="361.8" class="st10" width="9.8" height="12.4"/>
				<rect x="444.6" y="361.8" class="st10" width="38.3" height="5.6"/>
			</g>
			<rect x="326.7" y="318.9" class="st5" width="50.4" height="42.8"/>
			<rect x="326.7" y="318.9" class="st11" width="50.4" height="42.8"/>
			<g>
				<g>
					<path class="st10" d="M326.7,342.4c16.6,0,33.2,0,49.8,0c0.5,0,0.5-0.8,0-0.8c-16.6,0-33.2,0-49.8,0
						C326.2,341.7,326.2,342.4,326.7,342.4L326.7,342.4z"/>
				</g>
			</g>
			<rect x="364.8" y="321.9" class="st7" width="6.4" height="8.9"/>
			<rect x="340.1" y="344.6" class="st7" width="6.4" height="8.9"/>
			<g>
				<rect x="441.6" y="327.2" class="st5" width="47.5" height="34.8"/>
				<rect x="441.6" y="327.2" class="st9" width="9.4" height="34.8"/>
				<rect x="457.4" y="331.5" class="st7" width="9.2" height="11.6"/>
			</g>
			<g>
				<rect x="441.6" y="292.3" class="st5" width="47.5" height="34.8"/>
				<rect x="441.6" y="292.3" class="st11" width="47.5" height="34.8"/>
				<rect x="441.6" y="292.3" class="st9" width="9.4" height="34.8"/>
				<rect x="457.4" y="296.6" class="st7" width="9.2" height="11.6"/>
			</g>
			<g>
				<rect x="329.4" y="284.2" class="st5" width="47.5" height="34.9"/>
				<rect x="329.4" y="284.2" class="st9" width="9.4" height="34.9"/>
				<rect x="345.1" y="288.5" class="st7" width="9.2" height="11.7"/>
				<g>
					<g>
						<path class="st10" d="M327,319.5c16.7,0,33.3,0,50,0c0.5,0,0.5-0.8,0-0.8c-16.7,0-33.3,0-50,0
							C326.5,318.7,326.5,319.5,327,319.5L327,319.5z"/>
					</g>
				</g>
			</g>
			<rect x="310.4" y="44.5" class="st10" width="7.6" height="369.9"/>
			<rect x="310.4" y="44.5" class="st12" width="7.6" height="369.9"/>
			<g>
				<rect x="508.4" y="44.5" class="st10" width="7.6" height="369.9"/>
				<rect x="508.4" y="44.5" class="st12" width="7.6" height="369.9"/>
			</g>
			<g>
				<g>
					<path class="st10" d="M488.7,326.7c-15.3,0-30.6,0-45.9,0c-0.5,0-0.5,0.8,0,0.8c15.3,0,30.6,0,45.9,0
						C489.2,327.4,489.2,326.7,488.7,326.7L488.7,326.7z"/>
				</g>
			</g>
		</g>
		<g>
			<g>
				<rect x="651.6" y="59.8" class="st5" width="50.4" height="42.8"/>
				<rect x="651.6" y="59.8" class="st9" width="10.3" height="42.8"/>
				<g>
					<g>
						<path class="st10" d="M651.6,83.2c16.6,0,33.2,0,49.8,0c0.5,0,0.5-0.8,0-0.8c-16.6,0-33.2,0-49.8,0
							C651.1,82.5,651.1,83.2,651.6,83.2L651.6,83.2z"/>
					</g>
				</g>
				<rect x="665" y="85.4" class="st7" width="6.4" height="8.9"/>
			</g>
			<g>
				<rect x="596.2" y="82.8" class="st5" width="50.4" height="19.7"/>
				<rect x="596.2" y="82.8" class="st9" width="10.3" height="19.7"/>
				<rect x="609.6" y="94.2" class="st7" width="10.4" height="4.6"/>
			</g>
			<g>
				<rect x="542.2" y="82.8" class="st5" width="50.4" height="19.7"/>
				<rect x="542.2" y="82.8" class="st11" width="50.4" height="19.7"/>
				<rect x="542.2" y="82.8" class="st9" width="10.3" height="19.7"/>
				<rect x="555.6" y="94.2" class="st7" width="10.4" height="4.6"/>
			</g>
			<g>
				<rect x="585.4" y="145.1" class="st5" width="70.4" height="61.4"/>
				<rect x="585.4" y="145.1" class="st9" width="9.2" height="62"/>
				<rect x="621.7" y="145.1" class="st7" width="6.4" height="14.2"/>
				<g>
					<g>
						<path class="st10" d="M585.4,176.5c18.4,0,36.7,0,55.1,0c5.2,0,10.5,0,15.7,0c0.5,0,0.5-0.8,0-0.8c-18.4,0-36.7,0-55.1,0
							c-5.2,0-10.5,0-15.7,0C584.9,175.7,584.9,176.5,585.4,176.5L585.4,176.5z"/>
					</g>
				</g>
				<rect x="635.1" y="179" class="st7" width="14.3" height="6.3"/>
			</g>
			<g>
				<path class="st10" d="M528.4,101.3v23l12.2-11.2h174.9l10.8,9.3v-21.1H528.4z M571.4,108.8h-18.6v-2.5h18.6V108.8z M604.6,108.8
					H586v-2.5h18.6V108.8z M637.7,108.8h-18.6v-2.5h18.6V108.8z M670.9,108.8h-18.6v-2.5h18.6V108.8z M703.3,108.8h-18.6v-2.5h18.6
					V108.8z"/>
				<path class="st12" d="M528.4,101.3v23l12.2-11.2h174.9l10.8,9.3v-21.1H528.4z M571.4,108.8h-18.6v-2.5h18.6V108.8z M604.6,108.8
					H586v-2.5h18.6V108.8z M637.7,108.8h-18.6v-2.5h18.6V108.8z M670.9,108.8h-18.6v-2.5h18.6V108.8z M703.3,108.8h-18.6v-2.5h18.6
					V108.8z"/>
			</g>
			<g>
				<path class="st10" d="M528.4,219.3v23l12.2-11.2h174.9l10.8,9.3v-21.1H528.4z M571.4,226.7h-18.6v-2.5h18.6V226.7z M604.6,226.7
					H586v-2.5h18.6V226.7z M637.7,226.7h-18.6v-2.5h18.6V226.7z M670.9,226.7h-18.6v-2.5h18.6V226.7z M703.3,226.7h-18.6v-2.5h18.6
					V226.7z"/>
				<path class="st12" d="M528.4,219.3v23l12.2-11.2h174.9l10.8,9.3v-21.1H528.4z M571.4,226.7h-18.6v-2.5h18.6V226.7z M604.6,226.7
					H586v-2.5h18.6V226.7z M637.7,226.7h-18.6v-2.5h18.6V226.7z M670.9,226.7h-18.6v-2.5h18.6V226.7z M703.3,226.7h-18.6v-2.5h18.6
					V226.7z"/>
			</g>
			<g>
				<rect x="540.2" y="206.7" class="st10" width="9.8" height="12.4"/>
				<rect x="585.4" y="206.7" class="st10" width="9.8" height="12.4"/>
				<rect x="549.2" y="206.7" class="st10" width="38.3" height="5.6"/>
			</g>
			<g>
				<rect x="594.4" y="206.7" class="st10" width="9.8" height="12.4"/>
				<rect x="639.5" y="206.7" class="st10" width="9.8" height="12.4"/>
				<rect x="603.3" y="206.7" class="st10" width="38.3" height="5.6"/>
			</g>
			<g>
				<rect x="649.9" y="206.7" class="st10" width="9.8" height="12.4"/>
				<rect x="695" y="206.7" class="st10" width="9.8" height="12.4"/>
				<rect x="658.8" y="206.7" class="st10" width="38.3" height="5.6"/>
			</g>
			<rect x="540.9" y="163.9" class="st5" width="50.4" height="42.8"/>
			<rect x="540.9" y="163.9" class="st12" width="50.4" height="42.8"/>
			<rect x="540.9" y="163.9" class="st9" width="10.3" height="42.7"/>
			<g>
				<g>
					<path class="st10" d="M540.9,187.4c16.6,0,33.2,0,49.8,0c0.5,0,0.5-0.8,0-0.8c-16.6,0-33.2,0-49.8,0
						C540.4,186.6,540.4,187.4,540.9,187.4L540.9,187.4z"/>
				</g>
			</g>
			<rect x="578.9" y="166.8" class="st7" width="6.4" height="8.9"/>
			<rect x="554.3" y="189.6" class="st7" width="6.4" height="8.9"/>
			<g>
				<rect x="655.8" y="171.8" class="st5" width="47.5" height="34.8"/>
				<rect x="655.8" y="171.8" class="st12" width="47.5" height="34.8"/>
				<rect x="655.8" y="171.8" class="st9" width="9.4" height="34.8"/>
				<rect x="671.5" y="176.1" class="st7" width="9.2" height="11.6"/>
			</g>
			<g>
				<rect x="626.4" y="273.9" class="st5" width="70.4" height="87.8"/>
				<rect x="626.4" y="273.9" class="st9" width="9.2" height="88.3"/>
				<rect x="662.7" y="300.2" class="st7" width="6.4" height="14.2"/>
				<g>
					<g>
						<path class="st10" d="M626.4,300.6c18.3,0,36.6,0,54.9,0c5.2,0,10.3,0,15.5,0c0.5,0,0.5-0.8,0-0.8c-18.3,0-36.6,0-54.9,0
							c-5.2,0-10.3,0-15.5,0C625.9,299.8,625.9,300.6,626.4,300.6L626.4,300.6z"/>
					</g>
				</g>
				<g>
					<g>
						<path class="st10" d="M626.4,331.5c18.4,0,36.7,0,55.1,0c5.2,0,10.5,0,15.7,0c0.5,0,0.5-0.8,0-0.8c-18.4,0-36.7,0-55.1,0
							c-5.2,0-10.5,0-15.7,0C625.9,330.8,625.9,331.5,626.4,331.5L626.4,331.5z"/>
					</g>
				</g>
				<rect x="662.7" y="273.9" class="st7" width="6.4" height="14.2"/>
				<rect x="676.2" y="334.1" class="st7" width="14.3" height="6.3"/>
			</g>
			<g>
				<rect x="558.9" y="273.9" class="st5" width="70.4" height="87.8"/>
				<rect x="558.9" y="273.9" class="st11" width="70.4" height="87.8"/>
				<rect x="558.9" y="273.9" class="st9" width="9.2" height="88.3"/>
				<rect x="595.2" y="300.2" class="st7" width="6.4" height="14.2"/>
				<g>
					<g>
						<path class="st10" d="M558.9,300.6c18.3,0,36.6,0,54.9,0c5.2,0,10.3,0,15.5,0c0.5,0,0.5-0.8,0-0.8c-18.3,0-36.6,0-54.9,0
							c-5.2,0-10.3,0-15.5,0C558.4,299.8,558.4,300.6,558.9,300.6L558.9,300.6z"/>
					</g>
				</g>
				<g>
					<g>
						<path class="st10" d="M558.9,331.5c18.4,0,36.7,0,55.1,0c5.2,0,10.5,0,15.7,0c0.5,0,0.5-0.8,0-0.8c-18.4,0-36.7,0-55.1,0
							c-5.2,0-10.5,0-15.7,0C558.4,330.8,558.4,331.5,558.9,331.5L558.9,331.5z"/>
					</g>
				</g>
				<rect x="595.2" y="273.9" class="st7" width="6.4" height="14.2"/>
				<rect x="608.6" y="334.1" class="st7" width="14.3" height="6.3"/>
			</g>
			<g>
				<path class="st10" d="M528.4,374.3v23l12.2-11.2h174.9l10.8,9.3v-21.1H528.4z M571.4,381.8h-18.6v-2.5h18.6V381.8z M604.6,381.8
					H586v-2.5h18.6V381.8z M637.7,381.8h-18.6v-2.5h18.6V381.8z M670.9,381.8h-18.6v-2.5h18.6V381.8z M703.3,381.8h-18.6v-2.5h18.6
					V381.8z"/>
				<path class="st12" d="M528.4,374.3v23l12.2-11.2h174.9l10.8,9.3v-21.1H528.4z M571.4,381.8h-18.6v-2.5h18.6V381.8z M604.6,381.8
					H586v-2.5h18.6V381.8z M637.7,381.8h-18.6v-2.5h18.6V381.8z M670.9,381.8h-18.6v-2.5h18.6V381.8z M703.3,381.8h-18.6v-2.5h18.6
					V381.8z"/>
			</g>
			<g>
				<rect x="626.4" y="361.2" class="st10" width="9.8" height="12.4"/>
				<rect x="687.1" y="361.2" class="st10" width="9.8" height="12.4"/>
				<rect x="635.3" y="361.2" class="st10" width="58.2" height="5.6"/>
			</g>
			<g>
				<rect x="556.6" y="361.2" class="st10" width="9.8" height="12.4"/>
				<rect x="617.3" y="361.2" class="st10" width="9.8" height="12.4"/>
				<rect x="565.5" y="361.2" class="st10" width="58.2" height="5.6"/>
			</g>
			<g>
				<rect x="649.3" y="238.9" class="st5" width="47.5" height="34.9"/>
				<rect x="649.3" y="238.9" class="st9" width="9.4" height="34.9"/>
				<rect x="665" y="243.3" class="st7" width="9.2" height="11.7"/>
				<g>
					<g>
						<path class="st10" d="M649.3,274.2c15.8,0,31.7,0,47.5,0c0.5,0,0.5-0.8,0-0.8c-15.8,0-31.7,0-47.5,0
							C648.8,273.5,648.8,274.2,649.3,274.2L649.3,274.2z"/>
					</g>
				</g>
			</g>
			<rect x="524.6" y="44.5" class="st10" width="7.6" height="369.9"/>
			<rect x="524.6" y="44.5" class="st12" width="7.6" height="369.9"/>
			<g>
				<rect x="722.5" y="44.5" class="st10" width="7.6" height="369.9"/>
				<rect x="722.5" y="44.5" class="st12" width="7.6" height="369.9"/>
			</g>
		</g>
		<g>
			<rect x="655.8" y="146.8" class="st5" width="51.8" height="12.6"/>
			<rect x="655.8" y="146.8" class="st9" width="9.4" height="12.5"/>
			<rect x="696.4" y="148.6" class="st7" width="9.1" height="4.5"/>
		</g>
		<g>
			<rect x="655.8" y="159.4" class="st5" width="51.8" height="12.6"/>
			<rect x="655.8" y="159.4" class="st9" width="9.4" height="12.5"/>
			<rect x="696.4" y="161.1" class="st7" width="9.1" height="4.5"/>
			<g>
				<g>
					<path class="st10" d="M656.2,159.9c17.2,0,34.3,0,51.5,0c0.5,0,0.5-0.8,0-0.8c-17.2,0-34.3,0-51.5,0
						C655.7,159.2,655.7,159.9,656.2,159.9L656.2,159.9z"/>
				</g>
			</g>
		</g>
	</g>
</g>
<g id="Door">
	<g>
		<g>
			<g>
				<rect x="50.6" y="115.7" class="st10" width="239.5" height="268.5"/>
				<rect x="50.6" y="115.7" class="st13" width="239.5" height="268.5"/>
			</g>
			<g>
				<g>
					<g>
						<path class="st10" d="M50.8,127.3c31.1,0,62.3,0,93.4,0s62.3,0,93.4,0c17.5,0,35,0,52.5,0c0.5,0,0.5-0.8,0-0.8
							c-31.1,0-62.3,0-93.4,0s-62.3,0-93.4,0c-17.5,0-35,0-52.5,0C50.3,126.6,50.3,127.3,50.8,127.3L50.8,127.3z"/>
					</g>
				</g>
				<g>
					<g>
						<path class="st10" d="M50.8,141.5c31.1,0,62.3,0,93.4,0s62.3,0,93.4,0c17.5,0,35,0,52.5,0c0.5,0,0.5-0.8,0-0.8
							c-31.1,0-62.3,0-93.4,0s-62.3,0-93.4,0c-17.5,0-35,0-52.5,0C50.3,140.7,50.3,141.5,50.8,141.5L50.8,141.5z"/>
					</g>
				</g>
				<g>
					<g>
						<path class="st10" d="M50.8,155.6c31.1,0,62.3,0,93.4,0s62.3,0,93.4,0c17.5,0,35,0,52.5,0c0.5,0,0.5-0.8,0-0.8
							c-31.1,0-62.3,0-93.4,0s-62.3,0-93.4,0c-17.5,0-35,0-52.5,0C50.3,154.8,50.3,155.6,50.8,155.6L50.8,155.6z"/>
					</g>
				</g>
			</g>
			<g>
				<g>
					<g>
						<path class="st10" d="M50.8,171c31.1,0,62.3,0,93.4,0s62.3,0,93.4,0c17.5,0,35,0,52.5,0c0.5,0,0.5-0.8,0-0.8
							c-31.1,0-62.3,0-93.4,0s-62.3,0-93.4,0c-17.5,0-35,0-52.5,0C50.3,170.3,50.3,171,50.8,171L50.8,171z"/>
					</g>
				</g>
				<g>
					<g>
						<path class="st10" d="M50.8,185.1c31.1,0,62.3,0,93.4,0s62.3,0,93.4,0c17.5,0,35,0,52.5,0c0.5,0,0.5-0.8,0-0.8
							c-31.1,0-62.3,0-93.4,0s-62.3,0-93.4,0c-17.5,0-35,0-52.5,0C50.3,184.4,50.3,185.1,50.8,185.1L50.8,185.1z"/>
					</g>
				</g>
				<g>
					<g>
						<path class="st10" d="M50.8,199.3c31.1,0,62.3,0,93.4,0s62.3,0,93.4,0c17.5,0,35,0,52.5,0c0.5,0,0.5-0.8,0-0.8
							c-31.1,0-62.3,0-93.4,0s-62.3,0-93.4,0c-17.5,0-35,0-52.5,0C50.3,198.5,50.3,199.3,50.8,199.3L50.8,199.3z"/>
					</g>
				</g>
			</g>
			<g>
				<g>
					<g>
						<path class="st10" d="M50.8,214.7c31.1,0,62.3,0,93.4,0s62.3,0,93.4,0c17.5,0,35,0,52.5,0c0.5,0,0.5-0.8,0-0.8
							c-31.1,0-62.3,0-93.4,0s-62.3,0-93.4,0c-17.5,0-35,0-52.5,0C50.3,213.9,50.3,214.7,50.8,214.7L50.8,214.7z"/>
					</g>
				</g>
				<g>
					<g>
						<path class="st10" d="M50.8,228.8c31.1,0,62.3,0,93.4,0s62.3,0,93.4,0c17.5,0,35,0,52.5,0c0.5,0,0.5-0.8,0-0.8
							c-31.1,0-62.3,0-93.4,0s-62.3,0-93.4,0c-17.5,0-35,0-52.5,0C50.3,228,50.3,228.8,50.8,228.8L50.8,228.8z"/>
					</g>
				</g>
				<g>
					<g>
						<path class="st10" d="M50.8,242.9c31.1,0,62.3,0,93.4,0s62.3,0,93.4,0c17.5,0,35,0,52.5,0c0.5,0,0.5-0.8,0-0.8
							c-31.1,0-62.3,0-93.4,0s-62.3,0-93.4,0c-17.5,0-35,0-52.5,0C50.3,242.2,50.3,242.9,50.8,242.9L50.8,242.9z"/>
					</g>
				</g>
			</g>
			<g>
				<g>
					<g>
						<path class="st10" d="M50.8,258.3c31.1,0,62.3,0,93.4,0s62.3,0,93.4,0c17.5,0,35,0,52.5,0c0.5,0,0.5-0.8,0-0.8
							c-31.1,0-62.3,0-93.4,0s-62.3,0-93.4,0c-17.5,0-35,0-52.5,0C50.3,257.6,50.3,258.3,50.8,258.3L50.8,258.3z"/>
					</g>
				</g>
				<g>
					<g>
						<path class="st10" d="M50.8,272.5c31.1,0,62.3,0,93.4,0s62.3,0,93.4,0c17.5,0,35,0,52.5,0c0.5,0,0.5-0.8,0-0.8
							c-31.1,0-62.3,0-93.4,0s-62.3,0-93.4,0c-17.5,0-35,0-52.5,0C50.3,271.7,50.3,272.5,50.8,272.5L50.8,272.5z"/>
					</g>
				</g>
				<g>
					<g>
						<path class="st10" d="M50.8,286.6c31.1,0,62.3,0,93.4,0s62.3,0,93.4,0c17.5,0,35,0,52.5,0c0.5,0,0.5-0.8,0-0.8
							c-31.1,0-62.3,0-93.4,0s-62.3,0-93.4,0c-17.5,0-35,0-52.5,0C50.3,285.8,50.3,286.6,50.8,286.6L50.8,286.6z"/>
					</g>
				</g>
			</g>
			<g>
				<g>
					<g>
						<path class="st10" d="M50.8,302c31.1,0,62.3,0,93.4,0s62.3,0,93.4,0c17.5,0,35,0,52.5,0c0.5,0,0.5-0.8,0-0.8
							c-31.1,0-62.3,0-93.4,0s-62.3,0-93.4,0c-17.5,0-35,0-52.5,0C50.3,301.3,50.3,302,50.8,302L50.8,302z"/>
					</g>
				</g>
				<g>
					<g>
						<path class="st10" d="M50.8,316.1c31.1,0,62.3,0,93.4,0s62.3,0,93.4,0c17.5,0,35,0,52.5,0c0.5,0,0.5-0.8,0-0.8
							c-31.1,0-62.3,0-93.4,0s-62.3,0-93.4,0c-17.5,0-35,0-52.5,0C50.3,315.4,50.3,316.1,50.8,316.1L50.8,316.1z"/>
					</g>
				</g>
				<g>
					<g>
						<path class="st10" d="M50.8,330.2c31.1,0,62.3,0,93.4,0s62.3,0,93.4,0c17.5,0,35,0,52.5,0c0.5,0,0.5-0.8,0-0.8
							c-31.1,0-62.3,0-93.4,0s-62.3,0-93.4,0c-17.5,0-35,0-52.5,0C50.3,329.5,50.3,330.2,50.8,330.2L50.8,330.2z"/>
					</g>
				</g>
			</g>
			<g>
				<g>
					<g>
						<path class="st10" d="M50.8,345.7c31.1,0,62.3,0,93.4,0s62.3,0,93.4,0c17.5,0,35,0,52.5,0c0.5,0,0.5-0.8,0-0.8
							c-31.1,0-62.3,0-93.4,0s-62.3,0-93.4,0c-17.5,0-35,0-52.5,0C50.3,344.9,50.3,345.7,50.8,345.7L50.8,345.7z"/>
					</g>
				</g>
				<g>
					<g>
						<path class="st10" d="M50.8,359.8c31.1,0,62.3,0,93.4,0s62.3,0,93.4,0c17.5,0,35,0,52.5,0c0.5,0,0.5-0.8,0-0.8
							c-31.1,0-62.3,0-93.4,0s-62.3,0-93.4,0c-17.5,0-35,0-52.5,0C50.3,359,50.3,359.8,50.8,359.8L50.8,359.8z"/>
					</g>
				</g>
				<g>
					<g>
						<path class="st10" d="M50.8,373.9c31.1,0,62.3,0,93.4,0s62.3,0,93.4,0c17.5,0,35,0,52.5,0c0.5,0,0.5-0.8,0-0.8
							c-31.1,0-62.3,0-93.4,0s-62.3,0-93.4,0c-17.5,0-35,0-52.5,0C50.3,373.2,50.3,373.9,50.8,373.9L50.8,373.9z"/>
					</g>
				</g>
			</g>
		</g>
		<g class="st9">
			<path class="st7" d="M275,115.7c3.9,17.1-0.9,36.4-10.3,50.2c-9.4,13.8-22.6,23.3-36.3,30.7c-13.6,7.4-27.9,13-41.4,20.7
				c-10.3,5.9-20.1,12.9-29.8,19.9c-3.1,2.2-6.6,5.2-6.7,9.5c-0.1,5.9,5.8,8.8,10.7,10c9.1,2.2,19.1,4.4,25.2,12.7
				c6.2,8.5,6.5,21,4.4,32c-3.3,18-11.9,34.2-22.3,48c-10.4,13.7-21.3,23.5-33.6,34.9l-84.4-0.1c39.2-15.2,82.8-44.8,113-78
				c6.1-6.7,12.5-15.8,10.4-25.3c-1.8-8.2-9.3-12.8-16.3-14.4c-7.1-1.6-14.5-1.3-21.2-4.3c-6.7-3-12.7-11.2-10.8-19.4
				c1.1-4.9,4.7-8.4,8.2-11.4c28.3-24.2,62.6-38,89.1-64.8c6.2-6.3,12.2-13.7,14.5-23c2.3-9.3-4.9-23.4-12.2-28L275,115.7z"/>
		</g>
	</g>
</g>
<g id="Boxes">
	<g>
		<rect x="216.5" y="363" class="st5" width="86.4" height="49.2"/>
		<rect x="216.5" y="363" class="st9" width="86.4" height="49.2"/>
		<rect x="252.5" y="332.2" class="st5" width="50.4" height="30.8"/>
		<rect x="252.5" y="332.2" class="st11" width="50.4" height="30.8"/>
		<rect x="287.3" y="336.2" class="st7" width="12.1" height="6.6"/>
		<rect x="239.2" y="369.9" class="st7" width="18.4" height="13"/>
		<rect x="216.5" y="363" class="st9" width="16.4" height="49.2"/>
		<rect x="252.5" y="332.2" class="st9" width="14.2" height="30.8"/>
		<g>
			<g>
				<path class="st10" d="M302.9,362.2c-22.5,0-44.9,0-67.4,0c-6.3,0-12.7,0-19,0c-0.5,0-0.5,0.8,0,0.8c22.5,0,44.9,0,67.4,0
					c6.3,0,12.7,0,19,0C303.4,363,303.4,362.2,302.9,362.2L302.9,362.2z"/>
			</g>
		</g>
	</g>
</g>
<g id="Speech_Bubble">
	<g>
		<path class="st5" d="M74.3,200.8c-6.7-5.8-16.9-4.8-22.4,2.3c-4.8,6.2-4.1,15.4,1.7,20.7c5,4.7,12.3,5.4,17.9,2.3l3.6,1.3
			c0.4,0.1,0.7-0.1,0.7-0.5l-0.1-4.1c0.1-0.1,0.1-0.1,0.2-0.2C81.4,216.2,80.7,206.4,74.3,200.8z"/>
		<path class="st14" d="M46.5,209.7c0.1-5,2.9-9.9,7.2-12.6"/>
		<path class="st14" d="M55.7,196c0.6-0.4,1.3-0.8,2.1-0.9"/>
		<g>
			<polygon class="st7" points="63.5,219.6 55.6,213.7 57.7,211 62.9,214.9 70.2,206.2 72.8,208.4 			"/>
		</g>
	</g>
</g>
<g id="Character">
	<g>
		<g>
			<polygon class="st15" points="99.8,438.7 106.5,438.7 105.9,453.4 99.2,453.4 			"/>
			<path class="st10" d="M108,453.1c1.7,1.4,5.6,2.9,10.7,3.9c1.1,0.2,0.8,2.8-2,2.8c-2.8,0-9-0.2-11-0.2c-3.3,0-5.2,0.2-7.9,0.2
				h-0.2c0,0,0,0,0,0c-0.5-0.1-0.9-0.6-0.8-1.1l1.3-5.6c0.1-0.3,0.3-0.4,0.6-0.4h8.2C107.3,452.7,107.7,452.8,108,453.1z"/>
			<path class="st5" d="M107.4,453.6c-0.1,0-0.1-0.1-0.1-0.1c0-0.1,0-0.1,0.1-0.1c0.2-0.2,2.4-1.4,3.1-1c0.2,0.1,0.3,0.2,0.3,0.4
				c0,0.3-0.1,0.6-0.3,0.8c-0.4,0.3-0.9,0.4-1.3,0.3C108.5,453.8,107.9,453.7,107.4,453.6z M110.1,452.5c-0.8,0.1-1.6,0.4-2.3,0.9
				c0.8,0.3,1.6,0.2,2.4-0.1c0.2-0.1,0.2-0.3,0.2-0.5c0-0.2-0.1-0.2-0.1-0.2C110.2,452.5,110.1,452.5,110.1,452.5L110.1,452.5z"/>
			<path class="st5" d="M107.3,453.6c-0.1,0-0.1-0.1-0.1-0.1c0-0.1,0.2-1.9,1-2.5c0.2-0.2,0.4-0.2,0.7-0.2c0.2,0,0.5,0.2,0.5,0.4
				c0.1,0.7-1.2,2.1-1.9,2.4L107.3,453.6L107.3,453.6z M108.7,451c-0.1,0-0.3,0.1-0.3,0.2c-0.5,0.6-0.7,1.3-0.8,2
				c0.7-0.5,1.5-1.5,1.5-2C109,451.1,109,451,108.7,451L108.7,451L108.7,451z"/>
		</g>
		<g>
			<polygon class="st15" points="63.6,438.8 70.3,438.8 69.7,453.4 63,453.4 			"/>
			<path class="st10" d="M71.8,453.1c1.7,1.4,5.6,2.9,10.7,3.9c1.1,0.2,0.8,2.8-2,2.8s-9-0.2-11-0.2c-3.3,0-5.2,0.2-7.9,0.2h-0.2
				c0,0,0,0,0,0c-0.5-0.1-0.9-0.6-0.8-1.1l1.3-5.6c0.1-0.3,0.3-0.4,0.6-0.4h8.2C71.1,452.7,71.5,452.9,71.8,453.1z"/>
			<path class="st5" d="M71.2,453.6c-0.1,0-0.1-0.1-0.1-0.1c0-0.1,0-0.1,0.1-0.1c0.2-0.2,2.4-1.4,3.1-1c0.2,0.1,0.3,0.2,0.3,0.4
				c0,0.3-0.1,0.6-0.3,0.8c-0.4,0.3-0.9,0.4-1.3,0.3C72.3,453.8,71.7,453.7,71.2,453.6z M73.9,452.5c-0.8,0.1-1.6,0.4-2.3,0.9
				c0.8,0.3,1.6,0.2,2.4-0.1c0.2-0.1,0.2-0.3,0.2-0.5c0-0.2-0.1-0.2-0.1-0.2C74,452.5,73.9,452.5,73.9,452.5L73.9,452.5z"/>
			<path class="st5" d="M71.1,453.7c-0.1,0-0.1-0.1-0.1-0.1c0-0.1,0.2-1.9,1-2.5c0.2-0.2,0.4-0.2,0.7-0.2c0.2,0,0.5,0.2,0.5,0.4
				c0.1,0.7-1.2,2.1-1.9,2.4L71.1,453.7L71.1,453.7z M72.5,451c-0.1,0-0.3,0.1-0.3,0.2c-0.5,0.6-0.7,1.3-0.8,2
				c0.7-0.5,1.5-1.5,1.5-2C72.8,451.2,72.8,451.1,72.5,451L72.5,451L72.5,451z"/>
		</g>
		<path class="st10" d="M66.6,309.7h42c3.3,18.1,6.4,82-1.1,138.9l-11.5,0c0,0,0.1-75.4-5.1-103.2c-1.2,14.9-6.7,43.2-8,51.7
			c-3,20.8-9.8,52.2-9.8,52.2h-12c0,0,2.4-43.6,3.6-64.1C66,363,66.6,314.3,66.6,309.7z"/>
		<g>
			<g>
				<path class="st15" d="M107.6,270.3c0,0-2.1,20.2-0.7,22.9c1.4,2.7,29,9.2,29,9.2l1.5-6.1c0,0-20.8-8.3-21.3-9.9
					c-0.2-0.8,1-13.6,1-13.6L107.6,270.3z"/>
			</g>
			<g>
				<path class="st15" d="M143.7,306.5c-0.9-1.8-1.7-2.6-1.7-2.6s-5.6-0.3-7.3-1.3c-0.4-0.2-0.8-0.5-1.1-0.8l-7.8-2.1l1.6-7.1
					l9.2,3.2c1,0,9.7,0.2,11.7,1.6l0,0c0,0,4.8,4.1,5.4,4.9c0.6,0.9-0.5,1.8-1.3,1.4c-0.4-0.2-1.5-1.3-1.8-1.4
					c0.2,1.1,0.2,2.1-0.1,2.4c-0.7,0.9-2.7-2.5-2.9-3c0.2,0.4,1.8,3.4,1,4.8c-0.9,1.5-1.4-0.1-1.4-0.1l-1.6-2.8c0,0,1.1,2.7,0.6,4.2
					C145.8,308.7,144.6,308.2,143.7,306.5z"/>
			</g>
			<g>
				<g>
					<path class="st10" d="M135.7,299.4c0.5,1.1,1.8,1.5,2.9,1.6c0.8,0,1.6-0.1,2.4,0c0.7,0.1,1.5,0.3,2.1,0.7
						c0.6,0.3,1,0.8,1.7,0.9c0.5,0.1,1-0.1,1.3-0.6c0.7-1.2-1.1-2.4-1.9-3c-1.3-1-2.7-1.7-4.2-2.2c-0.5-0.1-0.7,0.6-0.2,0.7
						c1.4,0.4,2.7,1.1,3.9,2c0.6,0.4,1.3,0.9,1.7,1.5c0.2,0.4,0.2,0.8-0.4,0.8c-0.4,0-0.7-0.3-0.9-0.5c-1.2-0.9-2.5-1.2-3.9-1.2
						c-1.3,0-3.1,0.2-3.7-1.2C136.2,298.6,135.6,298.9,135.7,299.4L135.7,299.4z"/>
				</g>
			</g>
		</g>
		<path class="st5" d="M106,282.5l14.9-2.2c0,0-2.9-24.6-9-26C99.4,251.2,106,282.5,106,282.5z"/>
		<path class="st16" d="M106,282.5l14.9-2.2c0,0-2.9-24.6-9-26C99.4,251.2,106,282.5,106,282.5z"/>
		<path class="st5" d="M66.3,317.6c17.4,5.2,32.4,7.2,45,1.2c0-6.1-3-13.3-2.4-20.5c1.6-19.7,3.6-43.9,3.6-43.9
			c-23.4-12.3-37.2-4.4-37.2-4.4C69.4,269.3,66.3,317.6,66.3,317.6z"/>
		<path class="st16" d="M66.3,317.6c17.4,5.2,32.4,7.2,45,1.2c0-6.1-3-13.3-2.4-20.5c1.6-19.7,3.6-43.9,3.6-43.9
			c-23.4-12.3-37.2-4.4-37.2-4.4C69.4,269.3,66.3,317.6,66.3,317.6z"/>
		<polygon class="st9" points="69.4,284.2 73,278.5 75.9,279.3 79.6,264.8 70.3,276.8 		"/>
		<g>
			<path class="st5" d="M77.8,248.8c0,0,5,1,4.9,7.4c-0.1,6.4-2.9,25.1-6.3,27.4c-3.4,2.2-7.2,1.7-7.2,1.7s-4.3,28.3-4,29.7
				c0.4,1.4,18,4.6,28.7,4.3c10.7-0.2,17.5-3.5,17.5-3.5s-0.8-13-0.5-17c0.3-4,1.6-44.7,1.6-44.7l-7-3.1l-6.7,19.7l-10.5-23.1
				C88.4,247.5,81.9,247.3,77.8,248.8z"/>
			<path class="st17" d="M66.8,302.1c0,0,16.3,4.1,28.9,4.1s15.2-1.6,15.2-1.6v-5.4c0,0-8.7,1.2-17.8,1.2c-10.9,0-25.4-4.6-25.4-4.6
				L66.8,302.1z"/>
			<path class="st17" d="M65.6,310.7c0,0,16.5,3.3,29.5,3.3s16.1-2,16.1-2l-0.2-5.2c0,0-9.1,1.4-18.5,1.4c-11.2,0-26-4.4-26-4.4
				L65.6,310.7z"/>
			<g>
				<g>
					<path class="st10" d="M99,270.3c-0.8,16.3-1.6,32.6-2.3,48.9c0,0.5,0.7,0.5,0.8,0c0.8-16.3,1.6-32.6,2.3-48.9
						C99.8,269.8,99,269.8,99,270.3L99,270.3z"/>
				</g>
			</g>
		</g>
		<g>
			<path class="st10" d="M89,227.9c0,0,20.1-0.5,22.9-1c2.8-0.5,4.4-2.8,4.4-2.8s-18.7-3-18.9-3s-8,2.2-8,2.2L89,227.9z"/>
			<g>
				<path class="st15" d="M102.6,250.3c-3.3-1.9-1.6-3.9-1.2-9l-7.1-3.9c-0.5,1.1-2.3,9.2-2.6,10.4c0,0,1.4,5,7.7,5.2
					C101.8,253.1,102.6,250.3,102.6,250.3z"/>
				<path class="st18" d="M101,244.6c-0.4,1.4-0.7,3.1-0.1,4.2c-2-1.5-5-3-6.2-8L101,244.6z"/>
				<g>
					<g>
						<path class="st15" d="M92.7,226.5c-1,6.9-1.7,10.8,1.1,15.1c4.1,6.3,13.1,5,16.1-1.6c2.8-5.9,3.9-16.3-2.3-20.3
							C101.6,215.7,93.7,219.6,92.7,226.5z"/>
						<path class="st10" d="M102.2,230.5c-0.1,0.7,0.1,1.3,0.6,1.4c0.5,0.1,1-0.4,1.1-1.1c0.1-0.7-0.1-1.3-0.6-1.4
							C102.8,229.3,102.3,229.8,102.2,230.5z"/>
						<path class="st10" d="M109,232.1c-0.1,0.7,0.1,1.3,0.6,1.4c0.5,0.1,1-0.4,1.1-1.1c0.1-0.7-0.1-1.3-0.6-1.4
							C109.6,230.9,109.2,231.4,109,232.1z"/>
						<path class="st19" d="M106.8,231.2c0,0,1.5,3.9,1.9,5.5c-1.2,0.7-2.8-0.1-2.8-0.1L106.8,231.2z"/>
						<path class="st10" d="M101.1,226.9c0.1,0.1,0.2,0.1,0.3,0c1.3-0.7,2.4-0.1,2.4,0c0.2,0.1,0.4,0,0.5-0.1c0.1-0.2,0-0.4-0.1-0.5
							c-0.1,0-1.4-0.8-3.1,0c-0.2,0.1-0.2,0.3-0.2,0.4C101,226.8,101.1,226.8,101.1,226.9z"/>
					</g>
					<path class="st10" d="M112.7,229.8c0.1,0,0.1,0,0.2-0.1c0.2-0.1,0.2-0.3,0.1-0.5c-1-1.5-2.6-1.5-2.6-1.5
						c-0.2,0-0.3,0.2-0.3,0.3c0,0.2,0.2,0.3,0.3,0.3c0.1,0,1.3,0,2.1,1.2C112.4,229.7,112.6,229.8,112.7,229.8z"/>
					<path class="st20" d="M103.4,238.9c-1.3-0.4-2.3-1.5-2.6-2.8"/>
				</g>
				<path class="st10" d="M91,219.7c-1.4,2-1.7,6.7-0.8,12.4c0.9,6.2,3.1,8.7,3.1,8.7c-1.6-2.9-0.9-8.5,0-8.6
					c0.9-0.2,0.9,0.9,0.9,0.9c2.1-1.4,4-5.1,3.2-7.8c-0.3-1.1,0.3-2.3,1.4-2.7l-0.1-3L91,219.7z"/>
				<path class="st15" d="M88.8,231.7c0.2,1.9,1.2,3.5,2.4,4.4c1.8,1.4,3.7,0,3.9-2.2c0.2-2-0.5-5.1-2.7-5.7
					C90.4,227.7,88.6,229.5,88.8,231.7z"/>
				<path class="st21" d="M90.8,230.1c0.4-0.4,1-0.4,1.4-0.2c0.5,0.2,0.8,0.6,1,1.1c0.3,0.6,0.4,1.2,0.3,1.8"/>
				<path class="st10" d="M89.3,221.1c0.4-2.4,2.3-4.3,4.8-4.6c1.9-2.1,8.7-3.6,14.9-0.3c6.2,3.3,4.7,8.6,4,9.1
					c-1.5,1.1-3.2-3.5-3.2-3.5s1.5,2.8-0.5,2.9c-2,0.1-6.1-2.8-6.1-2.8s1,1.4-0.2,2.1c-1.2,0.7-4.2-1.5-4.2-1.5
					S88.5,226.7,89.3,221.1z"/>
			</g>
			<g>
				<path class="st5" d="M116.8,223.8c-6.1,4.1-17.4-2.7-22.6-0.8c-5.2,1.9-5.2,4.8-5.2,4.9c-3.3,0.1-0.4-4-0.4-4
					c-0.9-9.7,6.5-13.4,15.9-12.2c8.8,1.2,9.1,9.6,9.1,9.6L116.8,223.8z"/>
				<path class="st18" d="M113.6,221.3c-2.8,2.6-14.6-1.1-19.5-0.8c-4.9,0.3-5.5,3.4-5.5,3.4c-0.9-9.7,6.5-13.4,15.9-12.2
					C113.3,212.9,113.6,221.3,113.6,221.3z"/>
				<path class="st5" d="M97.6,212.2c4-0.3,7.3,3.5,8.4,5.9c1.1,2.4,4.6,2.5,5.2,0.2c0.1-0.5,0.1-1.1,0-1.6c-0.6-2.5-2.5-4.4-5-4.9
					c-4.3-1.2-11.8-2.3-14.6,2.7C91.6,214.5,93.5,212.6,97.6,212.2z"/>
			</g>
			<g class="st9">
				<g>
					<path class="st10" d="M89.9,217.6c1.8-0.6,3.7-0.9,5.5-1.1c0.9-0.1,1.8-0.2,2.6-0.2c0.5,0,1,0,1.4,0.4c0.4,0.4,0.5,0.9,0.1,1.3
						c-0.7,0.7-2,0.5-2.8,0.5c-0.8,0.1-1.6,0.1-2.4,0.2c-1.7,0.2-3.4,0.7-5.1,1.1c-0.5,0.1-0.3,0.9,0.2,0.7c1.6-0.4,3.2-0.9,4.8-1.1
						c0.8-0.1,1.6-0.2,2.5-0.3c0.8-0.1,1.8,0.1,2.6-0.2c1.3-0.4,1.8-1.9,0.8-2.9c-0.6-0.5-1.3-0.6-2-0.6c-0.8,0-1.7,0.1-2.5,0.2
						c-1.9,0.2-3.9,0.5-5.7,1.1C89.2,217,89.4,217.7,89.9,217.6L89.9,217.6z"/>
				</g>
			</g>
		</g>
		<g>
			<g id="freepik--Boxes--inject-466">
				<path class="st22" d="M89.4,437.7v-109c0-4.7-1.4-9.3-4.1-13.2l-3.8-5.5h67.7l3.8,5.5c2.7,3.9,4.1,8.5,4.1,13.2v108"/>
				<path class="st23" d="M89.4,437.7v-109c0-4.7-1.4-9.3-4.1-13.2l-3.8-5.4c0,0,0-0.1,0-0.1h67.6l3.8,5.5c2.7,3.9,4.1,8.5,4.1,13.2
					v108"/>
				<path class="st10" d="M233.3,447.6c3.9,0,7,3.1,7,7c0,3.9-3.1,7-7,7c-3.9,0-7-3.1-7-7C226.2,450.8,229.4,447.6,233.3,447.6z"/>
				<path class="st16" d="M236.8,454.6c0-1.9-1.6-3.5-3.5-3.5s-3.5,1.6-3.5,3.5c0,1.9,1.6,3.5,3.5,3.5c0,0,0,0,0,0
					C235.2,458.1,236.8,456.6,236.8,454.6C236.8,454.6,236.8,454.6,236.8,454.6z"/>
				<path class="st10" d="M232.4,456.2L232.4,456.2c-1.1,0-2.1-0.7-2.5-1.7l-4.1-11.3h9.3v10.4C235.1,455,233.9,456.2,232.4,456.2
					L232.4,456.2z"/>
				<path class="st24" d="M232.4,456.2L232.4,456.2c-1.1,0-2.1-0.7-2.5-1.7l-4.1-11.3h9.3v10.4C235.1,455,233.9,456.2,232.4,456.2
					L232.4,456.2z"/>
				<path class="st10" d="M155.3,447.6c3.9,0,7,3.1,7,7c0,3.9-3.1,7-7,7c-3.9,0-7-3.1-7-7C148.3,450.8,151.5,447.6,155.3,447.6z"/>
				<path class="st16" d="M158.8,454.6c0-1.9-1.6-3.5-3.5-3.5c-1.9,0-3.5,1.6-3.5,3.5c0,1.9,1.6,3.5,3.5,3.5c0,0,0,0,0,0
					C157.3,458.1,158.8,456.6,158.8,454.6C158.8,454.6,158.8,454.6,158.8,454.6z"/>
				<path class="st10" d="M154.5,456.2L154.5,456.2c-1.1,0-2.1-0.7-2.5-1.7l-4.1-11.3h9.3v10.4C157.1,455,156,456.2,154.5,456.2
					L154.5,456.2z"/>
				<path class="st24" d="M154.5,456.2L154.5,456.2c-1.1,0-2.1-0.7-2.5-1.7l-4.1-11.3h9.3v10.4C157.1,455,156,456.2,154.5,456.2
					L154.5,456.2z"/>
				<path class="st10" d="M245.3,435v6.6c0,1.2-1,2.2-2.2,2.2H86.5c-1.2,0-2.2-1-2.2-2.2V435H245.3z"/>
				<path class="st16" d="M245.3,435v6.6c0,1.2-1,2.2-2.2,2.2H86.5c-1.2,0-2.2-1-2.2-2.2V435H245.3z"/>
				<path class="st24" d="M189.6,435v6.6c0,1.2-1,2.2-2.2,2.2H86.5c-1.2,0-2.2-1-2.2-2.2V435H189.6z"/>
				<path class="st10" d="M176.8,447.6c3.9,0,7,3.1,7,7c0,3.9-3.1,7-7,7s-7-3.1-7-7C169.8,450.8,172.9,447.6,176.8,447.6z"/>
				<path class="st25" d="M180.3,454.6c0-1.9-1.6-3.5-3.5-3.5c-1.9,0-3.5,1.6-3.5,3.5c0,1.9,1.6,3.5,3.5,3.5c0,0,0,0,0,0
					C178.7,458.1,180.3,456.6,180.3,454.6C180.3,454.6,180.3,454.6,180.3,454.6z"/>
				<path class="st10" d="M176,456.2L176,456.2c-1.1,0-2.1-0.7-2.5-1.7l-4.1-11.3h9.3v10.4C178.6,455,177.4,456.2,176,456.2
					L176,456.2z"/>
				<path class="st16" d="M176,456.2L176,456.2c-1.1,0-2.1-0.7-2.5-1.7l-4.1-11.3h9.3v10.4C178.6,455,177.4,456.2,176,456.2
					L176,456.2z"/>
				<path class="st10" d="M98.9,447.6c3.9,0,7,3.1,7,7c0,3.9-3.1,7-7,7c-3.9,0-7-3.1-7-7C91.9,450.8,95,447.6,98.9,447.6z"/>
				<path class="st25" d="M102.4,454.6c0-1.9-1.6-3.5-3.5-3.5c-1.9,0-3.5,1.6-3.5,3.5c0,1.9,1.6,3.5,3.5,3.5c0,0,0,0,0,0
					C100.8,458.1,102.4,456.6,102.4,454.6C102.4,454.6,102.4,454.6,102.4,454.6z"/>
				<path class="st10" d="M98,456.2L98,456.2c-1.1,0-2.1-0.7-2.5-1.7l-4.1-11.3h9.3v10.4C100.7,455,99.5,456.2,98,456.2L98,456.2z"
					/>
				<path class="st16" d="M98,456.2L98,456.2c-1.1,0-2.1-0.7-2.5-1.7l-4.1-11.3h9.3v10.4C100.7,455,99.5,456.2,98,456.2L98,456.2z"
					/>
			</g>
			<g>
				
					<rect x="175.3" y="373.5" transform="matrix(6.123234e-17 -1 1 6.123234e-17 -181.3549 610.2648)" class="st5" width="78.3" height="44.6"/>
				
					<rect x="157.3" y="391.5" transform="matrix(6.123234e-17 -1 1 6.123234e-17 -199.3586 592.2612)" class="st9" width="78.3" height="8.6"/>
				
					<rect x="219" y="417.3" transform="matrix(6.123234e-17 -1 1 6.123234e-17 -196.468 649.9501)" class="st7" width="15.5" height="11.7"/>
				<g>
					<rect x="114.9" y="390.3" class="st5" width="78.3" height="44.6"/>
					<rect x="114.9" y="390" class="st9" width="18.4" height="45"/>
					<rect x="147.5" y="362.4" class="st5" width="45.7" height="27.9"/>
					<rect x="179.1" y="366.1" class="st7" width="11" height="6"/>
					<rect x="138.4" y="394.5" class="st7" width="16.7" height="11.7"/>
					<rect x="147.5" y="362.4" class="st9" width="12.9" height="27.9"/>
					<g>
						<g>
							<path class="st10" d="M193.2,389.6c-20.3,0-40.5,0-60.8,0c-5.8,0-11.6,0-17.4,0c-0.5,0-0.5,0.8,0,0.8c20.3,0,40.5,0,60.8,0
								c5.8,0,11.6,0,17.4,0C193.7,390.4,193.7,389.6,193.2,389.6L193.2,389.6z"/>
						</g>
					</g>
				</g>
			</g>
		</g>
		<g>
			<g>
				<path class="st15" d="M64.7,267.6c0,0-7.9,18.7-7.3,21.7c0.6,3,25.1,17.3,25.1,17.3l3.2-5.4c0,0-17.5-14-17.5-15.7
					c0-0.8,4.9-12.7,4.9-12.7L64.7,267.6z"/>
				<path class="st5" d="M74.5,277.9L61,272.3c-0.9-0.1,9.5-24.4,16.8-22.3C86.9,252.9,74.5,277.9,74.5,277.9z"/>
				<path class="st16" d="M74.5,277.9L61,272.3c-0.9-0.1,9.5-24.4,16.8-22.3C86.9,252.9,74.5,277.9,74.5,277.9z"/>
			</g>
			<g>
				<path class="st15" d="M88.6,312.7c-0.3-1.9-0.8-3-0.8-3s-5.3-1.9-6.6-3.4c-0.3-0.4-0.6-0.7-0.8-1.1l-6.9-4.3l3.6-6.3l7.9,5.7
					c1,0.3,9.2,3,10.7,4.9v0c0,0,3.4,5.3,3.7,6.3c0.3,1.1-1,1.6-1.6,1c-0.3-0.3-1.1-1.7-1.3-1.8c-0.1,1.1,0.2,2-0.8,2.3
					c-1.1,0.3-1.8-3.2-1.9-3.7c0.1,0.5,1.2,3.5,0,4.6c-1.3,1.2-1.7-0.2-1.7-0.2l-0.7-3.2c0,0,0.3,3.6-0.7,4.2
					C89.8,315.1,89,314.6,88.6,312.7z"/>
				<g>
					<g>
						<path class="st10" d="M91.5,312.7c-0.2-0.8-0.2-1.7-0.2-2.6c0-0.5-0.1-0.9-0.1-1.3c-0.1-0.3-0.1-0.7-0.3-1
							c-0.3-0.4-0.9,0-0.6,0.4c0.1,0.1,0.1,0.2,0.1,0.3c0.1,0.2,0.1,0.4,0.1,0.5c0.1,0.4,0.1,0.8,0.1,1.3c0,0.9,0,1.7,0.2,2.6
							C90.8,313.3,91.6,313.1,91.5,312.7L91.5,312.7z"/>
					</g>
				</g>
				<g>
					<g>
						<path class="st10" d="M94.8,306c0.7,1.5,1.1,3,1.2,4.6c0,0.5,0.8,0.5,0.8,0c-0.1-1.7-0.6-3.4-1.3-5
							C95.2,305.2,94.6,305.6,94.8,306L94.8,306z"/>
					</g>
				</g>
				<g>
					<g>
						<path class="st10" d="M92.8,307.5c0.1,0.5,0.2,0.9,0.3,1.4c0,0.1,0,0.2,0,0.3c0,0,0,0.1,0,0.1c0,0,0,0,0,0c0,0.1,0,0.1,0,0.2
							c0,0.3,0.1,0.6,0.1,0.9c0,0.2,0.2,0.4,0.4,0.4c0.2,0,0.4-0.2,0.4-0.4c0-0.5-0.1-1-0.2-1.5c-0.1-0.5-0.2-1-0.3-1.4
							c0-0.2-0.3-0.3-0.5-0.3C92.8,307.1,92.7,307.3,92.8,307.5L92.8,307.5z"/>
					</g>
				</g>
			</g>
		</g>
	</g>
</g>
</svg>
