<?xml version="1.0" encoding="utf-8"?>
<!-- Generator: Adobe Illustrator 22.1.0, SVG Export Plug-In . SVG Version: 6.00 Build 0)  -->
<svg version="1.1" id="Layer_1" xmlns="http://www.w3.org/2000/svg" xmlns:xlink="http://www.w3.org/1999/xlink" x="0px" y="0px"
	 viewBox="0 0 192.756 192.756" enable-background="new 0 0 192.756 192.756" xml:space="preserve">
<g>
	<path fill="#673E89" d="M22.59,11.982h147.576c4.368,0,8.112,3.744,8.112,8.112V172.35c0,4.68-3.744,8.424-8.112,8.424H22.59
		c-4.68,0-8.112-3.744-8.112-8.424V20.094C14.478,15.726,17.91,11.982,22.59,11.982L22.59,11.982z"/>
	<path fill="#F7A131" d="M14.478,69.078c2.39,0,5.431,0,7.8,0c71.136,0,128.856-7.488,128.856-19.656
		c0-13.416-57.72-24.336-128.856-24.336c-2.369,0-5.41,0-7.8,0v-3.172c5.403-0.171,11.976,0.364,17.472,0.364
		c76.752,0,138.84,15.6,138.84,33.696S108.702,86.862,31.95,86.862c-5.496,0-12.068,0.003-17.472-0.246L14.478,69.078L14.478,69.078
		z"/>
	<path fill="#FFFFFF" d="M80.622,128.358c0-1.248-0.312-2.496-0.312-4.056c0-12.168,9.984-22.152,21.84-22.152
		c12.168,0,21.84,9.984,21.84,22.152s-9.672,22.152-21.84,22.152c-9.048,0-16.848-5.616-20.28-13.728c-1.56,0-3.432,0-5.304,0
		c-5.616,0-10.92-0.312-15.6-0.936l0,0v9.672h20.592v4.368h-24.96v-14.976c-5.928-1.248-9.672-3.432-9.672-5.616
		s2.808-4.68,9.672-5.928v-13.104L28.83,145.83h-5.616l29.64-42.744h28.704v4.68H60.966v10.92c3.12-0.312,6.864-0.624,11.232-0.624
		c-4.368,0-8.112,0.624-11.232,1.248v8.112c4.368,0.624,9.984,1.248,16.224,1.248c1.248,0,2.496,0,3.432,0L80.622,128.358
		L80.622,128.358z"/>
	<polygon fill="#FFFFFF" points="159.87,103.086 159.87,145.83 155.19,145.83 130.854,111.198 130.854,145.83 126.486,145.83 
		126.486,103.086 130.854,103.086 155.19,138.03 155.19,103.086 	"/>
	<path fill="#673E89" d="M56.598,126.486c-3.12-0.624-4.992-1.872-4.992-2.808s1.872-2.184,4.992-3.12V126.486L56.598,126.486z"/>
	<path fill="#673E89" d="M86.862,132.414c11.232-1.248,19.344-3.744,19.344-7.176c0-2.808-3.744-5.304-15.912-6.552
		c7.176,0.936,12.168,3.12,12.168,4.992c0,2.184-7.176,4.056-17.16,4.68c-0.312-1.248-0.312-2.496-0.312-4.056
		c0-9.672,7.8-17.472,17.16-17.472c9.672,0,17.472,7.8,17.472,17.472s-7.8,17.784-17.472,17.784
		C95.598,142.086,89.67,138.03,86.862,132.414L86.862,132.414L86.862,132.414z"/>
	<path fill="#FFFFFF" d="M36.942,166.734c-0.312,0.312-1.872,1.56-3.432,1.56c-2.808,0-4.68-2.496-4.68-6.24
		c0-3.12,1.56-6.24,4.68-6.24c1.56,0,2.808,1.248,3.12,1.872v-0.312c0.312-0.312,0.312-0.936,0.624-1.248
		c-1.248-0.624-2.496-0.936-3.744-0.936c-3.432,0-6.24,2.496-6.24,6.864s2.184,7.176,5.928,7.176c1.248,0,2.496-0.312,3.744-1.248
		L36.942,166.734L36.942,166.734z"/>
	<path fill="#FFFFFF" d="M41.622,156.126c0.624,0,1.872,0,2.496,0c1.248,0.312,1.872,1.248,1.872,2.496
		c0,1.56-0.936,2.496-2.184,2.808c-0.936,0.312-1.872,0-2.184,0L41.622,156.126L41.622,156.126z M40.374,168.918
		c0,0,0.312,0,0.624,0s0.312,0,0.624,0v-6.552h0.624l1.248,1.872l2.184,2.808c0.312,0.624,0.624,1.248,0.936,1.872
		c0.312,0,0.624,0,0.936,0c0.312,0,0.624,0,0.936,0l-0.312-0.624l-0.624-0.936l-3.432-5.304c1.56-0.312,3.12-1.248,3.12-3.744
		c0-1.872-0.936-2.808-3.432-2.808h-3.432L40.374,168.918L40.374,168.918z"/>
	<path fill="#FFFFFF" d="M52.854,156.438h1.248h1.56c0.624,0,0.936,0,1.56,0v-0.312c0-0.312,0-0.624,0-0.624h-5.928v13.416h5.928
		c0-0.312,0-0.624,0-0.624c0-0.312,0-0.312,0-0.624c-0.312,0-0.936,0-1.56,0c-0.936,0.312-1.872,0.312-2.808,0.312v-5.928h2.496
		c0.312,0,0.936,0,1.56,0.312c0-0.312-0.312-0.624-0.312-0.624c0-0.312,0.312-0.312,0.312-0.624c-0.624,0-1.248,0-1.56,0h-2.496
		V156.438L52.854,156.438z"/>
	<path fill="#FFFFFF" d="M62.214,156.126c0.624,0,1.248,0,2.184,0c3.432,0,4.992,1.56,4.992,5.616c0,2.496-0.624,4.68-2.496,5.616
		c-1.248,0.936-3.12,0.624-4.68,0.624L62.214,156.126L62.214,156.126z M60.654,168.918h3.432c1.56,0,3.432-0.312,4.992-1.56
		c1.248-1.248,1.872-3.12,1.872-5.928c0-1.872-0.312-3.744-1.56-4.992c-1.56-1.248-3.12-0.936-4.992-0.936h-3.744V168.918
		L60.654,168.918z"/>
	<path fill="#FFFFFF" d="M74.382,168.918c0.312,0,0.624,0,0.936,0c0.312,0,0.312,0,0.625,0v-13.416c-0.313,0-0.313,0-0.625,0
		s-0.624,0-0.936,0V168.918L74.382,168.918z"/>
	<path fill="#FFFFFF" d="M84.054,156.438c1.248,0,2.496,0,3.432,0v-0.312c0-0.312,0-0.624,0-0.624H78.75
		c0.312,0,0.312,0.312,0.312,0.624c0,0,0,0.312-0.312,0.312c0.936,0,2.184,0,3.744,0v12.48c0.312,0,0.624,0,0.624,0
		c0.312,0,0.624,0,0.936,0V156.438L84.054,156.438z"/>
	<path fill="#FFFFFF" d="M95.286,166.11c0,0.624,0,1.248-0.312,1.872c0.624,0.624,1.872,1.248,2.808,1.248
		c2.184,0,4.056-1.872,4.056-4.68c0-4.056-5.304-2.808-5.304-6.24c0-1.56,0.936-2.496,2.184-2.496c0.936,0,1.872,0.936,2.184,1.872
		l0,0c0.312-0.624,0.312-1.248,0.624-1.56c-0.624-0.624-1.56-0.936-2.496-0.936c-1.872,0-3.744,1.248-3.744,3.744
		c0,4.368,5.304,2.808,5.304,6.552c0,1.56-0.936,2.808-2.184,2.808c-1.56,0-2.184-0.936-2.808-2.184L95.286,166.11L95.286,166.11z"
		/>
	<path fill="#FFFFFF" d="M106.518,156.438h1.248h1.56c0.625,0,1.248,0,1.561,0v-0.312c0-0.312,0-0.624,0-0.624h-5.928v13.416h6.24
		c-0.312-0.312-0.312-0.624-0.312-0.624c0-0.312,0-0.312,0.312-0.624c-0.624,0-1.248,0-1.56,0c-1.248,0.312-2.184,0.312-3.12,0.312
		v-5.928h2.496c0.624,0,0.936,0,1.56,0.312c0-0.312,0-0.624,0-0.624c0-0.312,0-0.312,0-0.624c-0.624,0-0.936,0-1.56,0h-2.496v-4.68
		H106.518z"/>
	<path fill="#FFFFFF" d="M115.878,156.126c0.624,0,1.872,0,2.496,0c1.248,0.312,1.56,1.248,1.56,2.496
		c0,1.56-0.624,2.496-1.872,2.808c-0.935,0.312-1.872,0-2.184,0V156.126L115.878,156.126z M114.318,168.918c0.312,0,0.624,0,0.936,0
		c0,0,0.311,0,0.624,0v-6.552h0.624l1.248,1.872l1.872,2.808c0.312,0.624,0.624,1.248,1.248,1.872c0.312,0,0.625,0,0.936,0
		c0.312,0,0.624,0,0.936,0l-0.312-0.624l-0.935-0.936l-3.433-5.304c1.872-0.312,3.433-1.248,3.433-3.744
		c0-1.872-0.937-2.808-3.745-2.808h-3.432L114.318,168.918L114.318,168.918z"/>
	<path fill="#FFFFFF" d="M130.23,164.238c-0.312,0.936-0.624,1.56-0.936,2.496h-0.312l-1.872-5.928l-1.248-3.432
		c-0.312-0.624-0.312-1.248-0.624-1.872c-0.312,0-0.624,0-0.624,0c-0.312,0-0.624,0-0.936,0c0.624,1.56,3.12,8.736,4.992,13.416
		h0.312h0.312c0.624-2.184,4.368-12.168,4.68-13.416h-0.312c-0.312,0-0.624,0-0.624,0l-0.312,0.312l-0.936,3.12L130.23,164.238
		L130.23,164.238z"/>
	<path fill="#FFFFFF" d="M136.782,168.918c0.312,0,0.624,0,0.936,0c0,0,0.312,0,0.624,0v-13.416c-0.312,0-0.624,0-0.624,0
		c-0.312,0-0.624,0-0.936,0V168.918L136.782,168.918z"/>
	<path fill="#FFFFFF" d="M151.134,166.734c-0.312,0.312-1.872,1.56-3.432,1.56c-2.808,0-4.68-2.496-4.68-6.24
		c0-3.12,1.56-6.24,4.68-6.24c1.56,0,2.808,1.248,3.12,1.872v-0.312c0.312-0.312,0.312-0.936,0.624-1.248
		c-1.248-0.624-2.496-0.936-3.744-0.936c-3.432,0-6.24,2.496-6.24,6.864s2.184,7.176,5.928,7.176c1.248,0,2.496-0.312,3.744-1.248
		V166.734L151.134,166.734z"/>
	<path fill="#FFFFFF" d="M155.814,156.438h1.248h1.56c0.624,0,1.248,0,1.56,0v-0.312c0-0.312,0-0.624,0-0.624h-5.928v13.416h6.24
		c-0.312-0.312-0.312-0.624-0.312-0.624c0-0.312,0-0.312,0.312-0.624c-0.624,0-1.248,0-1.56,0c-1.248,0.312-2.184,0.312-3.12,0.312
		v-5.928h2.496c0.624,0,0.936,0,1.56,0.312c0-0.312,0-0.624,0-0.624c0-0.312,0-0.312,0-0.624c-0.624,0-0.936,0-1.56,0h-2.496
		L155.814,156.438L155.814,156.438z"/>
</g>
</svg>
